<svg width="99" height="91" viewBox="0 0 99 91" fill="none" xmlns="http://www.w3.org/2000/svg">
<path d="M50.9826 0.510986C68.8873 1.789 83.4623 9.48214 93.7961 24.2263C99.1618 31.885 100.092 40.4959 94.9394 48.9815C92.6058 52.825 89.2353 55.5063 84.9847 56.9378C74.0432 60.6246 63.3524 64.7312 54.682 72.7783C50.8855 76.3022 47.0107 79.7478 43.0671 83.1057C37.0967 88.1896 30.384 91.2531 22.3087 89.8529C12.9711 88.2335 7.82146 80.3806 9.86064 71.1306C10.5623 67.9481 11.8998 65.0695 13.6446 62.36C18.6125 54.648 20.1161 46.7262 17.0025 37.6674C12.2131 23.7282 17.7824 11.5996 31.2047 5.08427C37.4037 2.07405 43.9849 0.630017 50.9826 0.510986Z" fill="#5EA205"/>
<path d="M28.5548 82.6328C14.7284 82.6328 4.17852 74.2725 1.31552 62.3757C-1.47857 50.7639 4.08142 38.6009 14.719 33.044C15.0416 32.8749 15.358 32.6117 15.6994 32.5773C16.2664 32.5178 17.0526 32.3925 17.3659 32.6932C17.6791 32.9939 17.6822 33.8177 17.5538 34.3502C17.0495 36.4708 16.1912 38.5319 15.9093 40.6745C13.513 58.7515 31.3019 72.5465 48.3013 65.8839C48.9716 65.6208 49.8237 65.815 50.5911 65.7994C50.519 66.5637 50.6757 67.447 50.3468 68.0735C45.3851 77.502 37.4319 82.1661 28.5579 82.6328H28.5548ZM46.6286 69.1698C36.7741 71.5191 28.0035 69.5269 20.824 62.3443C13.6509 55.1649 11.715 46.3848 14.0424 36.5178C7.97184 39.8413 1.28733 49.11 3.44241 60.8627C5.29992 70.9897 13.8325 78.8646 24.2696 80.0643C33.0497 81.0729 43.8157 75.8637 46.6286 69.1729V69.1698Z" fill="black"/>
<path d="M76.0168 56.2174C75.4592 56.6778 75.0802 57.2604 74.6416 57.3074C71.3589 57.652 69.6674 59.3999 69.2101 62.6763C69.0127 64.0984 67.5499 64.3678 66.8671 63.118C65.2789 60.2143 63.1427 58.8454 59.7315 59.3153C58.2405 59.522 57.6046 58.1406 58.6947 57.0568C60.9844 54.789 61.235 52.446 59.719 49.702C59.4809 49.2697 59.5247 48.2862 59.8255 48.045C60.2327 47.7223 61.1599 47.6127 61.614 47.8633C64.3079 49.3574 66.6541 49.1538 68.8373 46.8891C69.1756 46.5383 70.0778 46.3378 70.4724 46.5414C70.889 46.7575 71.29 47.5876 71.2117 48.0732C70.6886 51.2776 71.9822 53.4107 74.8045 54.8172C75.2493 55.0364 75.5124 55.6191 76.0105 56.2142L76.0168 56.2174ZM67.4246 59.569C67.6909 57.132 69.0347 55.901 71.4059 55.5282C68.9376 54.5133 68.4239 52.6339 68.64 50.2314C66.9015 52.0763 65.0033 52.1484 62.8294 51.1178C64.3392 53.3293 63.6376 55.1054 62.0839 56.872C64.5929 56.4304 66.2938 57.2949 67.4215 59.5659L67.4246 59.569Z" fill="black"/>
<path d="M48.1698 10.3936C47.7907 11.4116 47.2457 12.555 46.9638 13.7578C46.8134 14.3999 46.9544 15.23 47.252 15.8346C47.6842 16.7085 48.4078 17.4352 48.9591 18.2559C49.7861 19.4901 49.3444 20.6741 47.9505 20.4955C44.5205 20.0539 42.2621 21.3162 40.6708 24.3359C40.0412 25.5293 38.6222 25.263 38.4468 23.9067C38.0208 20.6146 36.3137 18.945 33.0529 18.472C31.6276 18.2653 31.3802 16.8275 32.6488 16.1478C35.5995 14.5691 36.8462 12.3576 36.4108 8.98716C36.2291 7.58072 37.5823 6.93545 38.5878 7.94721C40.9465 10.3216 43.3741 10.4938 46.2339 8.9715C47.4117 8.34502 48.2857 9.04981 48.1698 10.3936ZM40.1571 20.6835C41.219 18.3123 43.0859 17.6921 45.5166 17.9301C43.6622 16.1917 43.5902 14.3373 44.6584 12.1916C42.4688 13.4821 40.627 13.0467 38.8352 11.3803C39.4053 13.9677 38.262 15.562 36.1508 16.8526C38.7225 16.9152 39.7875 18.3154 40.1602 20.6835H40.1571Z" fill="black"/>
<path d="M63.4183 25.0626H57.0377V22.5222C60.0949 22.5222 63.1552 22.4909 66.2124 22.5567C66.6259 22.5661 67.29 22.9983 67.3745 23.346C67.4842 23.7971 67.2649 24.4737 66.9485 24.8559C65.1944 26.9921 63.3682 29.0658 61.5671 31.1645C61.2633 31.5184 60.9657 31.8755 60.4739 32.4613H66.8671V35.0424C65.5828 35.0424 64.2516 35.0424 62.9203 35.0424C61.5107 35.0424 60.0949 35.1301 58.6978 35.0079C57.9555 34.9421 57.2444 34.5193 56.5177 34.2561C56.7871 33.5795 56.9155 32.7902 57.354 32.2514C59.0267 30.184 60.7997 28.1981 62.5288 26.1809C62.7856 25.8833 63.0174 25.5638 63.4152 25.0563L63.4183 25.0626Z" fill="black"/>
<path d="M46.6693 38.7667H40.7177V36.3203C43.872 36.3203 47.0264 36.2921 50.1807 36.3579C50.5221 36.3642 51.1141 36.8904 51.1298 37.1974C51.158 37.6829 50.9262 38.3282 50.5722 38.6665C49.2973 39.8913 47.9222 41.0127 46.591 42.1779C46.0929 42.6133 45.6011 43.0612 44.818 43.7598H50.591V46.3158C48.7335 46.3158 46.8321 46.3158 44.9308 46.3158C43.8376 46.3158 42.7319 46.4098 41.6543 46.2719C41.1343 46.2061 40.4546 45.8083 40.251 45.3729C40.0944 45.0409 40.4421 44.2672 40.796 43.9383C42.5846 42.2813 44.4484 40.7025 46.6661 38.7636L46.6693 38.7667Z" fill="black"/>
<path d="M29.4381 47.5658C30.9761 47.5658 32.4233 47.5094 33.8611 47.6002C34.2996 47.6284 34.9543 47.9667 35.0733 48.3113C35.2205 48.7404 35.0514 49.4201 34.7757 49.8242C34.1774 50.7075 33.4225 51.4875 32.5893 52.4805C33.3098 52.5463 33.7953 52.5901 34.3372 52.6371V55.0553C32.771 55.0553 31.1798 55.1493 29.6042 55.024C28.5235 54.9363 28.204 53.8525 28.9182 52.9096C29.5948 52.0169 30.3591 51.1868 31.233 50.1594C30.475 50.0967 29.9832 50.056 29.435 50.0121V47.5658H29.4381Z" fill="black"/>
</svg>
