<svg width="99" height="94" viewBox="0 0 99 94" fill="none" xmlns="http://www.w3.org/2000/svg">
<path d="M98.4854 37.7347C99.0646 42.6674 97.2218 46.932 94.0267 50.6899C89.3112 56.2378 86.8037 62.7368 87.2085 69.8906C88.0575 84.932 73.5097 93.8133 61.4759 92.9775C54.1444 92.4675 48.1884 88.9992 43.7691 83.1847C40.0737 78.3244 34.9503 76.4554 29.2871 75.3365C23.5977 74.2145 17.7469 74.2408 12.12 72.6053C5.51573 70.6869 2.0573 66.0998 1.06024 58.7782C-0.489634 47.396 6.30548 40.5482 15.5159 37.0634C17.0362 36.4876 18.6486 36.1388 20.2445 35.7966C25.5885 34.6514 29.557 31.5944 32.5185 27.1061C33.7327 25.2633 34.9536 23.4239 36.1151 21.5482C39.4946 16.099 44.0916 12.3575 50.4523 10.8702C65.678 7.31302 79.3373 10.3832 91.1539 20.6663C96.1984 25.056 99.0185 30.6764 98.4854 37.7314V37.7347Z" fill="#5EA205"/>
<path d="M25.3548 61.1211C21.5969 59.8838 17.5955 58.8736 13.8508 57.2645C7.4769 54.5234 5.50912 50.1798 7.5493 43.5723C9.91196 35.9315 14.5879 29.7319 20.5472 24.5492C22.0017 23.2856 24.1537 22.8381 25.9603 21.9628C26.6019 21.6535 27.3358 21.3211 27.7504 20.7848C35.0884 11.2815 49.6461 11.3045 57.0006 20.8275C57.412 21.3606 58.1589 21.6798 58.8072 21.9825C60.4788 22.7657 62.4729 23.1408 63.8221 24.286C70.0709 29.5904 74.7864 36.0335 77.3103 43.9276C77.6065 44.8556 77.7677 45.8592 77.8105 46.8365C77.9816 50.9136 76.6982 54.2207 72.891 56.3036C68.554 58.6762 63.8813 59.9463 59.1395 60.8085C59.9523 63.7931 60.7684 66.7283 61.545 69.6734C61.7128 70.3052 61.7687 70.9666 61.8411 71.6214C62.1834 74.7541 60.6631 77.0279 57.6489 77.7288C47.4381 80.0948 37.2175 80.075 27.01 77.7156C24.0846 77.0378 22.3603 74.7146 22.8967 71.7432C23.5515 68.1038 24.5486 64.5269 25.3515 61.131L25.3548 61.1211ZM42.3574 77.2484C47.1814 76.5573 52.0055 75.9288 56.8065 75.1523C58.8467 74.8232 59.6331 73.7932 59.1494 71.7596C58.3037 68.2124 57.2606 64.698 56.0694 61.2461C55.3191 59.071 55.408 58.6465 57.6226 58.3142C62.3545 57.6001 66.9975 56.557 71.2161 54.1713C74.5429 52.2924 75.8394 49.9725 75.0365 46.2607C73.1937 37.7479 68.1098 31.2423 61.4857 25.905C60.3176 24.9638 58.4518 24.7105 56.8624 24.5328C55.2336 24.3518 53.9108 25.26 53.1737 26.7868C52.453 28.2775 53.2066 29.4588 54.1707 30.4888C55.0657 31.4463 56.0628 32.3151 57.0401 33.197C60.2156 36.0631 63.4601 38.8535 66.5599 41.7953C68.1986 43.3518 69.1134 45.3591 67.965 47.5934C66.8725 49.7191 64.7961 50.2226 62.6177 49.9955C59.0803 49.6303 55.5626 49.0742 52.0318 48.6595C51.3671 48.5806 50.6004 48.6102 49.9982 48.8668C44.878 51.0551 39.794 51.0419 34.6804 48.8438C34.121 48.6036 33.4102 48.5444 32.8015 48.6299C30.6889 48.9294 28.6026 49.4657 26.4835 49.6599C24.2623 49.8639 21.9622 50.1008 19.7904 49.7487C16.6478 49.242 15.4369 46.4614 16.921 43.6315C17.4902 42.5456 18.3491 41.5518 19.2573 40.7127C22.9658 37.2938 26.7731 33.9801 30.4816 30.5645C31.5083 29.6168 32.2618 28.3927 31.5971 26.8889C30.8797 25.2699 29.5339 24.5032 27.803 24.4834C25.3778 24.4538 23.2916 25.4377 21.5673 27.0468C20.0898 28.4256 18.688 29.9162 17.4475 31.5089C14.4464 35.3556 11.3829 39.2319 10.1226 44.0593C8.49041 50.3081 10.0732 53.0031 15.1835 54.9644C19.0368 56.4451 23.1336 57.3237 27.1646 58.2879C29.2279 58.7815 29.4023 59.1171 28.7112 61.1474C27.5167 64.6519 26.4407 68.2124 25.572 71.8123C25.0916 73.8097 25.9043 74.8298 27.9676 75.1621C32.7159 75.9288 37.484 76.5508 42.3574 77.2484ZM30.215 22.1142C35.4208 25.2106 35.8584 29.2318 31.5214 33.3121C30.4454 34.3256 29.2509 35.2273 28.2505 36.3099C27.8853 36.708 27.6549 37.5866 27.8326 38.0736C29.9452 43.8717 35.842 47.7875 42.3245 47.8007C48.8235 47.8139 54.6117 43.9573 56.9217 38.1625C57.2705 37.2905 57.1421 36.8002 56.4544 36.1947C54.8551 34.783 53.223 33.3779 51.8179 31.7787C49.9094 29.6102 49.679 27.162 51.1993 24.9836C52.0088 23.8253 53.2493 22.9664 54.3155 21.9529C49.0176 14.3615 36.3685 14.3253 30.2118 22.1142H30.215ZM24.927 39.1266C23.2291 40.7193 21.3403 42.3119 19.6785 44.1086C18.2602 45.642 18.8493 47.2939 20.8796 47.2939C24.0418 47.2939 27.2008 46.8662 30.3894 46.6194C28.4644 43.977 26.7731 41.6571 24.9303 39.1233L24.927 39.1266ZM59.7779 39.1431C57.9681 41.6308 56.2306 44.0198 54.3517 46.5996C57.3725 46.876 60.3011 47.2314 63.2364 47.3499C64.0261 47.3828 65.2667 46.8694 65.5365 46.2673C65.803 45.6684 65.3423 44.4212 64.7928 43.8388C63.1936 42.1375 61.3903 40.6304 59.7779 39.1431Z" fill="black"/>
<path d="M66.5862 8.53383C69.0377 10.495 69.7255 12.5714 68.8502 14.9374C68.2809 16.4774 67.32 17.5962 65.5168 17.6357C63.3647 17.685 61.6305 16.1944 60.3143 13.3546C60.0379 14.2694 59.8668 15.2335 59.4522 16.0792C59.1692 16.6583 58.5505 17.0697 58.0833 17.5567C57.6719 16.9611 56.869 16.3326 56.9118 15.7699C57.1257 12.9959 58.4189 10.7978 60.9 9.36635C61.6404 8.93857 62.3578 8.4384 62.9863 7.86254C64.4638 6.50352 66.1815 5.68086 68.169 5.77629C68.7909 5.80591 69.7682 6.45087 69.9032 6.98724C70.1532 7.97442 69.2845 8.34626 68.3401 8.35942C67.8663 8.366 67.3924 8.44827 66.5862 8.53054V8.53383ZM66.5336 13.4697C66.5829 11.5941 65.7175 11.2387 64.6513 11.1499C63.6082 11.061 63.3746 11.7488 63.3614 12.6043C63.345 13.756 64.523 15.2368 65.3588 14.888C65.984 14.628 66.3394 13.7165 66.5303 13.4697H66.5336Z" fill="black"/>
<path d="M36.7272 8.4219C37.5729 9.87965 39.2215 10.1396 41.1234 8.97802C41.6499 8.65554 42.5154 8.36267 42.9859 8.57985C43.9007 9.00434 43.8448 9.8599 43.1965 10.6299C41.9626 12.0876 39.3728 12.6997 37.2833 12.0153C35.0588 11.288 33.7261 9.52755 33.4859 7.34258C33.3609 6.21061 32.9199 5.10826 32.5843 4.0059C32.3934 3.38069 31.9097 2.77192 31.9426 2.17632C31.9755 1.59059 32.377 0.853498 32.8541 0.537599C33.0878 0.382941 33.94 0.935763 34.3514 1.33393C34.6706 1.64654 34.7429 2.21252 34.7627 2.25859C36.6877 1.95256 38.4482 1.4491 40.2086 1.45568C42.002 1.46226 43.5947 2.92 43.644 4.22637C43.7066 5.94407 42.5911 7.03656 41.1629 7.5466C39.7282 8.05665 38.1454 8.15866 36.7338 8.41861L36.7272 8.4219ZM36.7963 5.00625C38.4251 5.92433 39.6163 5.66108 40.982 4.46988C39.3531 3.83808 38.1027 3.66368 36.7963 5.00625Z" fill="black"/>
<path d="M24.4631 13.5947C22.0642 15.885 19.8792 16.7438 17.9707 15.9606C16.4866 15.3519 15.6047 13.6408 15.7956 11.7421C16.049 9.22147 17.3224 7.78347 20.1293 7.14181C19.2968 6.72719 18.6025 6.53304 18.1319 6.09868C17.7239 5.72026 17.2632 4.98316 17.3817 4.56526C17.4968 4.1638 18.3754 3.67021 18.8427 3.73931C21.0836 4.06179 22.436 5.63142 23.5647 7.45441C24.0451 8.231 24.5651 8.99442 25.1574 9.68216C27.0264 11.854 27.5135 14.3515 26.7961 17.0433C26.6579 17.5566 25.7464 17.8659 25.1936 18.2674C24.881 17.6652 24.3775 17.0893 24.3051 16.4608C24.1965 15.523 24.3972 14.5523 24.4631 13.5947ZM18.3293 12.5943C18.6321 12.8477 19.027 13.44 19.5041 13.519C20.6065 13.7 21.8668 12.4265 21.9063 11.2978C21.9457 10.1066 21.077 10.0211 20.2379 9.98818C18.6782 9.93224 18.6123 11.1399 18.3326 12.5943H18.3293Z" fill="black"/>
</svg>
