<svg width="98" height="99" viewBox="0 0 98 99" fill="none" xmlns="http://www.w3.org/2000/svg">
<path d="M52.1454 98.8014C32.4651 97.3966 16.4447 88.9406 5.08622 72.7342C-0.811681 64.3161 -1.83427 54.8512 3.8295 45.524C6.39456 41.2995 10.0993 38.3522 14.7714 36.7788C26.7979 32.7263 38.549 28.2125 48.0792 19.3674C52.2522 15.494 56.5112 11.7067 60.846 8.01576C67.4084 2.42773 74.7868 -0.939543 83.6629 0.599488C93.9265 2.37953 99.5869 11.0112 97.3455 21.1784C96.5742 24.6765 95.104 27.8407 93.1863 30.8189C87.7256 39.2956 86.073 48.003 89.4953 57.9602C94.7597 73.2817 88.638 86.6131 73.8847 93.7746C67.0675 97.0833 59.8372 98.6705 52.142 98.8014H52.1454Z" fill="#5EA205"/>
<path d="M52.6686 63.9131C52.8236 65.9617 52.0902 67.487 50.7715 68.8436C50.348 69.2774 50.107 70.0658 50.0967 70.6959C50.0347 74.3662 50.0657 78.0364 50.0657 81.7067C50.0657 82.657 50.0829 83.7381 48.7987 83.7174C47.5179 83.6967 47.573 82.5915 47.573 81.6619C47.5695 77.9366 47.6143 74.2147 47.5489 70.4893C47.5248 69.212 47.7933 68.1653 48.7883 67.3321C50.9609 65.5141 50.045 63.073 50.0313 60.8316C50.0313 60.5528 49.4873 60.0914 49.1464 60.0363C47.8174 59.8297 47.5523 59.0172 47.5557 57.8397C47.5592 55.55 47.3354 55.3676 45.0458 55.3607C43.5343 55.3572 42.0228 55.3538 40.5113 55.3607C38.3147 55.371 38.0668 55.6086 38.0668 57.7536C38.0633 65.4177 38.0668 73.0819 38.0668 80.7461C38.0668 81.1248 38.0668 81.5001 38.0668 81.8788C38.0702 82.8016 37.9532 83.7518 36.7825 83.7174C35.6153 83.683 35.5706 82.7086 35.5706 81.8031C35.5706 73.8153 35.5706 65.8275 35.5706 57.8397C35.5706 55.5914 35.3365 55.3641 33.0469 55.3572C31.3735 55.3538 29.7002 55.3779 28.0269 55.3503C26.7048 55.3297 25.9611 55.8496 26.0644 57.2647C26.1677 58.6557 26.0644 59.902 24.2637 60.1052C24.0434 60.1293 23.7955 60.3875 23.6612 60.601C23.0655 61.5478 23.4718 65.9893 24.3739 66.7605C25.8406 68.0138 26.1539 69.5356 26.0988 71.3673C25.9886 74.8172 26.0678 78.274 26.0644 81.7273C26.0644 82.6776 26.0541 83.745 24.7629 83.7105C23.6026 83.6795 23.5682 82.6879 23.5717 81.7824C23.5785 78.1122 23.5958 74.4419 23.551 70.7717C23.5441 70.1726 23.427 69.391 23.0449 69.0123C21.6229 67.6075 20.7931 66.0134 20.9515 63.9786C16.6581 64.4744 12.5402 69.0536 12.2166 73.7912C12.0375 76.4251 12.1339 79.0762 12.1029 81.7205C12.0926 82.6604 12.1029 83.7449 10.8049 83.7071C9.64806 83.6726 9.60331 82.6811 9.62741 81.7721C9.70316 78.8077 9.47248 75.8019 9.9063 72.8925C10.7567 67.2219 14.1653 63.4793 19.5881 61.6442C20.4798 61.3412 20.9928 60.9659 21.2958 60.0225C21.5231 59.3133 22.2495 58.7762 22.704 58.1254C23.038 57.6503 23.3169 57.1338 23.5717 56.6105C24.2912 55.13 23.3754 54.1418 22.7006 52.892C21.4439 50.5542 20.6038 47.9892 19.6191 45.5102C19.4469 45.0729 19.4125 44.5806 19.3023 44.0641C16.4721 43.9333 14.3684 42.7386 13.2977 40.1012C12.3026 37.6498 12.9981 34.9229 15.1294 33.2565C15.9178 32.6402 16.0934 32.0101 16.1313 31.0874C16.2483 28.1849 16.1313 25.2136 16.7407 22.4075C18.9442 12.2575 28.7327 5.28536 38.7864 6.43533C49.4597 7.6576 57.3408 16.217 57.5164 26.7801C57.5302 27.5893 57.5646 28.4018 57.5164 29.2075C57.3993 31.0564 57.5439 32.5989 59.2 34.0243C60.9939 35.5702 61.2177 37.9046 60.3053 40.1563C59.4238 42.322 57.7815 43.5993 55.4437 43.9367C55.127 43.9815 54.8067 43.9953 54.397 44.0331C54.28 44.4532 54.1216 44.8457 54.0665 45.252C53.6258 48.4918 52.3106 51.3392 50.2826 53.8802C49.4838 54.8821 49.8419 57.275 50.8438 58.0876C51.3362 58.4869 52.0007 58.9517 52.1143 59.4889C52.4517 61.0727 53.6189 61.4135 54.8825 61.9265C60.4499 64.1989 63.4935 68.4269 63.9652 74.3937C64.1649 76.914 64.0031 79.4653 64.0168 81.9993C64.0237 82.898 63.8206 83.7105 62.7636 83.7036C61.6859 83.6968 61.5516 82.8257 61.5413 81.9615C61.5138 79.2621 61.6067 76.5594 61.4346 73.8704C61.1316 69.1293 57.2754 64.7601 52.6686 63.8925V63.9131ZM21.8432 37.2125C24.2637 34.7335 27.1558 34.2618 30.2855 34.465C30.7676 34.496 31.2565 34.4787 31.7419 34.4581C36.5346 34.2343 40.5285 32.4577 43.3553 28.4431C44.4054 26.9489 45.5932 26.4427 47.1564 27.3689C48.1824 27.9783 49.0776 29.0594 49.6491 30.1337C50.441 31.621 50.8748 33.2978 51.4601 34.8954C51.2157 32.2167 52.6755 31.5177 54.8963 31.8586C56.0152 22.4178 52.7065 15.067 45.7034 11.1454C39.3304 7.57841 31.377 8.12585 25.6271 12.6913C19.3953 17.6389 17.7908 24.2185 18.8685 31.8242C19.1164 31.8448 19.3781 31.8724 19.6397 31.8827C21.6573 31.9585 21.826 32.1272 21.8398 34.1517C21.8467 35.1742 21.8398 36.1968 21.8398 37.2194L21.8432 37.2125ZM46.0993 29.3039C45.7516 29.4932 45.6931 29.507 45.6586 29.5449C45.3522 29.9167 45.0527 30.2955 44.7462 30.6708C42.1984 33.8005 38.9688 35.8628 34.9715 36.4929C32.9608 36.8097 30.8949 36.8062 28.8532 36.851C25.0177 36.9302 21.5747 40.6349 21.9293 44.4601C22.2082 47.4383 23.3478 50.0928 25.3069 52.3549C25.6271 52.7233 26.2813 52.9678 26.7874 52.9781C29.1597 53.0298 31.5698 52.7233 33.8938 53.0504C35.9321 53.3362 37.8499 53.3534 39.8675 53.0229C41.4444 52.7646 43.1418 52.7268 44.7049 53.0229C47.7348 53.5979 49.1774 51.9418 50.1724 49.5626C50.7715 48.1303 51.2777 46.6395 51.6082 45.1246C51.8044 44.2191 51.7976 43.1448 51.5014 42.2737C50.2241 38.5002 48.8365 34.7645 47.4077 31.0426C47.1529 30.3747 46.5194 29.8513 46.0959 29.3039H46.0993ZM19.261 41.5301V34.3514C16.8371 34.4512 15.4082 35.7664 15.3704 37.8495C15.3291 40.0186 16.7372 41.3889 19.261 41.5301ZM54.3592 41.561C57.0654 41.2959 58.4254 39.8567 58.2601 37.6153C58.1121 35.6115 56.6109 34.3514 54.3592 34.403V41.561Z" fill="black"/>
<path d="M31.1703 1.83886C31.5559 1.83886 31.7349 1.88707 31.8761 1.83198C35.4568 0.482313 39.0203 1.52211 42.6183 1.75967C44.9905 1.91805 46.6466 3.12655 48.3544 4.4108C48.6333 4.62083 48.7538 5.55389 48.5437 5.78801C48.2304 6.13576 47.2698 6.45252 47.0804 6.27003C44.8907 4.13536 41.9917 4.58984 39.3887 3.92878C37.5777 3.47086 35.9526 3.24362 34.2173 3.9942C33.7387 4.20078 33.15 4.31095 32.6335 4.26275C30.5298 4.05617 28.7291 4.64148 27.1178 6.01525C26.4464 6.58679 25.472 6.75206 25.0933 5.77424C24.9246 5.33698 25.3929 4.39359 25.8473 4.01485C27.4346 2.70306 29.1251 1.48768 31.1668 1.84231L31.1703 1.83886Z" fill="black"/>
<path d="M20.6726 77.1069C19.495 78.5736 19.5673 80.4328 20.614 82.3712C20.7414 82.6054 20.163 83.535 19.7705 83.6452C19.3986 83.7519 18.648 83.3215 18.407 82.9221C17.8389 81.9787 16.9059 80.7599 17.1331 79.9301C17.7356 77.7404 17.7666 75.7848 17.1572 73.5674C16.8887 72.5965 18.0731 71.178 18.7272 70.0418C18.865 69.8042 19.7257 69.6975 20.0012 69.8903C20.3558 70.1382 20.7586 70.9301 20.614 71.178C19.5432 73.0097 19.6396 74.7587 20.6691 76.5353C20.6932 76.5766 20.6691 76.6421 20.6691 77.1103L20.6726 77.1069Z" fill="black"/>
<path d="M56.9447 73.8566C54.9856 75.7538 56.232 77.7025 56.4902 79.7511C56.6348 80.9011 55.5159 82.2404 54.8548 83.4351C54.7343 83.6555 53.9458 83.7829 53.7289 83.6142C53.364 83.3318 52.8888 82.5606 53.0197 82.3678C54.3177 80.4294 53.0817 78.546 53.1436 76.6902C53.2056 74.7794 54.18 72.9374 53.0128 71.0058C52.8923 70.8061 53.2951 70.0487 53.6256 69.88C53.9596 69.7078 54.755 69.787 54.9099 70.0314C55.6364 71.1849 56.2114 72.4312 56.9447 73.8498V73.8566Z" fill="black"/>
<path d="M20.9343 9.01074C19.5536 10.9939 18.7101 12.5364 17.5326 13.7518C16.9094 14.3956 16.3206 14.8053 16.3516 15.8004C16.4102 17.8593 14.6714 18.8165 13.5043 20.0973C13.3252 20.2935 12.4541 20.2006 12.2441 19.9527C11.9583 19.6152 11.7518 18.7407 11.9515 18.5479C13.487 17.0571 13.9346 15.1083 14.4614 13.1733C14.5234 12.9392 14.7575 12.6741 14.9813 12.5743C16.4652 11.9098 17.2296 10.7495 17.7082 9.2242C17.8528 8.75939 18.7067 8.35312 19.2954 8.24983C19.712 8.17752 20.225 8.65955 20.9377 9.01418L20.9343 9.01074Z" fill="black"/>
<path d="M60.8837 18.1484C60.8079 19.1572 61.3347 20.593 59.7406 20.5448C58.1878 20.5 58.6251 19.0608 58.4529 18.0452C58.3427 17.3979 57.9296 16.7712 57.5543 16.2031C57.2961 15.8106 56.6625 15.5937 56.542 15.1943C55.9671 13.2559 55.1132 11.6205 53.1059 10.7873C52.889 10.6977 52.7409 9.79911 52.9269 9.534C53.1748 9.18625 53.8186 8.86605 54.2318 8.92803C56.3664 9.24823 57.754 10.7115 58.2429 12.7773C58.3772 13.3454 58.7559 13.9927 59.2207 14.3198C60.6186 15.3011 61.2108 16.5406 60.8871 18.1484H60.8837Z" fill="black"/>
<path d="M7.25198 66.9224C7.23821 64.4606 7.56874 62.6737 9.89967 62.0367C10.2784 61.9334 10.5607 61.2689 10.7742 60.8075C11.4766 59.3064 13.8247 58.1426 15.3534 58.6901C15.7218 58.8209 16.2486 59.4717 16.1694 59.6955C15.9835 60.2222 15.5084 60.9866 15.0918 61.0245C13.6801 61.1518 12.7987 61.7062 12.4544 63.104C12.3959 63.3382 12.1652 63.6239 11.9483 63.71C10.4402 64.3022 9.52784 65.2594 9.44176 66.9878C9.42799 67.2735 8.5259 67.7693 8.09208 67.7142C7.67547 67.6592 7.33805 67.0153 7.24854 66.9224H7.25198Z" fill="black"/>
<path d="M66.3961 66.9223C66.2963 67.0256 65.9141 67.7245 65.5491 67.7142C65.0499 67.7004 64.1547 67.1702 64.1375 66.8293C64.0618 65.2042 63.2699 64.2953 61.8031 63.8167C61.6654 63.7719 61.507 63.6273 61.4554 63.493C60.8838 62.0022 59.9714 61.0209 58.2327 60.9211C57.9469 60.9039 57.3892 59.8882 57.5235 59.5886C57.7163 59.1583 58.4393 58.6935 58.9179 58.7107C60.7978 58.783 62.6122 59.1066 63.1046 61.4238C63.1597 61.6786 63.4868 61.9988 63.745 62.0642C66.0931 62.6495 66.3858 64.4812 66.3927 66.9223H66.3961Z" fill="black"/>
<path d="M3.71246 80.7667C4.91063 79.4756 4.07397 78.2327 4.09463 77.0035C4.11184 76.0636 4.90719 75.0892 5.50283 74.2353C5.65088 74.0218 6.64246 74.0356 6.77674 74.2456C7.07972 74.7173 7.37582 75.5264 7.16235 75.9327C6.73886 76.7522 6.6528 77.3857 7.2209 78.1087C7.31042 78.2223 7.36206 78.4289 7.32763 78.5701C7.0212 79.9197 6.79052 81.1971 7.26566 82.6328C7.55487 83.5005 6.11569 84.1856 5.47528 83.4798C4.77979 82.7189 4.32531 81.7411 3.70557 80.7667H3.71246Z" fill="black"/>
<path d="M67.0262 80.7083C66.2687 79.6616 65.9726 78.6149 66.7404 77.4133C66.9091 77.1482 66.5028 76.5698 66.5338 76.1497C66.5786 75.4749 66.7679 74.8104 66.8988 74.1425C67.4979 74.411 68.2381 74.5418 68.6685 74.9791C69.6394 75.9638 70.0698 77.1379 69.1781 78.4738C69.0507 78.6666 69.0679 79.097 69.1987 79.3036C70.0078 80.574 69.5637 81.6 68.7752 82.7018C68.2588 83.4214 67.7527 84.2236 66.9332 83.5144C66.5235 83.1597 66.6509 82.1406 66.6199 81.4176C66.6096 81.1972 66.8747 80.9631 67.0262 80.7117V80.7083Z" fill="black"/>
<path d="M10.9288 28.1883C10.9288 27.4342 10.7705 26.632 10.9805 25.9434C11.1458 25.3994 11.7621 24.9966 12.1787 24.5283C12.5781 24.9553 13.2839 25.3581 13.3217 25.816C13.4595 27.4721 13.4595 29.1557 13.3149 30.8118C13.277 31.2491 12.5436 31.6278 12.127 32.0376C11.7276 31.6175 11.0976 31.2491 10.9839 30.7602C10.7946 29.9442 10.9323 29.049 10.9323 28.1883C10.9323 28.1883 10.9289 28.1883 10.9254 28.1883H10.9288Z" fill="black"/>
<path d="M62.7015 28.4121C62.7015 29.2177 62.8495 30.0682 62.6464 30.8187C62.5156 31.2973 61.9062 31.8551 61.4276 31.9515C61.1246 32.01 60.3534 31.3077 60.3293 30.9083C60.2122 29.142 60.2156 27.3551 60.3499 25.5922C60.3775 25.2101 61.128 24.5903 61.5205 24.6075C61.9234 24.6247 62.55 25.2376 62.6395 25.6783C62.8151 26.5563 62.6912 27.4962 62.6912 28.4121C62.6912 28.4121 62.6981 28.4121 62.7015 28.4121Z" fill="black"/>
<path d="M36.793 51.1017C34.9337 49.48 33.0814 49.6247 31.1567 50.6989C30.9295 50.8263 30.1996 50.3477 29.9172 49.9827C29.7451 49.7589 29.8622 48.9705 30.0722 48.8603C31.3186 48.1992 32.8094 46.9598 33.8871 47.2318C35.9529 47.7482 37.7088 47.7517 39.7746 47.2318C40.8488 46.9632 42.3362 48.213 43.5792 48.881C43.7823 48.9911 43.8821 49.7865 43.7065 50.0034C43.4173 50.3615 42.6771 50.8263 42.4533 50.6954C40.5286 49.5592 38.6763 49.573 36.793 51.0983V51.1017Z" fill="black"/>
<path d="M33.1398 42.4596C33.188 44.2431 31.7247 45.7959 29.9309 45.8682C28.0923 45.9405 26.4776 44.3912 26.4741 42.5457C26.4741 40.7519 27.9581 39.2473 29.7622 39.2197C31.5526 39.1922 33.0882 40.6658 33.1398 42.4596Z" fill="black"/>
<path d="M43.7994 45.8717C42.0056 45.851 40.5044 44.343 40.501 42.5492C40.4941 40.7588 41.9953 39.237 43.7891 39.2129C45.6449 39.1853 47.2149 40.7691 47.1667 42.6146C47.1219 44.3981 45.5795 45.8889 43.8029 45.8682L43.7994 45.8717Z" fill="black"/>
</svg>
