<svg width="99" height="92" viewBox="0 0 99 92" fill="none" xmlns="http://www.w3.org/2000/svg">
<path d="M97.9694 37.6413C98.5356 42.4632 96.7342 46.632 93.6107 50.3055C89.0012 55.7289 86.5501 62.082 86.9457 69.0751C87.7756 83.7787 73.5545 92.4607 61.791 91.6436C54.6242 91.145 48.8019 87.7546 44.4818 82.0707C40.8695 77.3196 35.861 75.4925 30.3251 74.3988C24.7633 73.3019 19.0441 73.3276 13.5435 71.7289C7.08751 69.8536 3.70671 65.3694 2.73204 58.2122C1.21697 47.0856 7.85951 40.3916 16.8631 36.9851C18.3492 36.4222 19.9254 36.0812 21.4855 35.7467C26.7095 34.6272 30.5888 31.6389 33.4839 27.2513C34.6709 25.4499 35.8642 23.6518 36.9997 21.8183C40.3033 16.4914 44.7971 12.834 51.015 11.38C65.8988 7.90274 79.2513 10.9039 90.8026 20.9562C95.7338 25.2473 98.4905 30.7415 97.9694 37.6381V37.6413Z" fill="#5EA205"/>
<path d="M25.1175 49.5144C24.7315 56.0346 21.2252 60.5895 15.6217 61.7829C10.253 62.9281 4.94544 60.493 2.36242 55.7033C-0.210955 50.9265 0.712236 45.0914 4.64628 41.3021C8.90843 37.1943 14.4186 36.8726 20.5047 40.4336C20.91 40.0476 21.3378 39.6455 21.83 39.1758C20.3374 36.8984 19.7649 34.4054 19.8421 31.7323C19.9193 29.0496 20.6784 26.6049 22.2578 24.4111C21.6112 23.4589 20.9936 22.555 20.5176 21.8538C18.3752 22.6644 16.3519 23.7645 14.2031 24.1344C12.4018 24.4465 10.446 23.9672 8.57388 23.7227C7.79865 23.6198 7.0749 23.1244 7.41909 22.1594C7.7472 21.2362 8.47738 21.352 9.29764 21.5836C16.4227 23.5908 22.8014 18.4215 22.1034 11.2386C21.7142 7.21771 18.7741 3.83372 14.7757 2.80115C10.9189 1.80719 6.72427 3.36086 4.39859 6.64835C2.0536 9.96157 2.02142 14.4618 4.30851 17.8393C4.83927 18.621 5.98441 19.512 4.66234 20.3419C3.45286 21.1043 2.91568 19.8015 2.38492 19.0134C-1.35934 13.4807 0.136449 5.99535 5.69815 2.26718C11.2438 -1.44814 18.7098 0.0476394 22.4411 5.62865C22.7435 6.07899 23.0298 6.5422 23.329 7.0054C32.0559 0.173091 43.9964 6.49073 43.3916 17.4565C44.5496 17.6881 45.7624 17.7975 46.8689 18.2028C47.4286 18.4087 48.2167 19.1903 48.1684 19.631C48.0494 20.7054 47.0844 20.5639 46.261 20.358C42.3076 19.3705 38.4862 19.5345 34.9285 21.7348C32.8698 23.0086 32.6896 26.4601 34.5071 28.0942C37.2284 30.5421 40.4483 31.5618 44.0479 31.5618C46.4507 31.5618 48.8311 31.8031 50.7129 33.4404C51.932 34.5019 52.9163 35.8369 54.0518 37.0978C55.2131 35.2353 55.1391 32.9965 54.8206 30.7866C54.4121 27.943 53.2509 25.3986 51.2404 23.2949C50.6775 22.7062 50.1821 22.0661 50.893 21.3552C51.6843 20.5639 52.347 21.1622 52.9324 21.7734C55.2324 24.173 56.4772 27.0938 57.1109 30.391C62.93 27.4444 68.2601 27.9012 72.7538 32.752C76.6042 36.9112 76.6332 41.6656 73.2235 48.2566C74.0116 49.2023 74.8029 50.1062 75.5491 51.052C76.0413 51.6792 76.4048 52.4158 75.5813 53.027C74.6485 53.7186 74.1531 52.9884 73.6545 52.3033C70.2641 47.6551 64.5319 46.5357 59.9803 49.6141C56.5609 51.9269 54.9043 56.2856 56.0719 60.1971C56.2553 60.8083 56.8343 61.4806 57.4069 61.7636C59.546 62.8091 61.238 64.2759 62.5729 66.251C62.9557 66.8171 63.7696 67.3253 64.4451 67.4154C69.7334 68.1102 74.6806 64.0893 75.2018 58.7656C75.25 58.2671 75.1342 57.7009 75.3369 57.2795C75.5588 56.8131 76.0574 56.4786 76.437 56.0861C76.8101 56.485 77.4985 56.8839 77.4985 57.2859C77.5049 58.5244 77.402 59.8079 77.0707 60.998C75.5846 66.3603 70.708 69.8891 65.127 69.7507C64.7893 69.7411 64.4483 69.7507 63.9143 69.7507C64.1974 71.4073 64.4676 72.9707 64.7345 74.534C64.8182 75.0294 65.0337 75.5569 64.934 76.0137C64.8214 76.5187 64.4129 76.9594 64.1362 77.4291C63.6795 77.0688 62.9268 76.7825 62.8174 76.3386C62.3124 74.2445 62.039 72.0925 61.579 69.9856C60.971 67.2031 59.3208 65.1541 56.7249 64.0282C55.0362 63.298 53.2187 62.867 51.2822 62.2429C50.9831 64.3081 50.8608 66.2574 50.388 68.1167C49.69 70.8798 48.8054 73.6012 47.8468 76.2871C47.6699 76.7793 46.6437 77.4098 46.2191 77.2811C45.1834 76.9691 45.5082 76.0716 45.8621 75.2835C47.5412 71.536 48.4 67.5859 48.77 63.3784C48.2521 63.2079 47.7567 63.0439 47.2099 62.8637C45.7688 67.2449 42.536 68.6024 38.3768 68.4576C34.6229 68.3257 32.3486 66.6852 30.8464 62.9892C30.5762 63.0278 30.2835 63.0471 30.0037 63.1147C29.772 63.1726 29.5565 63.2884 29.2477 63.4106C29.3925 64.411 29.4922 65.3535 29.6755 66.2831C29.8428 67.1323 29.7334 67.9558 28.7877 67.9815C28.3567 67.9912 27.6522 67.2449 27.5107 66.7206C27.1343 65.3278 26.9993 63.8706 26.7258 62.1979C24.6704 62.9184 22.6084 63.4299 20.7427 64.3434C18.2627 65.5594 16.8151 67.7178 16.3198 70.4649C15.9917 72.2919 15.76 74.1448 15.3097 75.9429C15.165 76.5187 14.4508 77.3647 13.9973 77.3647C12.9261 77.3647 12.9229 76.4094 13.0805 75.5537C13.4376 73.6301 13.7721 71.7001 14.1549 69.7797C14.9012 66.0547 17.0853 63.4074 20.5111 61.8987C22.29 61.1171 24.2136 60.6313 26.1082 60.1521C26.6679 60.0105 27.4206 60.2035 27.9546 60.4866C29.682 61.3969 30.8658 60.8018 31.2357 58.8718C31.5123 57.4275 31.2614 56.4367 30.0937 55.3334C28.257 53.5964 26.7709 51.4894 25.1207 49.5208L25.1175 49.5144ZM33.0306 29.8441C32.0591 32.3146 30.3993 33.9422 28.3856 35.3994C27.4045 36.1103 26.5425 37.5096 26.3591 38.7094C25.3169 45.5192 27.7101 51.0005 33.2268 55.1275C37.3024 58.177 40.9051 58.1834 44.8906 55.031C49.616 51.2932 52.3309 46.6515 51.8259 40.3467C51.5396 36.7697 49.69 34.3797 46.1226 33.9808C44.4306 33.791 42.7129 33.7942 41.0209 33.5948C38.0036 33.2345 35.427 31.8288 33.0306 29.8409V29.8441ZM13.2317 40.0089C8.06563 40.1183 3.72629 43.9977 3.26952 49.0704C2.80953 54.2043 6.36724 58.8975 11.292 59.6535C16.5642 60.4641 21.4633 57.2538 22.5312 52.1617C22.9397 50.2188 23.2614 48.2212 21.2349 46.719C20.6205 46.2623 20.0994 45.2876 20.0608 44.522C19.9675 42.6627 18.7484 41.865 17.3588 41.2763C16.0399 40.7198 14.6117 40.4207 13.2317 40.0089ZM57.7221 48.4142C61.9296 45.2426 66.3783 44.8372 71.049 46.9345C74.3815 43.3672 74.2367 37.5642 70.7723 33.9261C67.3787 30.3652 61.4245 29.8216 57.9022 32.7745C57.6224 33.0094 57.3876 33.3825 57.2975 33.7331C56.8504 35.4573 56.4547 37.1975 56.0044 39.0922C57.1624 39.8867 58.3108 41.1445 58.1403 42.859C57.9891 44.3773 57.3039 45.8409 56.7828 47.5682C56.9051 47.6776 57.3072 48.0347 57.7253 48.411L57.7221 48.4142ZM23.9112 22.7802C26.2658 21.1686 28.6462 20.6539 31.2517 21.1525C31.5734 21.2137 32.0302 21.0335 32.3004 20.8148C34.5071 19.0295 37.0097 17.9487 39.8307 17.6688C40.7861 17.5755 41.0949 17.1574 41.0563 16.2277C40.889 12.1425 39.0458 9.07376 35.3466 7.36246C31.6474 5.65117 28.0865 6.19479 24.9245 8.78103C24.532 9.09949 24.2747 9.89402 24.3455 10.4183C24.7154 13.2137 24.3326 15.8803 22.8272 18.2382C22.0648 19.4316 22.1581 20.313 22.8915 21.3295C23.2099 21.7701 23.5156 22.2173 23.9112 22.7802ZM23.5316 37.7862C24.8376 36.1907 25.7447 34.4505 27.1697 33.4661C30.3865 31.2466 31.7761 28.4963 31.1102 24.6169C30.9333 23.594 30.5441 23.2048 29.6048 23.2048C27.2308 23.2112 25.288 24.1473 23.9112 26.0709C22.2546 28.3934 21.7592 31.0536 22.2449 33.82C22.4926 35.2386 23.1327 36.5896 23.5316 37.7862ZM44.3631 58.1127C40.7282 60.2325 37.1801 60.1263 33.6514 58.1673C32.9116 62.9313 33.1818 64.0829 35.2694 65.3245C37.5372 66.6756 41.2879 66.4954 43.2694 64.9482C45.7077 63.0439 44.569 60.6056 44.3631 58.1127ZM55.9851 50.103C53.9843 47.8481 53.6723 47.9253 51.9931 50.4054C50.9027 52.017 49.7543 53.68 48.2939 54.9249C46.782 56.2148 46.38 57.5336 46.8013 59.3447C47.0169 60.2679 48.6413 61.4516 49.3458 60.8887C50.7386 59.7725 52.1025 60.0234 53.5693 60.5895C53.4632 54.4617 53.505 54.2912 55.9883 50.103H55.9851ZM23.8565 40.8903C22.6374 41.2249 22.1002 41.9711 22.1066 42.9876C22.1131 44.3483 22.676 45.4484 24.2071 46.1497C24.0849 44.3065 23.9755 42.6595 23.8565 40.8903ZM53.7977 46.2301C55.3289 45.3391 56.0301 44.2325 55.8339 42.682C55.7149 41.7267 55.2131 41.0415 54.1033 40.9868C54.0036 42.6853 53.9103 44.3258 53.7977 46.2301Z" fill="black"/>
<path d="M65.5063 0.23097C72.1585 0.237403 77.5658 5.66401 77.5594 12.3194C77.5529 18.9651 72.1231 24.3789 65.471 24.3725C58.8252 24.366 53.4147 18.9362 53.4211 12.2808C53.4276 5.63184 58.8542 0.22132 65.5096 0.23097H65.5063ZM75.2691 12.2776C75.253 6.87028 70.9072 2.53092 65.5031 2.51806C60.1087 2.50841 55.7404 6.84455 55.7082 12.2454C55.6728 17.6945 60.1023 22.1207 65.5514 22.0789C70.9587 22.0371 75.2916 17.6688 75.2723 12.2744L75.2691 12.2776Z" fill="black"/>
<path d="M11.3114 12.5027C11.0991 11.1871 11.3596 10.2156 12.9551 9.87144C13.3636 9.78459 13.8108 8.81636 13.814 8.247C13.8172 7.87064 13.0484 7.16297 12.656 7.18548C12.0866 7.21765 11.5333 7.75162 11.0058 8.12155C10.8868 8.20518 10.9865 8.57832 10.8675 8.68126C10.4622 9.02866 10.0022 9.31495 9.56472 9.62375C9.272 9.1702 8.7573 8.72951 8.73156 8.25987C8.64793 6.70941 9.96358 5.2458 11.6073 4.85336C13.235 4.46414 14.9881 5.29083 15.7826 6.81878C16.5836 8.35959 16.3359 10.2928 14.9527 11.319C13.9909 12.0299 13.3862 12.6732 13.5052 13.9567C13.5374 14.2912 12.8329 14.9088 12.389 14.9989C12.1059 15.0568 11.5301 14.4456 11.3468 14.021C11.1634 13.5996 11.3082 13.0367 11.3082 12.4995L11.3114 12.5027Z" fill="black"/>
<path d="M32.6189 76.3901C32.3519 76.6957 32.0978 77.249 31.7279 77.3423C31.3611 77.4323 30.6149 77.1718 30.4926 76.8726C29.8622 75.3543 29.3218 73.7878 28.8875 72.1987C28.8007 71.8835 29.222 71.2048 29.563 71.0632C29.8879 70.9281 30.6921 71.1597 30.8079 71.4331C31.4705 72.9933 31.9916 74.6145 32.6221 76.3901H32.6189Z" fill="black"/>
<path d="M12.4147 20.3612C11.9129 19.512 11.3918 19.023 11.4529 18.6209C11.5172 18.1963 12.1348 17.8554 12.5112 17.479C12.8714 17.8779 13.4794 18.2575 13.518 18.6853C13.5534 19.0874 12.9873 19.5441 12.4147 20.3644V20.3612Z" fill="black"/>
<path d="M60.8356 59.2577C60.337 58.4631 59.8288 58.0031 59.8449 57.5657C59.8577 57.2118 60.5976 56.5492 60.8517 56.6167C61.2892 56.7358 61.8135 57.2794 61.8939 57.7201C61.955 58.0514 61.3856 58.5017 60.8356 59.2577Z" fill="black"/>
<path d="M67.0182 57.5658C66.2526 58.1255 65.8312 58.6724 65.4066 58.6724C65.0367 58.6724 64.67 58.0548 64.3 57.7106C64.6668 57.3213 64.9756 56.7295 65.4162 56.6104C65.7347 56.5236 66.2237 57.064 67.0182 57.5658Z" fill="black"/>
<path d="M69.817 59.2547C69.3538 58.4376 68.8648 57.9583 68.897 57.5209C68.926 57.1702 69.6883 56.5398 69.9457 56.6202C70.3735 56.7521 70.8753 57.3214 70.9364 57.7621C70.9847 58.0966 70.396 58.5213 69.817 59.2547Z" fill="black"/>
<path d="M32.8728 43.8015C32.371 43.4767 31.8756 43.3126 31.6537 42.9684C31.3964 42.5728 31.1262 41.7847 31.3127 41.5852C31.628 41.2475 32.4 40.974 32.7956 41.1349C33.8507 41.5627 34.864 42.161 35.7872 42.8333C36.6074 43.4284 36.5463 44.2294 35.71 44.8084C34.9315 45.3456 34.0727 45.7702 33.2524 46.2527C32.5511 46.6676 31.8274 46.9443 31.2999 46.0758C30.7595 45.1879 31.3867 44.7022 32.0783 44.2937C32.2938 44.1682 32.5029 44.0299 32.8696 43.8015H32.8728Z" fill="black"/>
<path d="M45.6368 43.8303C45.9166 44.464 46.7723 45.532 46.5214 46.0048C45.7558 47.4427 44.7007 46.2943 43.9094 45.7861C43.0473 45.2296 42.3397 44.4318 41.5645 43.7402C42.3268 43.0905 43.028 42.3442 43.8708 41.8166C44.675 41.3148 45.7011 40.1568 46.5021 41.5464C46.7659 42.0032 45.9424 43.0905 45.64 43.8303H45.6368Z" fill="black"/>
<path d="M38.9301 51.5151C39.1778 51.5151 39.4287 51.5248 39.6764 51.5151C40.5192 51.4765 41.3233 51.7371 41.1914 52.6603C41.1303 53.0945 40.3133 53.5545 39.7536 53.7475C39.2196 53.9309 38.5248 53.9245 37.9908 53.7411C37.4729 53.5642 37.0676 53.0527 36.6108 52.6892C37.0837 52.3 37.5308 51.8625 38.0487 51.5409C38.2642 51.4058 38.6309 51.5183 38.9301 51.5183V51.5151Z" fill="black"/>
<path d="M38.9105 49.2441C38.3283 49.0414 37.7107 48.9867 37.3472 48.6522C37.0191 48.353 36.8197 47.7354 36.8583 47.2819C36.8808 47.0245 37.6721 46.5452 37.8168 46.6353C38.8398 47.2851 40.313 45.7893 41.0271 47.2883C41.1815 47.6068 40.8695 48.3691 40.5382 48.6457C40.12 48.9964 39.4606 49.0575 38.9073 49.2441H38.9105Z" fill="black"/>
<path d="M14.2063 47.6872C14.2063 48.8934 14.3157 50.1158 14.1581 51.2995C14.0841 51.8464 13.4858 52.3192 13.1255 52.8275C12.7299 52.3546 12.0125 51.8946 11.99 51.4025C11.8742 48.8934 11.8839 46.3747 11.99 43.8689C12.0093 43.3928 12.6623 42.9457 13.0258 42.4857C13.4214 42.9618 14.0841 43.4025 14.1549 43.9236C14.3221 45.1588 14.2096 46.4294 14.2096 47.6872H14.2063Z" fill="black"/>
<path d="M13.0547 58.0741C12.5336 57.2346 11.9996 56.7585 12.0511 56.3564C12.1057 55.9286 12.7137 55.5747 13.0836 55.1887C13.4535 55.5779 14.0711 55.9414 14.1162 56.3693C14.1612 56.7713 13.6047 57.241 13.0547 58.0773V58.0741Z" fill="black"/>
<path d="M62.5825 40.7939C62.3927 39.5683 62.6211 38.5743 64.2295 38.2366C64.6412 38.1497 65.0915 37.1879 65.1044 36.6186C65.1108 36.2422 64.3485 35.5281 63.9561 35.5474C63.3867 35.5763 62.827 36.1039 62.2994 36.4706C62.1804 36.5542 62.2769 36.9242 62.1579 37.0303C61.7558 37.3809 61.3023 37.6704 60.868 37.9857C60.5721 37.5353 60.051 37.1011 60.022 36.6346C59.9287 35.0874 61.2411 33.6141 62.8849 33.2185C64.5093 32.826 66.2689 33.6463 67.0666 35.171C67.874 36.7118 67.6296 38.6354 66.256 39.6777C65.32 40.3886 64.6509 41.003 64.7988 42.3089C64.8374 42.6403 64.0912 43.0584 63.7084 43.438C63.3352 43.0456 62.8463 42.711 62.6211 42.2478C62.4442 41.8843 62.5857 41.3632 62.5857 40.7971L62.5825 40.7939Z" fill="black"/>
<path d="M30.187 13.8505C30.187 12.6442 30.0776 11.4219 30.2352 10.2381C30.3092 9.68806 30.9076 9.20877 31.2678 8.69409C31.6635 9.17338 32.3776 9.63659 32.4001 10.132C32.5159 12.641 32.5095 15.1597 32.4034 17.6687C32.3841 18.1384 31.7278 18.5791 31.3643 19.0358C30.9719 18.563 30.3092 18.1287 30.2385 17.6141C30.0712 16.3788 30.1838 15.1082 30.1838 13.8505H30.187Z" fill="black"/>
<path d="M71.718 12.2003C70.9556 12.7407 70.4956 13.3069 70.1675 13.2393C69.7268 13.1493 69.1896 12.6185 69.077 12.1778C69.0127 11.9237 69.6882 11.1903 70.0421 11.1838C70.4827 11.1742 70.9363 11.6921 71.718 12.2003Z" fill="black"/>
<path d="M67.2725 12.4223C66.3236 12.8534 65.8057 13.2941 65.3779 13.2233C65.0273 13.1622 64.519 12.4577 64.5641 12.0975C64.6091 11.7308 65.2685 11.155 65.616 11.1839C66.0599 11.2225 66.4555 11.7758 67.2725 12.4256V12.4223Z" fill="black"/>
<path d="M61.0707 10.5953C61.5757 11.3834 62.0904 11.8369 62.0775 12.2744C62.0679 12.6282 61.3376 13.3005 61.0803 13.233C60.6428 13.1204 60.1121 12.58 60.0253 12.1393C59.9609 11.808 60.5303 11.3512 61.0707 10.592V10.5953Z" fill="black"/>
</svg>
