<svg width="99" height="81" viewBox="0 0 99 81" fill="none" xmlns="http://www.w3.org/2000/svg">
<path d="M52.3624 0.469327C63.6944 0.591784 72.0592 4.74904 78.5776 12.6648C81.2874 15.9554 84.242 18.9697 87.5923 21.6198C102.808 33.6614 101.653 54.2876 85.2437 64.6901C81.1178 67.3057 77.2714 70.3074 73.648 73.5949C65.3146 81.1621 57.3738 82.1701 47.3951 77.0174C42.2456 74.3579 36.7005 73.0706 31.0173 72.1066C21.8047 70.5429 14.5892 66.1031 11.8324 56.6645C9.23565 47.7691 10.1368 39.1908 15.9645 31.6016C19.2708 27.2968 22.1156 22.7251 24.7217 17.965C30.9042 6.68323 40.4873 0.858677 52.3624 0.466187V0.469327Z" fill="#5EA205"/>
<path d="M38.4464 56.5013C39.0461 57.7604 39.5045 58.9002 40.1074 59.9584C41.9348 63.1705 42.5283 66.728 43.1343 70.2887C43.2253 70.8319 43.3007 71.3814 43.3541 71.9277C43.5488 73.8808 42.4121 75.2969 40.434 75.3157C35.4132 75.3691 30.3894 75.3879 25.3718 75.3032C22.9917 75.2623 21.8048 73.3219 22.6589 71.0925C23.9682 67.6669 25.9401 64.6494 28.6373 62.1689C29.5321 61.3462 29.7331 60.5549 29.6263 59.4183C29.2119 55.0664 28.6561 54.6048 24.3576 55.2799C23.02 55.4902 21.6824 55.7666 20.3385 55.8137C17.2676 55.9173 15.5344 54.5546 14.853 51.5685C14.4763 49.9075 14.3161 48.1962 13.8828 46.5509C13.6379 45.6121 13.1983 44.6355 12.5829 43.8945C10.5514 41.436 10.4854 40.9869 12.4636 38.4468C10.4572 36.095 9.2106 33.3946 9.38958 30.2296C9.68159 25.1178 11.9518 21.2494 16.737 19.0546C17.1829 18.8505 17.6633 18.6087 17.9773 18.2508C21.0104 14.8094 24.8788 13.0134 29.35 12.3666C29.6389 12.3258 29.9152 12.2159 30.2104 12.1342C30.2983 10.9536 30.022 10.3005 28.7252 9.97081C26.0939 9.29887 24.1032 5.6126 24.7815 2.99077C25.1614 1.52443 26.0657 0.478832 27.5697 0.124021C29.2433 -0.268469 30.6751 0.281017 31.7144 1.6249C33.2404 3.59991 33.4131 5.92032 32.3487 8.01464C31.6014 9.48099 31.8714 10.6459 32.2168 11.9081C34.7193 12.3383 37.1684 12.7591 39.7683 13.2049C39.9065 12.9946 40.1577 12.6335 40.3963 12.263C44.2238 6.30967 52.1333 4.77738 57.8008 8.89068C63.5249 13.0448 64.558 21.1709 59.9391 26.5716C57.9265 28.9234 56.8965 31.5044 56.6265 34.5972C56.4821 36.2488 56.727 37.6649 57.1698 39.2066C58.7209 44.6104 55.537 49.9546 50.0044 51.6438C49.0154 51.9453 48.0169 52.5607 47.279 53.2892C44.8958 55.641 41.9537 56.3631 38.4527 56.495L38.4464 56.5013ZM34.2829 38.475C34.9799 42.1927 34.2797 43.6747 31.1806 45.32C30.8823 45.4802 30.5809 45.8413 30.493 46.1647C29.8085 48.6829 30.8007 51.4209 32.9107 52.9846C36.0789 55.3301 42.3242 55.2893 45.1909 52.6109C46.7829 51.1258 48.4816 50.1932 50.4943 49.4428C54.9404 47.7849 56.9531 42.7327 54.9655 38.6948C54.5511 38.9774 54.1554 39.2757 53.7347 39.5269C49.9385 41.7876 44.9209 39.2726 44.6603 34.8704C44.4687 31.6237 43.3698 28.87 41.2347 26.4177C39.1341 24.0031 38.2988 21.0924 38.5437 17.8991C38.6159 16.9728 38.7698 16.0528 38.8828 15.1642C32.1697 12.4922 24.2131 14.2694 19.3934 19.4031C18.9287 19.8992 18.3289 20.3388 17.7072 20.6057C13.9362 22.2071 11.9078 25.1586 11.2861 29.071C10.8057 32.0727 11.6126 34.7762 13.9487 36.9741C14.1466 36.3461 14.1466 35.737 14.1466 35.1279C14.1403 32.8389 14.1371 30.5467 14.1214 28.2577C14.1214 27.8746 14.0743 27.4947 14.0304 27.1116C13.9833 26.7034 13.7509 26.0284 13.8922 25.9436C14.3067 25.6893 14.8844 25.5134 15.3617 25.5794C17.6476 25.8965 19.4059 27.1336 20.4829 29.1306C21.2616 30.5718 21.8143 32.1449 22.3543 33.6992C23.155 36.0039 24.7061 37.3541 27.0924 37.8031C29.5824 38.2709 31.8431 37.6178 34.0599 36.5251C34.4524 36.3305 35.0804 36.6225 35.6016 36.6884C35.3975 37.1374 35.2311 37.6084 34.9768 38.026C34.8606 38.2144 34.5717 38.2992 34.2829 38.4813V38.475ZM51.5744 34.0477C52.5321 33.897 53.339 33.8562 54.0832 33.6144C54.4474 33.4951 54.9027 33.0367 54.9561 32.6756C55.3768 29.8465 56.6956 27.5292 58.567 25.3878C61.6221 21.8931 61.82 16.7939 59.2389 12.96C56.6988 9.18583 51.9481 7.51226 47.5867 8.85614C40.4528 11.0541 37.9377 19.8741 42.8643 25.5542C44.5127 27.4539 45.8535 29.498 46.1361 32.0131C46.2805 33.3004 46.9053 33.7212 48.0137 33.8279C48.5475 33.8813 49.0781 33.9347 49.7532 34.0006C49.7532 32.6567 49.6622 31.4542 49.7972 30.2735C49.8537 29.768 50.3781 29.3159 50.689 28.8386C50.9841 29.3347 51.4771 29.8088 51.5336 30.3332C51.6623 31.5107 51.5744 32.7133 51.5744 34.0446V34.0477ZM32.3832 39.2663C32.019 39.3385 31.6391 39.4076 31.2591 39.4861C26.6434 40.428 21.6886 39.0936 20.2631 33.134C19.968 31.8969 19.3431 30.6849 18.6335 29.6204C18.0903 28.8072 17.1734 28.2452 16.1624 27.3377C15.9551 28.5026 15.8327 29.1997 15.7008 29.9533C16.5706 30.038 17.2928 30.0129 17.9459 30.2139C18.3195 30.3301 18.5833 30.8167 18.8941 31.1339C18.5393 31.4133 18.2159 31.8592 17.8203 31.9408C17.164 32.0759 16.4607 31.9785 15.5658 31.9785C15.7731 33.4543 15.9646 34.8044 16.1687 36.2708C16.7433 36.0918 17.1169 35.8814 17.4905 35.8877C17.9678 35.894 18.442 36.0698 18.9192 36.1703C18.6618 36.6287 18.5079 37.2567 18.1154 37.5079C17.5973 37.8407 16.8814 37.8564 16.2692 38.0574C15.8264 38.205 15.3303 38.3463 15.0069 38.6477C14.2753 39.3259 13.1669 40.0575 13.0947 40.8488C13.0193 41.6432 14.0932 42.5004 14.5202 43.3953C15.1011 44.6167 15.7636 45.3609 17.2582 44.736C17.5125 44.6293 18.0181 45.1254 18.4106 45.342C18.1499 45.7157 17.9678 46.2118 17.613 46.4284C17.1671 46.6985 16.5831 46.7424 15.9457 46.912C16.1059 48.0361 16.222 49.1225 16.4199 50.1932C17.0541 53.5969 18.3226 54.4572 21.7891 53.9014C23.2241 53.6722 24.6559 53.4022 26.1002 53.2483C28.9952 52.9344 30.4145 53.9737 31.0519 56.8184C31.2591 57.7353 31.3753 58.6741 31.5197 59.5156C33.388 58.9975 35.2311 58.4857 37.0774 57.9739C36.8722 56.9378 36.2621 56.2846 35.2468 56.0146C30.5338 54.7555 28.1066 51.2482 28.5619 46.3845C28.5902 46.0673 28.5148 45.722 28.4049 45.4174C28.2448 44.9621 28.0125 44.5319 27.8115 44.0892C28.3076 43.9699 28.8037 43.7375 29.2967 43.7501C31.8369 43.8192 33.3346 41.7405 32.3863 39.2631L32.3832 39.2663ZM32.8793 73.5165C35.2845 73.5165 37.6928 73.5071 40.098 73.5197C40.9866 73.5228 41.7307 73.1711 41.5235 72.2386C40.7165 68.6402 39.8437 65.0576 38.8734 61.5001C38.5406 60.2786 37.4165 59.7511 36.2296 60.1059C34.6722 60.5738 32.9986 61.0291 31.7081 61.9522C28.3358 64.3637 25.9809 67.6606 24.4455 71.5164C23.896 72.898 24.2885 73.482 25.8113 73.504C28.1663 73.5385 30.5244 73.5134 32.8793 73.5134V73.5165ZM31.3847 5.7225C30.9859 4.56387 30.9106 3.53084 30.3548 2.95623C29.7896 2.3722 28.6279 1.83528 27.9591 2.03937C27.306 2.23719 26.6403 3.36128 26.543 4.14626C26.4456 4.93124 26.8601 5.95799 27.3939 6.58912C28.0156 7.32386 29.0078 7.74461 29.843 8.30352C30.3705 7.4212 30.8949 6.53888 31.3847 5.7225ZM54.5354 35.7276C51.9072 35.7276 49.3513 35.7276 46.7986 35.7276C47.4266 37.4891 48.805 38.5221 50.5853 38.5598C52.3876 38.5975 53.832 37.5644 54.5385 35.7276H54.5354Z" fill="black"/>
<path d="M9.36123 45.8633C9.38949 47.0564 6.06117 50.3753 4.87742 50.3345C3.83811 50.2968 0.619691 47.0941 0.563173 46.036C0.490955 44.736 3.80671 41.414 5.08152 41.5082C6.13968 41.5867 9.33926 44.8396 9.36438 45.8664L9.36123 45.8633ZM4.53518 43.9353C4.82719 43.9667 5.11918 44.0013 5.41119 44.0327C4.55713 44.802 3.70621 45.5712 2.85215 46.3374C2.91495 46.0297 2.97777 45.722 3.03743 45.4143C3.83183 46.2526 4.62308 47.091 5.41748 47.9293C5.00929 47.8257 4.60423 47.7189 4.19604 47.6153C5.17256 46.9151 6.1522 46.2149 7.12872 45.5179C6.95916 45.8758 6.79275 46.2306 6.6232 46.5886C5.92613 45.7063 5.2291 44.8208 4.53204 43.9385L4.53518 43.9353Z" fill="black"/>
<path d="M66.9037 32.1197C66.8942 33.2846 64.4482 35.6804 63.2802 35.6678C62.1027 35.6553 59.7007 33.2313 59.7164 32.0726C59.7321 30.914 62.1812 28.49 63.3242 28.5057C64.4828 28.5214 66.9131 30.9737 66.9037 32.1197ZM63.3179 33.181C63.6067 32.9204 64.1719 32.4118 64.4294 32.1794C64.128 31.7335 63.6978 31.093 63.2645 30.4524C63.3524 30.5937 63.4372 30.735 63.5251 30.8795C62.985 31.3756 62.4481 31.8717 61.908 32.3678C61.9583 32.1543 62.0117 31.9408 62.0619 31.7241C62.5392 32.2767 63.0196 32.8294 63.321 33.1779L63.3179 33.181Z" fill="black"/>
<path d="M33.1711 8.98793C33.2057 6.65497 35.0174 4.5889 37.0301 4.59204C38.8042 4.59204 40.0601 5.88255 40.013 7.64719C39.9597 9.57824 37.7429 11.4779 35.5198 11.4999C34.0786 11.5156 33.1523 10.5234 33.1743 8.99107L33.1711 8.98793ZM34.8102 9.35844C35.0017 9.528 35.1901 9.69756 35.3817 9.86711C36.1478 9.46834 37.0772 9.21715 37.6173 8.61742C37.969 8.22807 37.7554 7.32692 37.7931 6.65811C37.162 6.74289 36.2765 6.60473 35.9562 6.96583C35.3911 7.60323 35.1713 8.5452 34.807 9.35844H34.8102Z" fill="black"/>
<path d="M50.6667 22.1035C51.5082 21.4723 52.3528 20.7219 53.3168 20.1818C53.6213 20.0091 54.243 20.3985 54.7172 20.5304C54.4942 20.9542 54.3309 21.4252 54.0326 21.7863C53.4832 22.4488 52.8866 23.0768 52.2523 23.6577C51.7719 24.0942 51.2036 24.7284 50.6698 24.7347C50.136 24.7378 49.5583 24.1161 49.0716 23.686C48.3965 23.0831 47.756 22.4331 47.1656 21.7455C46.8862 21.419 46.7638 20.9542 46.5691 20.5555C46.9961 20.3953 47.5707 19.9777 47.8219 20.1222C48.8581 20.7156 49.7938 21.4818 50.6635 22.1097L50.6667 22.1035Z" fill="black"/>
<path d="M50.6668 25.2653C51.1064 25.8713 51.6245 26.292 51.5554 26.5589C51.4518 26.9514 50.9274 27.234 50.5852 27.5637C50.2932 27.2308 49.7908 26.9137 49.7688 26.5652C49.7468 26.2324 50.2272 25.8681 50.6699 25.2653H50.6668Z" fill="black"/>
</svg>
