<svg width="70" height="22" viewBox="0 0 70 22" fill="none" xmlns="http://www.w3.org/2000/svg">
<g clip-path="url(#clip0_4037_2899)">
<path d="M17.0059 19.6026C16.9464 20.0659 16.7932 20.4579 16.5507 20.7835C16.3083 21.109 16.0292 21.3347 15.7159 21.4606C15.4025 21.5866 15.0686 21.6032 14.714 21.5082C14.3595 21.4131 14.0324 21.166 13.7282 20.7668C13.4652 20.4318 13.3188 20.0588 13.2891 19.6477C13.2593 19.239 13.2021 18.8351 13.1221 18.4359C12.9208 17.2811 12.6257 16.0931 12.2415 14.8766C10.9881 14.8979 9.74377 14.9074 8.51093 14.9074C7.27808 14.9074 6.04295 14.9193 4.8101 14.9383C4.62941 15.4848 4.47158 16.0408 4.34121 16.6087C4.20855 17.1766 4.08275 17.7326 3.96152 18.2791C3.86088 18.6996 3.76939 19.1345 3.68933 19.5859C3.60928 20.0374 3.4263 20.4318 3.14267 20.7668C2.79958 21.1874 2.42904 21.4226 2.03563 21.4749C1.64222 21.5272 1.28769 21.4583 0.97433 21.2705C0.660972 21.0805 0.407083 20.793 0.217239 20.4033C0.0251073 20.016 -0.0412239 19.5693 0.0205327 19.0632C0.0822894 18.4121 0.203515 17.7706 0.384211 17.1409C0.564906 16.5113 0.736452 15.8816 0.898849 15.2496C1.80919 11.638 2.98028 8.1404 4.41669 4.75689C4.53792 4.46225 4.66372 4.1795 4.79638 3.90625C4.92675 3.63301 5.05484 3.35976 5.17607 3.08651C5.31788 2.79188 5.45969 2.47824 5.6015 2.14084C5.74331 1.80581 5.91028 1.49455 6.10242 1.21179C6.29455 0.929043 6.52099 0.686684 6.78403 0.487094C7.04706 0.287505 7.36957 0.18771 7.75384 0.18771C8.25933 0.18771 8.68247 0.356411 9.02785 0.691436C10.4025 2.11945 11.5347 3.7328 12.4245 5.52673C13.3142 7.32304 14.1125 9.15499 14.8193 11.025C15.2447 11.0036 15.6587 11.0036 16.0635 11.025C16.4684 11.0463 16.8321 11.234 17.1546 11.5928C17.4382 11.8875 17.6052 12.2011 17.6555 12.5385C17.7058 12.8759 17.6761 13.1991 17.564 13.5151C17.4519 13.8311 17.2712 14.1043 17.0173 14.3348C16.7634 14.5653 16.4569 14.7245 16.0933 14.8076C16.2945 15.5442 16.473 16.2927 16.6239 17.0602C16.7749 17.8276 16.9007 18.5998 17.0036 19.3768V19.5978L17.0059 19.6026ZM10.8188 11.0321C10.4345 10.0864 10.0251 9.14786 9.59052 8.21169C9.15594 7.27789 8.66646 6.38924 8.1198 5.55049C7.71495 6.47478 7.33526 7.39432 6.98302 8.30673C6.62849 9.21914 6.30141 10.1506 5.9972 11.0939C6.94642 11.0725 7.78128 11.063 8.49949 11.063C9.2177 11.063 9.9908 11.0535 10.8188 11.0321Z" fill="#1A1A1A"/>
<path d="M23.7076 18.5642C23.9295 18.7733 24.1171 19.0418 24.268 19.3673C24.419 19.6928 24.5013 20.0184 24.5105 20.3439C24.5196 20.6694 24.451 20.9735 24.2978 21.2587C24.1445 21.5438 23.8769 21.7576 23.4949 21.905C23.1907 22.0095 22.8591 22.0309 22.4931 21.9691C22.1294 21.905 21.7703 21.779 21.4158 21.5913C21.0613 21.4036 20.7479 21.1755 20.4757 20.9141C20.2035 20.6504 20.0045 20.3629 19.8833 20.0469C19.8421 19.9423 19.8124 19.8211 19.7918 19.6857C19.7712 19.5503 19.7621 19.4291 19.7621 19.3222V1.83432C19.7621 1.35198 19.9382 0.940922 20.2927 0.605897C20.6473 0.270872 21.0361 0.0712821 21.4615 0.00712831C21.6628 -0.0142563 21.8801 0.0190086 22.1134 0.102171C22.3467 0.185333 22.564 0.306513 22.7653 0.465709C22.9666 0.62253 23.1335 0.807863 23.2662 1.01696C23.3966 1.22605 23.4629 1.44702 23.4629 1.6775V3.8516C23.4629 4.75451 23.4675 5.74295 23.4789 6.81218C23.4881 7.88379 23.4949 8.99104 23.4949 10.1363C23.4949 11.2816 23.4904 12.3793 23.4789 13.4295C23.4675 14.4797 23.4629 15.4397 23.4629 16.3117C23.4629 17.1837 23.4515 17.8823 23.4332 18.4074L23.7054 18.5642H23.7076Z" fill="#1A1A1A"/>
<path d="M39.6614 18.0581C39.8421 18.3314 39.9496 18.6521 39.9794 19.018C40.0091 19.3863 39.9702 19.7332 39.8581 20.0588C39.7461 20.3843 39.5654 20.6528 39.3115 20.8619C39.0576 21.071 38.7305 21.166 38.3257 21.1446C37.7996 21.1018 37.3742 20.9141 37.0517 20.5767C36.7269 20.2417 36.4249 19.8639 36.1413 19.4434C35.3522 20.1158 34.5379 20.5815 33.7008 20.8452C32.8613 21.1066 32.0379 21.166 31.2282 21.0187C30.4185 20.8714 29.6614 20.5197 28.9547 19.9637C28.2456 19.4077 27.6509 18.6569 27.166 17.7112C26.72 16.8297 26.473 15.8531 26.4226 14.7815C26.3723 13.7099 26.3563 12.6929 26.3769 11.7259C26.3769 11.3909 26.386 11.0582 26.4066 10.7327C26.4272 10.4072 26.4478 10.065 26.4684 9.70861C26.489 9.43536 26.4981 9.16687 26.4981 8.9055C26.4981 8.64413 26.5141 8.39702 26.5439 8.16417C26.5736 7.93369 26.6354 7.70321 26.7269 7.47035C26.8183 7.23988 26.9533 7.0189 27.1363 6.80981C27.3787 6.53656 27.6715 6.37499 28.0169 6.32271C28.36 6.27044 28.6893 6.30608 29.0027 6.43201C29.3161 6.55794 29.5882 6.75278 29.8215 7.01415C30.0526 7.27789 30.1806 7.59629 30.2012 7.97408C30.2424 9.04569 30.2172 10.1268 30.1258 11.2198C30.0343 12.3128 30.0388 13.3844 30.1418 14.4346C30.1829 14.9383 30.3087 15.4539 30.5215 15.979C30.7342 16.5042 31.0727 16.882 31.537 17.1124C32.0013 17.3215 32.4725 17.3073 32.9483 17.0649C33.424 16.8249 33.8129 16.535 34.1148 16.1976C34.2566 16.0289 34.3915 15.846 34.5242 15.6464C34.6546 15.4468 34.801 15.2734 34.9634 15.126C34.8833 14.3918 34.8307 13.6553 34.8124 12.9211C34.7918 12.1868 34.7918 11.4503 34.8124 10.7161C34.8124 10.3169 34.8284 9.88206 34.8581 9.40922C34.8879 8.93639 34.9679 8.48493 35.1006 8.05487C35.231 7.6248 35.43 7.247 35.693 6.92148C35.956 6.59596 36.3289 6.39162 36.8161 6.30846C37.0379 6.26569 37.2552 6.28707 37.4679 6.37023C37.6807 6.4534 37.8659 6.56982 38.0283 6.71714C38.3119 6.969 38.5041 7.25176 38.6047 7.56777C38.7054 7.88379 38.7557 8.21881 38.7557 8.57522C38.7557 8.93163 38.7305 9.29517 38.6802 9.66109C38.6299 10.0294 38.5933 10.3692 38.575 10.6852C38.5338 11.2744 38.5041 11.8922 38.4835 12.5433C38.4629 13.1943 38.4835 13.8453 38.5452 14.4964C38.607 15.1474 38.7214 15.7771 38.8929 16.3877C39.0645 16.996 39.3229 17.5544 39.666 18.0581H39.6614Z" fill="#1A1A1A"/>
<path d="M54.188 19.6976C54.1262 20.2227 53.9409 20.6528 53.6276 20.9902C53.3142 21.3252 52.9597 21.5367 52.5663 21.6198C52.1729 21.703 51.7932 21.6507 51.4295 21.463C51.0658 21.2753 50.8028 20.907 50.6404 20.3605C50.4574 19.7736 50.3865 19.1582 50.4277 18.5167C50.4688 17.8752 50.4894 17.2835 50.4894 16.737C50.4894 15.6036 50.494 14.475 50.5054 13.3511C50.5146 12.2272 50.4688 11.0986 50.3682 9.96522C50.3476 9.92245 50.327 9.88681 50.3064 9.85593C50.2859 9.82504 50.247 9.77752 50.1852 9.71336C49.7209 9.58743 49.2246 9.61832 48.6985 9.8084C48.1724 9.99849 47.7287 10.2385 47.365 10.5331C47.0402 10.8064 46.7223 11.1794 46.4089 11.6522C46.0956 12.1251 45.9377 12.5813 45.9377 13.0232V17.3714C45.9377 17.7088 45.9469 18.0747 45.9675 18.4739C45.9881 18.8731 45.972 19.2628 45.9217 19.6406C45.8714 20.0184 45.7547 20.3653 45.5741 20.6813C45.3911 20.9973 45.0983 21.2278 44.6934 21.3751C44.4716 21.4583 44.2634 21.4891 44.0713 21.4701C43.8792 21.4488 43.671 21.3965 43.4492 21.3133C43.0855 21.1874 42.8225 20.9712 42.6601 20.667C42.4977 20.3629 42.3879 20.0374 42.3261 19.6905C42.2666 19.3436 42.2392 19.0085 42.2506 18.683C42.2598 18.3575 42.2666 18.1009 42.2666 17.9108C42.2666 17.4284 42.2621 16.7299 42.2506 15.8151C42.2392 14.9003 42.2346 13.9404 42.2346 12.9329V7.95507C42.2346 7.49411 42.365 7.10919 42.628 6.80506C42.8911 6.50092 43.1999 6.30133 43.5521 6.20629C43.9066 6.11124 44.2795 6.13263 44.6752 6.27044C45.0686 6.40825 45.3979 6.68625 45.661 7.10444C46.4684 6.55794 47.3604 6.19203 48.3302 6.00194C49.3 5.81186 50.215 5.84512 51.075 6.09699C51.935 6.34885 52.6509 6.82169 53.2273 7.5155C53.8037 8.20931 54.101 9.16449 54.1216 10.3834C54.1216 10.4262 54.1308 10.5521 54.1514 10.7612C54.1719 10.9703 54.1811 11.2649 54.1811 11.6427V19.7095L54.188 19.6976Z" fill="#1A1A1A"/>
<path d="M69.8971 19.1297C70.0595 19.738 70.0274 20.2441 69.8056 20.6409C69.5837 21.0401 69.2749 21.3086 68.8815 21.444C68.4881 21.5794 68.0581 21.5652 67.5938 21.3965C67.1272 21.2278 66.7246 20.8928 66.3815 20.389C65.8143 20.831 65.263 21.1399 64.7278 21.3181C64.1926 21.4963 63.5796 21.5961 62.8934 21.6175C61.8618 21.6602 60.9423 21.539 60.1326 21.2563C59.3229 20.9735 58.6413 20.5482 58.0855 19.9803C57.5297 19.4125 57.1203 18.7044 56.8573 17.8538C56.5942 17.0031 56.5027 16.0218 56.5851 14.9074C56.6262 14.4465 56.7017 13.995 56.8115 13.5531C56.9236 13.1111 57.0494 12.6811 57.1912 12.2605C57.3536 11.7995 57.58 11.3053 57.8728 10.7802C58.1656 10.2551 58.4629 9.80365 58.7671 9.42586C59.8582 8.04061 61.2237 7.04266 62.8614 6.43201C63.145 6.32747 63.5293 6.23242 64.0142 6.14926C64.4991 6.0661 64.9885 6.02808 65.4849 6.03996C65.9812 6.04947 66.4547 6.11837 66.9099 6.2443C67.365 6.37024 67.7036 6.59121 67.9254 6.90485C68.1084 7.15671 68.2388 7.37769 68.3188 7.56777C68.3989 7.75786 68.4446 7.95745 68.4561 8.16654C68.4652 8.37564 68.4652 8.60136 68.4561 8.84372C68.4469 9.08608 68.4401 9.38546 68.4401 9.74187C68.4401 10.3311 68.4355 10.9014 68.424 11.4598C68.4126 12.0158 68.4195 12.5789 68.4401 13.1444V13.8857C68.4401 14.1899 68.4492 14.5106 68.4698 14.8457C68.4904 15.1831 68.5155 15.5015 68.5453 15.8056C68.575 16.1097 68.6208 16.3568 68.6825 16.5469L69.8948 19.1297H69.8971ZM63.4675 17.7112C63.6894 17.5639 63.9433 17.4023 64.2246 17.2217C64.5082 17.0435 64.7598 16.8392 64.984 16.6063C64.801 15.4943 64.6958 14.38 64.666 13.268C64.6363 12.156 64.6409 11.0321 64.6821 9.89632C63.7717 10.065 62.9529 10.4737 62.2255 11.1247C61.4981 11.7758 60.9927 12.5433 60.709 13.4248C60.5878 13.7812 60.4872 14.1495 60.4048 14.5273C60.3248 14.9051 60.2928 15.2734 60.3133 15.6298C60.3339 16.1145 60.4552 16.5184 60.677 16.8439C60.8989 17.1695 61.1665 17.4166 61.4799 17.5853C61.7932 17.754 62.1272 17.849 62.4817 17.868C62.8362 17.8894 63.1633 17.8371 63.4675 17.7112Z" fill="#1A1A1A"/>
</g>
<defs>
<clipPath id="clip0_4037_2899">
<rect width="70" height="22" fill="white"/>
</clipPath>
</defs>
</svg>
