<svg width="336" height="324" viewBox="0 0 336 324" fill="none" xmlns="http://www.w3.org/2000/svg">
<rect width="336" height="324" rx="26" fill="#F9FFEF"/>
<g clip-path="url(#clip0_4059_2408)">
<path d="M66.1094 65.2799C72.9603 58.8391 79.955 52.5258 87.7801 47.2807C98.3359 40.2181 109.499 34.3193 121.604 30.1742C131.808 26.6828 142.204 24.4189 152.888 23.2232C159.611 22.4739 165.472 24.2436 165.2 33.3309C164.913 42.8486 165.632 52.3983 165.759 61.9479C165.855 69.3294 163.635 71.8164 156.481 73.3947C147.698 75.3238 138.93 77.1572 130.626 80.9516C116.94 87.217 105.698 96.3203 96.4356 108.086C84.4903 123.263 78.9809 140.752 77.3679 159.676C76.793 166.372 73.9345 169.641 66.9718 170.214C56.9269 171.043 46.8501 171.586 36.7893 171.984C30.3217 172.239 27 168.78 27 162.355C27 145.408 29.9863 129.051 36.3102 113.267C38.1627 108.644 39.7118 103.893 42.1232 99.4929C47.9041 86.5474 56.5277 75.5789 66.0934 65.264L66.1094 65.2799Z" fill="#88BA4F"/>
<path d="M180.978 23C199.199 24.6262 216.91 29.8075 233.534 38.5441C246.405 45.3038 257.983 53.849 268.156 64.2596C273.346 69.5685 272.979 74.718 267.214 79.5008C259.676 85.7822 252.202 92.1433 244.649 98.4087C240.113 102.171 234.508 102.06 230.26 98.0421C216.063 84.6024 199.295 76.5354 179.94 73.7455C173.041 72.757 169.736 68.7395 169.863 61.8204C170.039 52.1432 170.247 42.466 170.614 32.7888C170.87 26.0291 174.271 22.7928 180.978 23Z" fill="#4D7C1F"/>
<path d="M278.201 162.658C274.624 162.658 271.031 162.594 267.453 162.674C262.998 162.785 258.239 158.688 257.664 153.857C256.067 140.226 251.372 127.632 244.904 115.643C241.95 110.174 243.18 105.854 247.971 101.82C255.764 95.2521 264.547 89.991 272.101 83.1198C275.55 79.9631 281.906 80.8081 284.812 84.9851C293.787 97.8827 299.999 112.072 303.96 127.281C306.084 135.444 307.521 143.654 307.984 152.104C308.431 160.442 304.088 163.12 296.869 163.072C290.673 163.024 284.445 162.243 278.217 162.674L278.201 162.658Z" fill="#C2EF8E"/>
<path d="M132.004 120.525H132.648V124.758H132.283C130.436 124.758 128.839 125.044 127.492 125.617C126.16 126.19 125.064 126.978 124.205 127.98C123.346 128.983 122.701 130.158 122.271 131.504C121.856 132.836 121.648 134.254 121.648 135.758V140.678C121.648 141.924 121.785 143.027 122.057 143.986C122.329 144.932 122.708 145.727 123.195 146.371C123.697 147.001 124.27 147.481 124.914 147.811C125.559 148.14 126.253 148.305 126.998 148.305C127.771 148.305 128.473 148.147 129.104 147.832C129.734 147.503 130.271 147.051 130.715 146.479C131.159 145.906 131.495 145.225 131.725 144.438C131.954 143.65 132.068 142.79 132.068 141.859C132.068 140.971 131.954 140.141 131.725 139.367C131.51 138.579 131.188 137.892 130.758 137.305C130.328 136.703 129.791 136.238 129.146 135.908C128.516 135.564 127.786 135.393 126.955 135.393C125.924 135.393 124.986 135.636 124.141 136.123C123.31 136.61 122.637 137.247 122.121 138.035C121.62 138.809 121.348 139.632 121.305 140.506L119.328 139.861C119.443 138.529 119.736 137.333 120.209 136.273C120.696 135.214 121.333 134.311 122.121 133.566C122.909 132.822 123.818 132.256 124.85 131.869C125.895 131.468 127.041 131.268 128.287 131.268C129.805 131.268 131.123 131.554 132.24 132.127C133.357 132.7 134.281 133.48 135.012 134.469C135.757 135.443 136.308 136.56 136.666 137.82C137.038 139.066 137.225 140.37 137.225 141.73C137.225 143.234 136.995 144.638 136.537 145.941C136.079 147.23 135.406 148.362 134.518 149.336C133.644 150.31 132.577 151.069 131.316 151.613C130.07 152.158 128.652 152.43 127.062 152.43C125.387 152.43 123.89 152.107 122.572 151.463C121.269 150.818 120.159 149.93 119.242 148.799C118.34 147.667 117.652 146.364 117.18 144.889C116.707 143.413 116.471 141.852 116.471 140.205V138.057C116.471 135.679 116.771 133.438 117.373 131.332C117.975 129.212 118.898 127.343 120.145 125.725C121.405 124.106 123.016 122.839 124.979 121.922C126.941 120.991 129.283 120.525 132.004 120.525ZM165.025 140.334H156.883V136.059H165.025C166.443 136.059 167.589 135.829 168.463 135.371C169.337 134.913 169.974 134.283 170.375 133.48C170.79 132.664 170.998 131.733 170.998 130.688C170.998 129.699 170.79 128.775 170.375 127.916C169.974 127.042 169.337 126.34 168.463 125.811C167.589 125.281 166.443 125.016 165.025 125.016H158.537V152H153.145V120.719H165.025C167.446 120.719 169.501 121.148 171.191 122.008C172.896 122.853 174.192 124.027 175.08 125.531C175.968 127.021 176.412 128.725 176.412 130.645C176.412 132.664 175.968 134.397 175.08 135.844C174.192 137.29 172.896 138.4 171.191 139.174C169.501 139.947 167.446 140.334 165.025 140.334ZM183.438 120.719H188.25L197.295 144.846L206.318 120.719H211.131L199.186 152H195.361L183.438 120.719ZM181.246 120.719H185.822L186.617 141.602V152H181.246V120.719ZM208.746 120.719H213.344V152H207.951V141.602L208.746 120.719Z" fill="#1A1A1A"/>
</g>
<rect x="112" y="198" width="28" height="28" rx="5" fill="#88BA4F"/>
<rect x="112" y="268" width="28" height="28" rx="5" fill="#C2EF8E"/>
<path d="M185.383 207.098H185.699V208.97H185.55C184.841 208.97 184.217 209.078 183.678 209.295C183.145 209.512 182.699 209.816 182.342 210.209C181.99 210.596 181.724 211.056 181.542 211.589C181.36 212.116 181.27 212.693 181.27 213.32V215.395C181.27 215.881 181.319 216.309 181.419 216.678C181.524 217.041 181.668 217.349 181.85 217.601C182.037 217.847 182.254 218.031 182.5 218.154C182.752 218.277 183.027 218.339 183.326 218.339C183.625 218.339 183.895 218.277 184.135 218.154C184.375 218.031 184.58 217.858 184.75 217.636C184.926 217.407 185.058 217.141 185.146 216.836C185.239 216.531 185.286 216.197 185.286 215.834C185.286 215.477 185.242 215.146 185.154 214.841C185.066 214.536 184.938 214.27 184.768 214.041C184.598 213.807 184.387 213.628 184.135 213.505C183.889 213.376 183.607 213.312 183.291 213.312C182.881 213.312 182.515 213.408 182.192 213.602C181.87 213.789 181.615 214.035 181.428 214.34C181.24 214.645 181.138 214.967 181.12 215.307L180.338 214.92C180.367 214.422 180.473 213.965 180.654 213.549C180.842 213.133 181.091 212.77 181.401 212.459C181.718 212.148 182.09 211.908 182.518 211.738C182.951 211.568 183.432 211.483 183.959 211.483C184.568 211.483 185.102 211.601 185.559 211.835C186.016 212.063 186.394 212.377 186.692 212.775C186.997 213.174 187.226 213.634 187.378 214.155C187.53 214.671 187.606 215.216 187.606 215.79C187.606 216.405 187.507 216.979 187.308 217.513C187.114 218.046 186.833 218.512 186.464 218.91C186.095 219.309 185.649 219.619 185.128 219.842C184.606 220.064 184.021 220.176 183.37 220.176C182.685 220.176 182.069 220.047 181.524 219.789C180.985 219.531 180.522 219.174 180.136 218.717C179.749 218.26 179.453 217.727 179.248 217.117C179.043 216.508 178.94 215.849 178.94 215.14V214.208C178.94 213.206 179.078 212.274 179.354 211.413C179.629 210.552 180.036 209.799 180.575 209.154C181.12 208.504 181.794 208 182.597 207.643C183.399 207.279 184.328 207.098 185.383 207.098ZM198.909 215.333H195.613V213.435H198.909C199.448 213.435 199.885 213.347 200.219 213.171C200.559 212.989 200.808 212.743 200.966 212.433C201.124 212.116 201.203 211.756 201.203 211.352C201.203 210.959 201.124 210.593 200.966 210.253C200.808 209.913 200.559 209.638 200.219 209.427C199.885 209.216 199.448 209.11 198.909 209.11H196.404V220H193.987V207.203H198.909C199.905 207.203 200.755 207.382 201.458 207.739C202.167 208.091 202.706 208.58 203.075 209.207C203.45 209.828 203.638 210.537 203.638 211.334C203.638 212.16 203.45 212.872 203.075 213.47C202.706 214.067 202.167 214.527 201.458 214.85C200.755 215.172 199.905 215.333 198.909 215.333ZM206.591 207.203H208.683L212.181 216.836L215.67 207.203H217.771L213.016 220H211.337L206.591 207.203ZM205.536 207.203H207.584L207.953 216.054V220H205.536V207.203ZM216.769 207.203H218.825V220H216.408V216.054L216.769 207.203Z" fill="black"/>
<path d="M187.413 286.502C187.413 287.299 187.226 287.973 186.851 288.523C186.481 289.068 185.975 289.481 185.33 289.763C184.691 290.038 183.965 290.176 183.15 290.176C182.342 290.176 181.612 290.038 180.962 289.763C180.317 289.481 179.805 289.068 179.424 288.523C179.049 287.973 178.861 287.299 178.861 286.502C178.861 285.969 178.967 285.485 179.178 285.052C179.395 284.618 179.693 284.246 180.074 283.936C180.455 283.619 180.906 283.379 181.428 283.215C181.949 283.045 182.518 282.96 183.133 282.96C183.953 282.96 184.686 283.109 185.33 283.408C185.98 283.701 186.49 284.114 186.859 284.647C187.229 285.175 187.413 285.793 187.413 286.502ZM185.075 286.361C185.075 285.951 184.993 285.597 184.829 285.298C184.671 284.993 184.445 284.759 184.152 284.595C183.859 284.431 183.52 284.349 183.133 284.349C182.74 284.349 182.397 284.431 182.104 284.595C181.817 284.759 181.592 284.993 181.428 285.298C181.27 285.597 181.19 285.951 181.19 286.361C181.19 286.777 181.27 287.135 181.428 287.434C181.592 287.727 181.82 287.952 182.113 288.11C182.406 288.269 182.752 288.348 183.15 288.348C183.549 288.348 183.892 288.269 184.179 288.11C184.466 287.952 184.686 287.727 184.838 287.434C184.996 287.135 185.075 286.777 185.075 286.361ZM187.132 280.578C187.132 281.223 186.962 281.797 186.622 282.301C186.282 282.799 185.811 283.188 185.207 283.47C184.609 283.751 183.924 283.892 183.15 283.892C182.377 283.892 181.686 283.751 181.076 283.47C180.473 283.188 179.998 282.799 179.652 282.301C179.312 281.797 179.143 281.223 179.143 280.578C179.143 279.816 179.315 279.172 179.661 278.645C180.007 278.111 180.479 277.707 181.076 277.432C181.68 277.156 182.365 277.019 183.133 277.019C183.912 277.019 184.604 277.156 185.207 277.432C185.811 277.707 186.282 278.111 186.622 278.645C186.962 279.172 187.132 279.816 187.132 280.578ZM184.812 280.675C184.812 280.312 184.744 279.995 184.609 279.726C184.475 279.45 184.281 279.236 184.029 279.084C183.783 278.932 183.484 278.855 183.133 278.855C182.793 278.855 182.5 278.929 182.254 279.075C182.008 279.222 181.817 279.433 181.683 279.708C181.548 279.978 181.48 280.3 181.48 280.675C181.48 281.044 181.548 281.366 181.683 281.642C181.817 281.917 182.008 282.134 182.254 282.292C182.506 282.444 182.805 282.521 183.15 282.521C183.496 282.521 183.792 282.444 184.038 282.292C184.284 282.134 184.475 281.917 184.609 281.642C184.744 281.366 184.812 281.044 184.812 280.675ZM199.076 279.146L195.429 290H192.871L197.652 277.203H199.287L199.076 279.146ZM202.126 290L198.461 279.146L198.241 277.203H199.885L204.692 290H202.126ZM201.959 285.245V287.152H195.095V285.245H201.959ZM207.065 277.203H209.157L212.655 286.836L216.145 277.203H218.245L213.49 290H211.812L207.065 277.203ZM206.011 277.203H208.059L208.428 286.054V290H206.011V277.203ZM217.243 277.203H219.3V290H216.883V286.054L217.243 277.203Z" fill="black"/>
<rect x="112" y="233" width="28" height="28" rx="5" fill="#4D7C1F"/>
<path d="M174.899 242.168V255H172.57V244.884L169.485 245.903V244.022L174.636 242.168H174.899ZM187.872 253.172V255H179.206V253.436L183.363 248.944C183.797 248.452 184.14 248.024 184.392 247.661C184.644 247.298 184.822 246.97 184.928 246.677C185.039 246.378 185.095 246.094 185.095 245.824C185.095 245.432 185.024 245.089 184.884 244.796C184.743 244.497 184.538 244.266 184.269 244.102C184.005 243.938 183.68 243.855 183.293 243.855C182.865 243.855 182.499 243.955 182.194 244.154C181.896 244.348 181.667 244.617 181.509 244.963C181.356 245.309 181.28 245.704 181.28 246.149H178.951C178.951 245.394 179.127 244.705 179.479 244.084C179.83 243.457 180.334 242.956 180.99 242.581C181.646 242.206 182.426 242.019 183.328 242.019C184.207 242.019 184.951 242.165 185.561 242.458C186.17 242.745 186.633 243.155 186.949 243.688C187.266 244.222 187.424 244.857 187.424 245.596C187.424 246.006 187.356 246.41 187.222 246.809C187.087 247.207 186.896 247.603 186.65 247.995C186.41 248.382 186.123 248.774 185.789 249.173C185.455 249.571 185.083 249.979 184.673 250.395L182.177 253.172H187.872ZM199.192 250.333H195.896V248.435H199.192C199.731 248.435 200.168 248.347 200.502 248.171C200.842 247.989 201.091 247.743 201.249 247.433C201.407 247.116 201.486 246.756 201.486 246.352C201.486 245.959 201.407 245.593 201.249 245.253C201.091 244.913 200.842 244.638 200.502 244.427C200.168 244.216 199.731 244.11 199.192 244.11H196.688V255H194.271V242.203H199.192C200.188 242.203 201.038 242.382 201.741 242.739C202.45 243.091 202.989 243.58 203.358 244.207C203.733 244.828 203.921 245.537 203.921 246.334C203.921 247.16 203.733 247.872 203.358 248.47C202.989 249.067 202.45 249.527 201.741 249.85C201.038 250.172 200.188 250.333 199.192 250.333ZM206.874 242.203H208.966L212.464 251.836L215.953 242.203H218.054L213.299 255H211.62L206.874 242.203ZM205.819 242.203H207.867L208.236 251.054V255H205.819V242.203ZM217.052 242.203H219.108V255H216.691V251.054L217.052 242.203Z" fill="black"/>
<defs>
<clipPath id="clip0_4059_2408">
<rect width="281" height="149" fill="white" transform="translate(27 23)"/>
</clipPath>
</defs>
</svg>
