<svg width="336" height="324" viewBox="0 0 336 324" fill="none" xmlns="http://www.w3.org/2000/svg">
<rect width="336" height="324" rx="26" fill="#F9FFEF"/>
<g clip-path="url(#clip0_4075_1570)">
<path d="M284 165.554C283.716 186.032 278.842 205.256 268.607 223.099C262.881 233.086 256.027 242.172 247.64 250.015C236.043 260.866 222.819 269.151 207.836 274.655C194.43 279.585 180.607 282.246 166.374 281.975C141.182 281.496 118.228 274.005 97.9292 258.854C78.0905 244.044 64.4507 224.789 56.6501 201.347C57.0916 200.244 58.1068 199.903 59.1032 199.582C72.4214 195.313 85.6766 190.843 99.0453 186.713C99.5435 186.555 100.061 186.486 100.59 186.537C102.186 187.022 102.287 188.542 102.778 189.758C111.039 210.199 125.297 224.612 146.454 231.125C172.516 239.158 195.804 233.42 215.643 214.707C227.883 203.163 234.485 188.756 236.163 171.991C236.402 169.608 235.52 166.6 238.25 164.822C239.473 164.45 240.735 164.482 241.983 164.482C254.406 164.469 266.822 164.463 279.245 164.488C280.885 164.488 282.625 164.242 283.994 165.547L284 165.554Z" fill="#88BA4F"/>
<path d="M100.653 186.927C86.471 191.543 72.2826 196.158 58.1004 200.779C57.6085 200.943 57.1293 201.158 56.6437 201.353C53.7493 192.457 52.0971 183.353 51.3656 174.009C49.5621 151.084 54.342 129.596 65.3523 109.559C79.175 84.4087 99.701 66.7863 126.527 56.5092C139.687 51.4715 153.333 49.1828 167.377 49C168.298 49.8638 168.436 51.0113 168.443 52.1714C168.493 65.746 168.525 79.3269 168.43 92.9015C168.43 93.5257 168.329 94.1499 168.14 94.7488C167.44 96.5205 165.826 96.2809 164.4 96.4007C152.413 97.4284 140.98 100.335 130.815 107.012C112.49 119.061 101.675 135.832 98.8812 157.754C97.7903 166.354 98.7677 174.689 100.678 183.018C100.975 184.305 101.681 185.635 100.653 186.927Z" fill="#C2EF8E"/>
<path d="M167.434 95.5117C167.415 80.0078 167.396 64.5039 167.377 49C182.581 49.0946 197.261 51.8625 211.361 57.6252C226.805 63.9365 240.432 73.0093 251.821 85.1401C267.964 102.34 278.369 122.535 282.234 145.951C283.307 152.452 284 158.965 283.994 165.554C268.481 165.541 252.968 165.528 237.456 165.516C236.068 163.492 236.308 161.083 236.087 158.858C232.959 127.131 208.82 101.779 177.215 97.1699C173.942 96.6908 170.524 97.0438 167.428 95.5117H167.434Z" fill="#4D7C1F"/>
<path d="M140.539 162.227V169H139.086V160.547H140.461L140.539 162.227ZM140.242 164.453L139.57 164.43C139.576 163.852 139.651 163.318 139.797 162.828C139.943 162.333 140.159 161.904 140.445 161.539C140.732 161.174 141.089 160.893 141.516 160.695C141.943 160.492 142.438 160.391 143 160.391C143.396 160.391 143.76 160.448 144.094 160.562C144.427 160.672 144.716 160.846 144.961 161.086C145.206 161.326 145.396 161.633 145.531 162.008C145.667 162.383 145.734 162.836 145.734 163.367V169H144.289V163.438C144.289 162.995 144.214 162.641 144.062 162.375C143.917 162.109 143.708 161.917 143.438 161.797C143.167 161.672 142.849 161.609 142.484 161.609C142.057 161.609 141.701 161.685 141.414 161.836C141.128 161.987 140.898 162.195 140.727 162.461C140.555 162.727 140.43 163.031 140.352 163.375C140.279 163.714 140.242 164.073 140.242 164.453ZM145.719 163.656L144.75 163.953C144.755 163.49 144.831 163.044 144.977 162.617C145.128 162.19 145.344 161.81 145.625 161.477C145.911 161.143 146.263 160.88 146.68 160.688C147.096 160.49 147.573 160.391 148.109 160.391C148.562 160.391 148.964 160.451 149.312 160.57C149.667 160.69 149.964 160.875 150.203 161.125C150.448 161.37 150.633 161.685 150.758 162.07C150.883 162.456 150.945 162.914 150.945 163.445V169H149.492V163.43C149.492 162.956 149.417 162.589 149.266 162.328C149.12 162.062 148.911 161.878 148.641 161.773C148.375 161.664 148.057 161.609 147.688 161.609C147.37 161.609 147.089 161.664 146.844 161.773C146.599 161.883 146.393 162.034 146.227 162.227C146.06 162.414 145.932 162.63 145.844 162.875C145.76 163.12 145.719 163.38 145.719 163.656ZM154.703 160.547V169H153.25V160.547H154.703ZM153.141 158.305C153.141 158.07 153.211 157.872 153.352 157.711C153.497 157.549 153.711 157.469 153.992 157.469C154.268 157.469 154.479 157.549 154.625 157.711C154.776 157.872 154.852 158.07 154.852 158.305C154.852 158.529 154.776 158.721 154.625 158.883C154.479 159.039 154.268 159.117 153.992 159.117C153.711 159.117 153.497 159.039 153.352 158.883C153.211 158.721 153.141 158.529 153.141 158.305ZM158.469 162.352V169H157.023V160.547H158.391L158.469 162.352ZM158.125 164.453L157.523 164.43C157.529 163.852 157.615 163.318 157.781 162.828C157.948 162.333 158.182 161.904 158.484 161.539C158.786 161.174 159.146 160.893 159.562 160.695C159.984 160.492 160.451 160.391 160.961 160.391C161.378 160.391 161.753 160.448 162.086 160.562C162.419 160.672 162.703 160.849 162.938 161.094C163.177 161.339 163.359 161.656 163.484 162.047C163.609 162.432 163.672 162.904 163.672 163.461V169H162.219V163.445C162.219 163.003 162.154 162.648 162.023 162.383C161.893 162.112 161.703 161.917 161.453 161.797C161.203 161.672 160.896 161.609 160.531 161.609C160.172 161.609 159.844 161.685 159.547 161.836C159.255 161.987 159.003 162.195 158.789 162.461C158.581 162.727 158.417 163.031 158.297 163.375C158.182 163.714 158.125 164.073 158.125 164.453ZM171.039 167.047V160.547H172.492V169H171.109L171.039 167.047ZM171.312 165.266L171.914 165.25C171.914 165.812 171.854 166.333 171.734 166.812C171.62 167.286 171.432 167.698 171.172 168.047C170.911 168.396 170.57 168.669 170.148 168.867C169.727 169.06 169.214 169.156 168.609 169.156C168.198 169.156 167.82 169.096 167.477 168.977C167.138 168.857 166.846 168.672 166.602 168.422C166.357 168.172 166.167 167.846 166.031 167.445C165.901 167.044 165.836 166.562 165.836 166V160.547H167.281V166.016C167.281 166.396 167.323 166.711 167.406 166.961C167.495 167.206 167.612 167.401 167.758 167.547C167.909 167.688 168.076 167.786 168.258 167.844C168.445 167.901 168.638 167.93 168.836 167.93C169.451 167.93 169.938 167.812 170.297 167.578C170.656 167.339 170.914 167.018 171.07 166.617C171.232 166.211 171.312 165.76 171.312 165.266ZM178.234 160.547V161.656H173.664V160.547H178.234ZM175.211 158.492H176.656V166.906C176.656 167.193 176.701 167.409 176.789 167.555C176.878 167.701 176.992 167.797 177.133 167.844C177.273 167.891 177.424 167.914 177.586 167.914C177.706 167.914 177.831 167.904 177.961 167.883C178.096 167.857 178.198 167.836 178.266 167.82L178.273 169C178.159 169.036 178.008 169.07 177.82 169.102C177.638 169.138 177.417 169.156 177.156 169.156C176.802 169.156 176.477 169.086 176.18 168.945C175.883 168.805 175.646 168.57 175.469 168.242C175.297 167.909 175.211 167.461 175.211 166.898V158.492ZM179.391 164.867V164.688C179.391 164.078 179.479 163.513 179.656 162.992C179.833 162.466 180.089 162.01 180.422 161.625C180.755 161.234 181.159 160.932 181.633 160.719C182.107 160.5 182.638 160.391 183.227 160.391C183.82 160.391 184.354 160.5 184.828 160.719C185.307 160.932 185.714 161.234 186.047 161.625C186.385 162.01 186.643 162.466 186.82 162.992C186.997 163.513 187.086 164.078 187.086 164.688V164.867C187.086 165.477 186.997 166.042 186.82 166.562C186.643 167.083 186.385 167.539 186.047 167.93C185.714 168.315 185.31 168.617 184.836 168.836C184.367 169.049 183.836 169.156 183.242 169.156C182.648 169.156 182.115 169.049 181.641 168.836C181.167 168.617 180.76 168.315 180.422 167.93C180.089 167.539 179.833 167.083 179.656 166.562C179.479 166.042 179.391 165.477 179.391 164.867ZM180.836 164.688V164.867C180.836 165.289 180.885 165.688 180.984 166.062C181.083 166.432 181.232 166.76 181.43 167.047C181.633 167.333 181.885 167.56 182.188 167.727C182.49 167.888 182.841 167.969 183.242 167.969C183.638 167.969 183.984 167.888 184.281 167.727C184.583 167.56 184.833 167.333 185.031 167.047C185.229 166.76 185.378 166.432 185.477 166.062C185.581 165.688 185.633 165.289 185.633 164.867V164.688C185.633 164.271 185.581 163.878 185.477 163.508C185.378 163.133 185.227 162.802 185.023 162.516C184.826 162.224 184.576 161.995 184.273 161.828C183.977 161.661 183.628 161.578 183.227 161.578C182.831 161.578 182.482 161.661 182.18 161.828C181.883 161.995 181.633 162.224 181.43 162.516C181.232 162.802 181.083 163.133 180.984 163.508C180.885 163.878 180.836 164.271 180.836 164.688ZM193.82 166.758C193.82 166.549 193.773 166.357 193.68 166.18C193.591 165.997 193.406 165.833 193.125 165.688C192.849 165.536 192.432 165.406 191.875 165.297C191.406 165.198 190.982 165.081 190.602 164.945C190.227 164.81 189.906 164.646 189.641 164.453C189.38 164.26 189.18 164.034 189.039 163.773C188.898 163.513 188.828 163.208 188.828 162.859C188.828 162.526 188.901 162.211 189.047 161.914C189.198 161.617 189.409 161.354 189.68 161.125C189.956 160.896 190.286 160.716 190.672 160.586C191.057 160.456 191.487 160.391 191.961 160.391C192.638 160.391 193.216 160.51 193.695 160.75C194.174 160.99 194.542 161.31 194.797 161.711C195.052 162.107 195.18 162.547 195.18 163.031H193.734C193.734 162.797 193.664 162.57 193.523 162.352C193.388 162.128 193.188 161.943 192.922 161.797C192.661 161.651 192.341 161.578 191.961 161.578C191.56 161.578 191.234 161.641 190.984 161.766C190.74 161.885 190.56 162.039 190.445 162.227C190.336 162.414 190.281 162.612 190.281 162.82C190.281 162.977 190.307 163.117 190.359 163.242C190.417 163.362 190.516 163.474 190.656 163.578C190.797 163.677 190.995 163.771 191.25 163.859C191.505 163.948 191.831 164.036 192.227 164.125C192.919 164.281 193.49 164.469 193.938 164.688C194.385 164.906 194.719 165.174 194.938 165.492C195.156 165.81 195.266 166.195 195.266 166.648C195.266 167.018 195.188 167.357 195.031 167.664C194.88 167.971 194.659 168.237 194.367 168.461C194.081 168.68 193.737 168.852 193.336 168.977C192.94 169.096 192.495 169.156 192 169.156C191.255 169.156 190.625 169.023 190.109 168.758C189.594 168.492 189.203 168.148 188.938 167.727C188.672 167.305 188.539 166.859 188.539 166.391H189.992C190.013 166.786 190.128 167.102 190.336 167.336C190.544 167.565 190.799 167.729 191.102 167.828C191.404 167.922 191.703 167.969 192 167.969C192.396 167.969 192.727 167.917 192.992 167.812C193.263 167.708 193.469 167.565 193.609 167.383C193.75 167.201 193.82 166.992 193.82 166.758Z" fill="black"/>
<path d="M163.695 252.562V264H162.25V254.367L159.336 255.43V254.125L163.469 252.562H163.695ZM175.086 257.406V259.141C175.086 260.073 175.003 260.859 174.836 261.5C174.669 262.141 174.43 262.656 174.117 263.047C173.805 263.438 173.427 263.721 172.984 263.898C172.547 264.07 172.052 264.156 171.5 264.156C171.062 264.156 170.659 264.102 170.289 263.992C169.919 263.883 169.586 263.708 169.289 263.469C168.997 263.224 168.747 262.906 168.539 262.516C168.331 262.125 168.172 261.651 168.062 261.094C167.953 260.536 167.898 259.885 167.898 259.141V257.406C167.898 256.474 167.982 255.693 168.148 255.062C168.32 254.432 168.562 253.927 168.875 253.547C169.188 253.161 169.562 252.885 170 252.719C170.443 252.552 170.938 252.469 171.484 252.469C171.927 252.469 172.333 252.523 172.703 252.633C173.078 252.737 173.411 252.906 173.703 253.141C173.995 253.37 174.242 253.677 174.445 254.062C174.654 254.443 174.812 254.909 174.922 255.461C175.031 256.013 175.086 256.661 175.086 257.406ZM173.633 259.375V257.164C173.633 256.654 173.602 256.206 173.539 255.82C173.482 255.43 173.396 255.096 173.281 254.82C173.167 254.544 173.021 254.32 172.844 254.148C172.672 253.977 172.471 253.852 172.242 253.773C172.018 253.69 171.766 253.648 171.484 253.648C171.141 253.648 170.836 253.714 170.57 253.844C170.305 253.969 170.081 254.169 169.898 254.445C169.721 254.721 169.586 255.083 169.492 255.531C169.398 255.979 169.352 256.523 169.352 257.164V259.375C169.352 259.885 169.38 260.336 169.438 260.727C169.5 261.117 169.591 261.456 169.711 261.742C169.831 262.023 169.977 262.255 170.148 262.438C170.32 262.62 170.518 262.755 170.742 262.844C170.971 262.927 171.224 262.969 171.5 262.969C171.854 262.969 172.164 262.901 172.43 262.766C172.695 262.63 172.917 262.419 173.094 262.133C173.276 261.841 173.411 261.469 173.5 261.016C173.589 260.557 173.633 260.01 173.633 259.375Z" fill="black"/>
<path d="M91.1172 119.922C91.1172 120.615 90.9557 121.203 90.6328 121.688C90.3151 122.167 89.8828 122.531 89.3359 122.781C88.7943 123.031 88.1823 123.156 87.5 123.156C86.8177 123.156 86.2031 123.031 85.6562 122.781C85.1094 122.531 84.6771 122.167 84.3594 121.688C84.0417 121.203 83.8828 120.615 83.8828 119.922C83.8828 119.469 83.9688 119.055 84.1406 118.68C84.3177 118.299 84.5651 117.969 84.8828 117.688C85.2057 117.406 85.5859 117.19 86.0234 117.039C86.4661 116.883 86.9531 116.805 87.4844 116.805C88.1823 116.805 88.8047 116.94 89.3516 117.211C89.8984 117.477 90.3281 117.844 90.6406 118.312C90.9583 118.781 91.1172 119.318 91.1172 119.922ZM89.6641 119.891C89.6641 119.469 89.5729 119.096 89.3906 118.773C89.2083 118.445 88.9531 118.19 88.625 118.008C88.2969 117.826 87.9167 117.734 87.4844 117.734C87.0417 117.734 86.6589 117.826 86.3359 118.008C86.0182 118.19 85.7708 118.445 85.5938 118.773C85.4167 119.096 85.3281 119.469 85.3281 119.891C85.3281 120.328 85.4141 120.703 85.5859 121.016C85.763 121.323 86.013 121.56 86.3359 121.727C86.6641 121.888 87.0521 121.969 87.5 121.969C87.9479 121.969 88.3333 121.888 88.6562 121.727C88.9792 121.56 89.2266 121.323 89.3984 121.016C89.5755 120.703 89.6641 120.328 89.6641 119.891ZM90.8516 114.586C90.8516 115.138 90.7057 115.635 90.4141 116.078C90.1224 116.521 89.724 116.87 89.2188 117.125C88.7135 117.38 88.1406 117.508 87.5 117.508C86.849 117.508 86.2682 117.38 85.7578 117.125C85.2526 116.87 84.8568 116.521 84.5703 116.078C84.2839 115.635 84.1406 115.138 84.1406 114.586C84.1406 113.924 84.2839 113.362 84.5703 112.898C84.862 112.435 85.2604 112.081 85.7656 111.836C86.2708 111.591 86.8464 111.469 87.4922 111.469C88.1432 111.469 88.7214 111.591 89.2266 111.836C89.7318 112.081 90.1276 112.435 90.4141 112.898C90.7057 113.362 90.8516 113.924 90.8516 114.586ZM89.4062 114.609C89.4062 114.229 89.3255 113.893 89.1641 113.602C89.0026 113.31 88.7786 113.081 88.4922 112.914C88.2057 112.742 87.8724 112.656 87.4922 112.656C87.112 112.656 86.7786 112.737 86.4922 112.898C86.2109 113.055 85.9896 113.279 85.8281 113.57C85.6719 113.862 85.5938 114.208 85.5938 114.609C85.5938 115 85.6719 115.341 85.8281 115.633C85.9896 115.924 86.2135 116.151 86.5 116.312C86.7865 116.474 87.1198 116.555 87.5 116.555C87.8802 116.555 88.2109 116.474 88.4922 116.312C88.7786 116.151 89.0026 115.924 89.1641 115.633C89.3255 115.341 89.4062 115 89.4062 114.609Z" fill="black"/>
<path d="M244.695 111.562V123H243.25V113.367L240.336 114.43V113.125L244.469 111.562H244.695ZM256.398 121.812V123H248.953V121.961L252.68 117.812C253.138 117.302 253.492 116.87 253.742 116.516C253.997 116.156 254.174 115.836 254.273 115.555C254.378 115.268 254.43 114.977 254.43 114.68C254.43 114.305 254.352 113.966 254.195 113.664C254.044 113.357 253.82 113.112 253.523 112.93C253.227 112.747 252.867 112.656 252.445 112.656C251.94 112.656 251.518 112.755 251.18 112.953C250.846 113.146 250.596 113.417 250.43 113.766C250.263 114.115 250.18 114.516 250.18 114.969H248.734C248.734 114.328 248.875 113.742 249.156 113.211C249.438 112.68 249.854 112.258 250.406 111.945C250.958 111.628 251.638 111.469 252.445 111.469C253.164 111.469 253.779 111.596 254.289 111.852C254.799 112.102 255.19 112.456 255.461 112.914C255.737 113.367 255.875 113.898 255.875 114.508C255.875 114.841 255.818 115.18 255.703 115.523C255.594 115.862 255.44 116.201 255.242 116.539C255.049 116.878 254.823 117.211 254.562 117.539C254.307 117.867 254.034 118.19 253.742 118.508L250.695 121.812H256.398Z" fill="white"/>
</g>
<defs>
<clipPath id="clip0_4075_1570">
<rect width="233" height="233" fill="white" transform="translate(51 49)"/>
</clipPath>
</defs>
</svg>
