<svg width="518" height="324" viewBox="0 0 518 324" fill="none" xmlns="http://www.w3.org/2000/svg">
<rect width="518" height="324" rx="26" fill="#F9FFEF"/>
<path d="M120.383 292.125C120.383 291.859 120.341 291.625 120.258 291.422C120.18 291.214 120.039 291.026 119.836 290.859C119.638 290.693 119.362 290.534 119.008 290.383C118.659 290.232 118.216 290.078 117.68 289.922C117.117 289.755 116.609 289.57 116.156 289.367C115.703 289.159 115.315 288.922 114.992 288.656C114.669 288.391 114.422 288.086 114.25 287.742C114.078 287.398 113.992 287.005 113.992 286.562C113.992 286.12 114.083 285.711 114.266 285.336C114.448 284.961 114.708 284.635 115.047 284.359C115.391 284.078 115.799 283.859 116.273 283.703C116.747 283.547 117.276 283.469 117.859 283.469C118.714 283.469 119.438 283.633 120.031 283.961C120.63 284.284 121.086 284.708 121.398 285.234C121.711 285.755 121.867 286.312 121.867 286.906H120.367C120.367 286.479 120.276 286.102 120.094 285.773C119.911 285.44 119.635 285.18 119.266 284.992C118.896 284.799 118.427 284.703 117.859 284.703C117.323 284.703 116.88 284.784 116.531 284.945C116.182 285.107 115.922 285.326 115.75 285.602C115.583 285.878 115.5 286.193 115.5 286.547C115.5 286.786 115.549 287.005 115.648 287.203C115.753 287.396 115.911 287.576 116.125 287.742C116.344 287.909 116.62 288.062 116.953 288.203C117.292 288.344 117.695 288.479 118.164 288.609C118.81 288.792 119.367 288.995 119.836 289.219C120.305 289.443 120.69 289.695 120.992 289.977C121.299 290.253 121.526 290.568 121.672 290.922C121.823 291.271 121.898 291.667 121.898 292.109C121.898 292.573 121.805 292.992 121.617 293.367C121.43 293.742 121.161 294.062 120.812 294.328C120.464 294.594 120.044 294.799 119.555 294.945C119.07 295.086 118.529 295.156 117.93 295.156C117.404 295.156 116.885 295.083 116.375 294.938C115.87 294.792 115.409 294.573 114.992 294.281C114.581 293.99 114.25 293.63 114 293.203C113.755 292.771 113.633 292.271 113.633 291.703H115.133C115.133 292.094 115.208 292.43 115.359 292.711C115.51 292.987 115.716 293.216 115.977 293.398C116.242 293.581 116.542 293.716 116.875 293.805C117.214 293.888 117.565 293.93 117.93 293.93C118.456 293.93 118.901 293.857 119.266 293.711C119.63 293.565 119.906 293.357 120.094 293.086C120.286 292.815 120.383 292.495 120.383 292.125ZM127.109 295.156C126.521 295.156 125.987 295.057 125.508 294.859C125.034 294.656 124.625 294.372 124.281 294.008C123.943 293.643 123.682 293.211 123.5 292.711C123.318 292.211 123.227 291.664 123.227 291.07V290.742C123.227 290.055 123.328 289.443 123.531 288.906C123.734 288.365 124.01 287.906 124.359 287.531C124.708 287.156 125.104 286.872 125.547 286.68C125.99 286.487 126.448 286.391 126.922 286.391C127.526 286.391 128.047 286.495 128.484 286.703C128.927 286.911 129.289 287.203 129.57 287.578C129.852 287.948 130.06 288.385 130.195 288.891C130.331 289.391 130.398 289.938 130.398 290.531V291.18H124.086V290H128.953V289.891C128.932 289.516 128.854 289.151 128.719 288.797C128.589 288.443 128.38 288.151 128.094 287.922C127.807 287.693 127.417 287.578 126.922 287.578C126.594 287.578 126.292 287.648 126.016 287.789C125.74 287.924 125.503 288.128 125.305 288.398C125.107 288.669 124.953 289 124.844 289.391C124.734 289.781 124.68 290.232 124.68 290.742V291.07C124.68 291.471 124.734 291.849 124.844 292.203C124.958 292.552 125.122 292.859 125.336 293.125C125.555 293.391 125.818 293.599 126.125 293.75C126.438 293.901 126.792 293.977 127.188 293.977C127.698 293.977 128.13 293.872 128.484 293.664C128.839 293.456 129.148 293.177 129.414 292.828L130.289 293.523C130.107 293.799 129.875 294.062 129.594 294.312C129.312 294.562 128.966 294.766 128.555 294.922C128.148 295.078 127.667 295.156 127.109 295.156ZM133.523 288.227V295H132.07V286.547H133.445L133.523 288.227ZM133.227 290.453L132.555 290.43C132.56 289.852 132.635 289.318 132.781 288.828C132.927 288.333 133.143 287.904 133.43 287.539C133.716 287.174 134.073 286.893 134.5 286.695C134.927 286.492 135.422 286.391 135.984 286.391C136.38 286.391 136.745 286.448 137.078 286.562C137.411 286.672 137.701 286.846 137.945 287.086C138.19 287.326 138.38 287.633 138.516 288.008C138.651 288.383 138.719 288.836 138.719 289.367V295H137.273V289.438C137.273 288.995 137.198 288.641 137.047 288.375C136.901 288.109 136.693 287.917 136.422 287.797C136.151 287.672 135.833 287.609 135.469 287.609C135.042 287.609 134.685 287.685 134.398 287.836C134.112 287.987 133.883 288.195 133.711 288.461C133.539 288.727 133.414 289.031 133.336 289.375C133.263 289.714 133.227 290.073 133.227 290.453ZM138.703 289.656L137.734 289.953C137.74 289.49 137.815 289.044 137.961 288.617C138.112 288.19 138.328 287.81 138.609 287.477C138.896 287.143 139.247 286.88 139.664 286.688C140.081 286.49 140.557 286.391 141.094 286.391C141.547 286.391 141.948 286.451 142.297 286.57C142.651 286.69 142.948 286.875 143.188 287.125C143.432 287.37 143.617 287.685 143.742 288.07C143.867 288.456 143.93 288.914 143.93 289.445V295H142.477V289.43C142.477 288.956 142.401 288.589 142.25 288.328C142.104 288.062 141.896 287.878 141.625 287.773C141.359 287.664 141.042 287.609 140.672 287.609C140.354 287.609 140.073 287.664 139.828 287.773C139.583 287.883 139.378 288.034 139.211 288.227C139.044 288.414 138.917 288.63 138.828 288.875C138.745 289.12 138.703 289.38 138.703 289.656ZM154.68 283.562V295H153.234V285.367L150.32 286.43V285.125L154.453 283.562H154.68Z" fill="black"/>
<path d="M51.2969 27.625V28.4375L46.5859 39H45.0625L49.7656 28.8125H43.6094V27.625H51.2969Z" fill="black"/>
<path d="M49.4922 59.6094H49.6172V60.8359H49.4922C48.7266 60.8359 48.0859 60.9609 47.5703 61.2109C47.0547 61.4557 46.6458 61.7865 46.3438 62.2031C46.0417 62.6146 45.8229 63.0781 45.6875 63.5938C45.5573 64.1094 45.4922 64.6328 45.4922 65.1641V66.8359C45.4922 67.3411 45.5521 67.7891 45.6719 68.1797C45.7917 68.5651 45.9557 68.8906 46.1641 69.1562C46.3724 69.4219 46.6068 69.6224 46.8672 69.7578C47.1328 69.8932 47.4089 69.9609 47.6953 69.9609C48.0286 69.9609 48.3255 69.8984 48.5859 69.7734C48.8464 69.6432 49.0651 69.4635 49.2422 69.2344C49.4245 69 49.5625 68.724 49.6562 68.4062C49.75 68.0885 49.7969 67.7396 49.7969 67.3594C49.7969 67.0208 49.7552 66.6953 49.6719 66.3828C49.5885 66.0651 49.4609 65.7839 49.2891 65.5391C49.1172 65.2891 48.901 65.0938 48.6406 64.9531C48.3854 64.8073 48.0807 64.7344 47.7266 64.7344C47.3255 64.7344 46.9505 64.8333 46.6016 65.0312C46.2578 65.224 45.974 65.4792 45.75 65.7969C45.5312 66.1094 45.4062 66.4505 45.375 66.8203L44.6094 66.8125C44.6823 66.2292 44.8177 65.7318 45.0156 65.3203C45.2188 64.9036 45.4688 64.5651 45.7656 64.3047C46.0677 64.0391 46.4036 63.8464 46.7734 63.7266C47.1484 63.6016 47.5443 63.5391 47.9609 63.5391C48.5286 63.5391 49.0182 63.6458 49.4297 63.8594C49.8411 64.0729 50.1797 64.3594 50.4453 64.7188C50.7109 65.0729 50.9062 65.474 51.0312 65.9219C51.1615 66.3646 51.2266 66.8203 51.2266 67.2891C51.2266 67.8255 51.151 68.3281 51 68.7969C50.849 69.2656 50.6224 69.6771 50.3203 70.0312C50.0234 70.3854 49.6562 70.6615 49.2188 70.8594C48.7812 71.0573 48.2734 71.1562 47.6953 71.1562C47.0807 71.1562 46.5443 71.0312 46.0859 70.7812C45.6276 70.526 45.2474 70.1875 44.9453 69.7656C44.6432 69.3438 44.4167 68.875 44.2656 68.3594C44.1146 67.8438 44.0391 67.3203 44.0391 66.7891V66.1094C44.0391 65.3073 44.1198 64.5208 44.2812 63.75C44.4427 62.9792 44.7214 62.2812 45.1172 61.6562C45.5182 61.0312 46.0729 60.5339 46.7812 60.1641C47.4896 59.7943 48.3932 59.6094 49.4922 59.6094Z" fill="black"/>
<path d="M45.7734 97.5859L44.6172 97.2891L45.1875 91.625H51.0234V92.9609H46.4141L46.0703 96.0547C46.2786 95.9349 46.5417 95.8229 46.8594 95.7188C47.1823 95.6146 47.5521 95.5625 47.9688 95.5625C48.4948 95.5625 48.9661 95.6536 49.3828 95.8359C49.7995 96.013 50.1536 96.2682 50.4453 96.6016C50.7422 96.9349 50.9688 97.3359 51.125 97.8047C51.2812 98.2734 51.3594 98.7969 51.3594 99.375C51.3594 99.9219 51.2839 100.424 51.1328 100.883C50.987 101.341 50.7656 101.742 50.4688 102.086C50.1719 102.424 49.7969 102.688 49.3438 102.875C48.8958 103.062 48.3672 103.156 47.7578 103.156C47.2995 103.156 46.8646 103.094 46.4531 102.969C46.0469 102.839 45.6823 102.643 45.3594 102.383C45.0417 102.117 44.7812 101.789 44.5781 101.398C44.3802 101.003 44.2552 100.539 44.2031 100.008H45.5781C45.6406 100.435 45.7656 100.794 45.9531 101.086C46.1406 101.378 46.3854 101.599 46.6875 101.75C46.9948 101.896 47.3516 101.969 47.7578 101.969C48.1016 101.969 48.4062 101.909 48.6719 101.789C48.9375 101.669 49.1615 101.497 49.3438 101.273C49.526 101.049 49.6641 100.779 49.7578 100.461C49.8568 100.143 49.9062 99.7865 49.9062 99.3906C49.9062 99.0312 49.8568 98.6979 49.7578 98.3906C49.6589 98.0833 49.5104 97.8151 49.3125 97.5859C49.1198 97.3568 48.8828 97.1797 48.6016 97.0547C48.3203 96.9245 47.9974 96.8594 47.6328 96.8594C47.1484 96.8594 46.7812 96.9245 46.5312 97.0547C46.2865 97.1849 46.0339 97.362 45.7734 97.5859Z" fill="black"/>
<path d="M51.6328 131.172V132.359H43.4141V131.508L48.5078 123.625H49.6875L48.4219 125.906L45.0547 131.172H51.6328ZM50.0469 123.625V135H48.6016V123.625H50.0469Z" fill="black"/>
<path d="M46.0547 160.602H47.0859C47.5911 160.602 48.0078 160.518 48.3359 160.352C48.6693 160.18 48.9167 159.948 49.0781 159.656C49.2448 159.359 49.3281 159.026 49.3281 158.656C49.3281 158.219 49.2552 157.852 49.1094 157.555C48.9635 157.258 48.7448 157.034 48.4531 156.883C48.1615 156.732 47.7917 156.656 47.3438 156.656C46.9375 156.656 46.5781 156.737 46.2656 156.898C45.9583 157.055 45.7161 157.279 45.5391 157.57C45.3672 157.862 45.2812 158.206 45.2812 158.602H43.8359C43.8359 158.023 43.9818 157.497 44.2734 157.023C44.5651 156.549 44.974 156.172 45.5 155.891C46.0312 155.609 46.6458 155.469 47.3438 155.469C48.0312 155.469 48.6328 155.591 49.1484 155.836C49.6641 156.076 50.0651 156.435 50.3516 156.914C50.638 157.388 50.7812 157.979 50.7812 158.688C50.7812 158.974 50.7135 159.281 50.5781 159.609C50.4479 159.932 50.2422 160.234 49.9609 160.516C49.6849 160.797 49.3255 161.029 48.8828 161.211C48.4401 161.388 47.9089 161.477 47.2891 161.477H46.0547V160.602ZM46.0547 161.789V160.922H47.2891C48.013 160.922 48.612 161.008 49.0859 161.18C49.5599 161.352 49.9323 161.581 50.2031 161.867C50.4792 162.154 50.6719 162.469 50.7812 162.812C50.8958 163.151 50.9531 163.49 50.9531 163.828C50.9531 164.359 50.862 164.831 50.6797 165.242C50.5026 165.654 50.25 166.003 49.9219 166.289C49.599 166.576 49.2188 166.792 48.7812 166.938C48.3438 167.083 47.8672 167.156 47.3516 167.156C46.8568 167.156 46.3906 167.086 45.9531 166.945C45.5208 166.805 45.138 166.602 44.8047 166.336C44.4714 166.065 44.2109 165.734 44.0234 165.344C43.8359 164.948 43.7422 164.497 43.7422 163.992H45.1875C45.1875 164.388 45.2734 164.734 45.4453 165.031C45.6224 165.328 45.8724 165.56 46.1953 165.727C46.5234 165.888 46.9089 165.969 47.3516 165.969C47.7943 165.969 48.1745 165.893 48.4922 165.742C48.8151 165.586 49.0625 165.352 49.2344 165.039C49.4115 164.727 49.5 164.333 49.5 163.859C49.5 163.385 49.401 162.997 49.2031 162.695C49.0052 162.388 48.724 162.161 48.3594 162.016C48 161.865 47.5755 161.789 47.0859 161.789H46.0547Z" fill="black"/>
<path d="M51.3984 197.812V199H43.9531V197.961L47.6797 193.812C48.138 193.302 48.4922 192.87 48.7422 192.516C48.9974 192.156 49.1745 191.836 49.2734 191.555C49.3776 191.268 49.4297 190.977 49.4297 190.68C49.4297 190.305 49.3516 189.966 49.1953 189.664C49.0443 189.357 48.8203 189.112 48.5234 188.93C48.2266 188.747 47.8672 188.656 47.4453 188.656C46.9401 188.656 46.5182 188.755 46.1797 188.953C45.8464 189.146 45.5964 189.417 45.4297 189.766C45.263 190.115 45.1797 190.516 45.1797 190.969H43.7344C43.7344 190.328 43.875 189.742 44.1562 189.211C44.4375 188.68 44.8542 188.258 45.4062 187.945C45.9583 187.628 46.638 187.469 47.4453 187.469C48.1641 187.469 48.7786 187.596 49.2891 187.852C49.7995 188.102 50.1901 188.456 50.4609 188.914C50.737 189.367 50.875 189.898 50.875 190.508C50.875 190.841 50.8177 191.18 50.7031 191.523C50.5938 191.862 50.4401 192.201 50.2422 192.539C50.0495 192.878 49.8229 193.211 49.5625 193.539C49.3073 193.867 49.0339 194.19 48.7422 194.508L45.6953 197.812H51.3984Z" fill="black"/>
<path d="M48.6953 219.562V231H47.25V221.367L44.3359 222.43V221.125L48.4688 219.562H48.6953Z" fill="black"/>
<path d="M186.383 292.125C186.383 291.859 186.341 291.625 186.258 291.422C186.18 291.214 186.039 291.026 185.836 290.859C185.638 290.693 185.362 290.534 185.008 290.383C184.659 290.232 184.216 290.078 183.68 289.922C183.117 289.755 182.609 289.57 182.156 289.367C181.703 289.159 181.315 288.922 180.992 288.656C180.669 288.391 180.422 288.086 180.25 287.742C180.078 287.398 179.992 287.005 179.992 286.562C179.992 286.12 180.083 285.711 180.266 285.336C180.448 284.961 180.708 284.635 181.047 284.359C181.391 284.078 181.799 283.859 182.273 283.703C182.747 283.547 183.276 283.469 183.859 283.469C184.714 283.469 185.438 283.633 186.031 283.961C186.63 284.284 187.086 284.708 187.398 285.234C187.711 285.755 187.867 286.312 187.867 286.906H186.367C186.367 286.479 186.276 286.102 186.094 285.773C185.911 285.44 185.635 285.18 185.266 284.992C184.896 284.799 184.427 284.703 183.859 284.703C183.323 284.703 182.88 284.784 182.531 284.945C182.182 285.107 181.922 285.326 181.75 285.602C181.583 285.878 181.5 286.193 181.5 286.547C181.5 286.786 181.549 287.005 181.648 287.203C181.753 287.396 181.911 287.576 182.125 287.742C182.344 287.909 182.62 288.062 182.953 288.203C183.292 288.344 183.695 288.479 184.164 288.609C184.81 288.792 185.367 288.995 185.836 289.219C186.305 289.443 186.69 289.695 186.992 289.977C187.299 290.253 187.526 290.568 187.672 290.922C187.823 291.271 187.898 291.667 187.898 292.109C187.898 292.573 187.805 292.992 187.617 293.367C187.43 293.742 187.161 294.062 186.812 294.328C186.464 294.594 186.044 294.799 185.555 294.945C185.07 295.086 184.529 295.156 183.93 295.156C183.404 295.156 182.885 295.083 182.375 294.938C181.87 294.792 181.409 294.573 180.992 294.281C180.581 293.99 180.25 293.63 180 293.203C179.755 292.771 179.633 292.271 179.633 291.703H181.133C181.133 292.094 181.208 292.43 181.359 292.711C181.51 292.987 181.716 293.216 181.977 293.398C182.242 293.581 182.542 293.716 182.875 293.805C183.214 293.888 183.565 293.93 183.93 293.93C184.456 293.93 184.901 293.857 185.266 293.711C185.63 293.565 185.906 293.357 186.094 293.086C186.286 292.815 186.383 292.495 186.383 292.125ZM193.109 295.156C192.521 295.156 191.987 295.057 191.508 294.859C191.034 294.656 190.625 294.372 190.281 294.008C189.943 293.643 189.682 293.211 189.5 292.711C189.318 292.211 189.227 291.664 189.227 291.07V290.742C189.227 290.055 189.328 289.443 189.531 288.906C189.734 288.365 190.01 287.906 190.359 287.531C190.708 287.156 191.104 286.872 191.547 286.68C191.99 286.487 192.448 286.391 192.922 286.391C193.526 286.391 194.047 286.495 194.484 286.703C194.927 286.911 195.289 287.203 195.57 287.578C195.852 287.948 196.06 288.385 196.195 288.891C196.331 289.391 196.398 289.938 196.398 290.531V291.18H190.086V290H194.953V289.891C194.932 289.516 194.854 289.151 194.719 288.797C194.589 288.443 194.38 288.151 194.094 287.922C193.807 287.693 193.417 287.578 192.922 287.578C192.594 287.578 192.292 287.648 192.016 287.789C191.74 287.924 191.503 288.128 191.305 288.398C191.107 288.669 190.953 289 190.844 289.391C190.734 289.781 190.68 290.232 190.68 290.742V291.07C190.68 291.471 190.734 291.849 190.844 292.203C190.958 292.552 191.122 292.859 191.336 293.125C191.555 293.391 191.818 293.599 192.125 293.75C192.438 293.901 192.792 293.977 193.188 293.977C193.698 293.977 194.13 293.872 194.484 293.664C194.839 293.456 195.148 293.177 195.414 292.828L196.289 293.523C196.107 293.799 195.875 294.062 195.594 294.312C195.312 294.562 194.966 294.766 194.555 294.922C194.148 295.078 193.667 295.156 193.109 295.156ZM199.523 288.227V295H198.07V286.547H199.445L199.523 288.227ZM199.227 290.453L198.555 290.43C198.56 289.852 198.635 289.318 198.781 288.828C198.927 288.333 199.143 287.904 199.43 287.539C199.716 287.174 200.073 286.893 200.5 286.695C200.927 286.492 201.422 286.391 201.984 286.391C202.38 286.391 202.745 286.448 203.078 286.562C203.411 286.672 203.701 286.846 203.945 287.086C204.19 287.326 204.38 287.633 204.516 288.008C204.651 288.383 204.719 288.836 204.719 289.367V295H203.273V289.438C203.273 288.995 203.198 288.641 203.047 288.375C202.901 288.109 202.693 287.917 202.422 287.797C202.151 287.672 201.833 287.609 201.469 287.609C201.042 287.609 200.685 287.685 200.398 287.836C200.112 287.987 199.883 288.195 199.711 288.461C199.539 288.727 199.414 289.031 199.336 289.375C199.263 289.714 199.227 290.073 199.227 290.453ZM204.703 289.656L203.734 289.953C203.74 289.49 203.815 289.044 203.961 288.617C204.112 288.19 204.328 287.81 204.609 287.477C204.896 287.143 205.247 286.88 205.664 286.688C206.081 286.49 206.557 286.391 207.094 286.391C207.547 286.391 207.948 286.451 208.297 286.57C208.651 286.69 208.948 286.875 209.188 287.125C209.432 287.37 209.617 287.685 209.742 288.07C209.867 288.456 209.93 288.914 209.93 289.445V295H208.477V289.43C208.477 288.956 208.401 288.589 208.25 288.328C208.104 288.062 207.896 287.878 207.625 287.773C207.359 287.664 207.042 287.609 206.672 287.609C206.354 287.609 206.073 287.664 205.828 287.773C205.583 287.883 205.378 288.034 205.211 288.227C205.044 288.414 204.917 288.63 204.828 288.875C204.745 289.12 204.703 289.38 204.703 289.656ZM223.383 293.812V295H215.938V293.961L219.664 289.812C220.122 289.302 220.477 288.87 220.727 288.516C220.982 288.156 221.159 287.836 221.258 287.555C221.362 287.268 221.414 286.977 221.414 286.68C221.414 286.305 221.336 285.966 221.18 285.664C221.029 285.357 220.805 285.112 220.508 284.93C220.211 284.747 219.852 284.656 219.43 284.656C218.924 284.656 218.503 284.755 218.164 284.953C217.831 285.146 217.581 285.417 217.414 285.766C217.247 286.115 217.164 286.516 217.164 286.969H215.719C215.719 286.328 215.859 285.742 216.141 285.211C216.422 284.68 216.839 284.258 217.391 283.945C217.943 283.628 218.622 283.469 219.43 283.469C220.148 283.469 220.763 283.596 221.273 283.852C221.784 284.102 222.174 284.456 222.445 284.914C222.721 285.367 222.859 285.898 222.859 286.508C222.859 286.841 222.802 287.18 222.688 287.523C222.578 287.862 222.424 288.201 222.227 288.539C222.034 288.878 221.807 289.211 221.547 289.539C221.292 289.867 221.018 290.19 220.727 290.508L217.68 293.812H223.383Z" fill="black"/>
<path d="M255.383 292.125C255.383 291.859 255.341 291.625 255.258 291.422C255.18 291.214 255.039 291.026 254.836 290.859C254.638 290.693 254.362 290.534 254.008 290.383C253.659 290.232 253.216 290.078 252.68 289.922C252.117 289.755 251.609 289.57 251.156 289.367C250.703 289.159 250.315 288.922 249.992 288.656C249.669 288.391 249.422 288.086 249.25 287.742C249.078 287.398 248.992 287.005 248.992 286.562C248.992 286.12 249.083 285.711 249.266 285.336C249.448 284.961 249.708 284.635 250.047 284.359C250.391 284.078 250.799 283.859 251.273 283.703C251.747 283.547 252.276 283.469 252.859 283.469C253.714 283.469 254.438 283.633 255.031 283.961C255.63 284.284 256.086 284.708 256.398 285.234C256.711 285.755 256.867 286.312 256.867 286.906H255.367C255.367 286.479 255.276 286.102 255.094 285.773C254.911 285.44 254.635 285.18 254.266 284.992C253.896 284.799 253.427 284.703 252.859 284.703C252.323 284.703 251.88 284.784 251.531 284.945C251.182 285.107 250.922 285.326 250.75 285.602C250.583 285.878 250.5 286.193 250.5 286.547C250.5 286.786 250.549 287.005 250.648 287.203C250.753 287.396 250.911 287.576 251.125 287.742C251.344 287.909 251.62 288.062 251.953 288.203C252.292 288.344 252.695 288.479 253.164 288.609C253.81 288.792 254.367 288.995 254.836 289.219C255.305 289.443 255.69 289.695 255.992 289.977C256.299 290.253 256.526 290.568 256.672 290.922C256.823 291.271 256.898 291.667 256.898 292.109C256.898 292.573 256.805 292.992 256.617 293.367C256.43 293.742 256.161 294.062 255.812 294.328C255.464 294.594 255.044 294.799 254.555 294.945C254.07 295.086 253.529 295.156 252.93 295.156C252.404 295.156 251.885 295.083 251.375 294.938C250.87 294.792 250.409 294.573 249.992 294.281C249.581 293.99 249.25 293.63 249 293.203C248.755 292.771 248.633 292.271 248.633 291.703H250.133C250.133 292.094 250.208 292.43 250.359 292.711C250.51 292.987 250.716 293.216 250.977 293.398C251.242 293.581 251.542 293.716 251.875 293.805C252.214 293.888 252.565 293.93 252.93 293.93C253.456 293.93 253.901 293.857 254.266 293.711C254.63 293.565 254.906 293.357 255.094 293.086C255.286 292.815 255.383 292.495 255.383 292.125ZM262.109 295.156C261.521 295.156 260.987 295.057 260.508 294.859C260.034 294.656 259.625 294.372 259.281 294.008C258.943 293.643 258.682 293.211 258.5 292.711C258.318 292.211 258.227 291.664 258.227 291.07V290.742C258.227 290.055 258.328 289.443 258.531 288.906C258.734 288.365 259.01 287.906 259.359 287.531C259.708 287.156 260.104 286.872 260.547 286.68C260.99 286.487 261.448 286.391 261.922 286.391C262.526 286.391 263.047 286.495 263.484 286.703C263.927 286.911 264.289 287.203 264.57 287.578C264.852 287.948 265.06 288.385 265.195 288.891C265.331 289.391 265.398 289.938 265.398 290.531V291.18H259.086V290H263.953V289.891C263.932 289.516 263.854 289.151 263.719 288.797C263.589 288.443 263.38 288.151 263.094 287.922C262.807 287.693 262.417 287.578 261.922 287.578C261.594 287.578 261.292 287.648 261.016 287.789C260.74 287.924 260.503 288.128 260.305 288.398C260.107 288.669 259.953 289 259.844 289.391C259.734 289.781 259.68 290.232 259.68 290.742V291.07C259.68 291.471 259.734 291.849 259.844 292.203C259.958 292.552 260.122 292.859 260.336 293.125C260.555 293.391 260.818 293.599 261.125 293.75C261.438 293.901 261.792 293.977 262.188 293.977C262.698 293.977 263.13 293.872 263.484 293.664C263.839 293.456 264.148 293.177 264.414 292.828L265.289 293.523C265.107 293.799 264.875 294.062 264.594 294.312C264.312 294.562 263.966 294.766 263.555 294.922C263.148 295.078 262.667 295.156 262.109 295.156ZM268.523 288.227V295H267.07V286.547H268.445L268.523 288.227ZM268.227 290.453L267.555 290.43C267.56 289.852 267.635 289.318 267.781 288.828C267.927 288.333 268.143 287.904 268.43 287.539C268.716 287.174 269.073 286.893 269.5 286.695C269.927 286.492 270.422 286.391 270.984 286.391C271.38 286.391 271.745 286.448 272.078 286.562C272.411 286.672 272.701 286.846 272.945 287.086C273.19 287.326 273.38 287.633 273.516 288.008C273.651 288.383 273.719 288.836 273.719 289.367V295H272.273V289.438C272.273 288.995 272.198 288.641 272.047 288.375C271.901 288.109 271.693 287.917 271.422 287.797C271.151 287.672 270.833 287.609 270.469 287.609C270.042 287.609 269.685 287.685 269.398 287.836C269.112 287.987 268.883 288.195 268.711 288.461C268.539 288.727 268.414 289.031 268.336 289.375C268.263 289.714 268.227 290.073 268.227 290.453ZM273.703 289.656L272.734 289.953C272.74 289.49 272.815 289.044 272.961 288.617C273.112 288.19 273.328 287.81 273.609 287.477C273.896 287.143 274.247 286.88 274.664 286.688C275.081 286.49 275.557 286.391 276.094 286.391C276.547 286.391 276.948 286.451 277.297 286.57C277.651 286.69 277.948 286.875 278.188 287.125C278.432 287.37 278.617 287.685 278.742 288.07C278.867 288.456 278.93 288.914 278.93 289.445V295H277.477V289.43C277.477 288.956 277.401 288.589 277.25 288.328C277.104 288.062 276.896 287.878 276.625 287.773C276.359 287.664 276.042 287.609 275.672 287.609C275.354 287.609 275.073 287.664 274.828 287.773C274.583 287.883 274.378 288.034 274.211 288.227C274.044 288.414 273.917 288.63 273.828 288.875C273.745 289.12 273.703 289.38 273.703 289.656ZM287.039 288.602H288.07C288.576 288.602 288.992 288.518 289.32 288.352C289.654 288.18 289.901 287.948 290.062 287.656C290.229 287.359 290.312 287.026 290.312 286.656C290.312 286.219 290.24 285.852 290.094 285.555C289.948 285.258 289.729 285.034 289.438 284.883C289.146 284.732 288.776 284.656 288.328 284.656C287.922 284.656 287.562 284.737 287.25 284.898C286.943 285.055 286.701 285.279 286.523 285.57C286.352 285.862 286.266 286.206 286.266 286.602H284.82C284.82 286.023 284.966 285.497 285.258 285.023C285.549 284.549 285.958 284.172 286.484 283.891C287.016 283.609 287.63 283.469 288.328 283.469C289.016 283.469 289.617 283.591 290.133 283.836C290.648 284.076 291.049 284.435 291.336 284.914C291.622 285.388 291.766 285.979 291.766 286.688C291.766 286.974 291.698 287.281 291.562 287.609C291.432 287.932 291.227 288.234 290.945 288.516C290.669 288.797 290.31 289.029 289.867 289.211C289.424 289.388 288.893 289.477 288.273 289.477H287.039V288.602ZM287.039 289.789V288.922H288.273C288.997 288.922 289.596 289.008 290.07 289.18C290.544 289.352 290.917 289.581 291.188 289.867C291.464 290.154 291.656 290.469 291.766 290.812C291.88 291.151 291.938 291.49 291.938 291.828C291.938 292.359 291.846 292.831 291.664 293.242C291.487 293.654 291.234 294.003 290.906 294.289C290.583 294.576 290.203 294.792 289.766 294.938C289.328 295.083 288.852 295.156 288.336 295.156C287.841 295.156 287.375 295.086 286.938 294.945C286.505 294.805 286.122 294.602 285.789 294.336C285.456 294.065 285.195 293.734 285.008 293.344C284.82 292.948 284.727 292.497 284.727 291.992H286.172C286.172 292.388 286.258 292.734 286.43 293.031C286.607 293.328 286.857 293.56 287.18 293.727C287.508 293.888 287.893 293.969 288.336 293.969C288.779 293.969 289.159 293.893 289.477 293.742C289.799 293.586 290.047 293.352 290.219 293.039C290.396 292.727 290.484 292.333 290.484 291.859C290.484 291.385 290.385 290.997 290.188 290.695C289.99 290.388 289.708 290.161 289.344 290.016C288.984 289.865 288.56 289.789 288.07 289.789H287.039Z" fill="black"/>
<path d="M324.383 292.125C324.383 291.859 324.341 291.625 324.258 291.422C324.18 291.214 324.039 291.026 323.836 290.859C323.638 290.693 323.362 290.534 323.008 290.383C322.659 290.232 322.216 290.078 321.68 289.922C321.117 289.755 320.609 289.57 320.156 289.367C319.703 289.159 319.315 288.922 318.992 288.656C318.669 288.391 318.422 288.086 318.25 287.742C318.078 287.398 317.992 287.005 317.992 286.562C317.992 286.12 318.083 285.711 318.266 285.336C318.448 284.961 318.708 284.635 319.047 284.359C319.391 284.078 319.799 283.859 320.273 283.703C320.747 283.547 321.276 283.469 321.859 283.469C322.714 283.469 323.438 283.633 324.031 283.961C324.63 284.284 325.086 284.708 325.398 285.234C325.711 285.755 325.867 286.312 325.867 286.906H324.367C324.367 286.479 324.276 286.102 324.094 285.773C323.911 285.44 323.635 285.18 323.266 284.992C322.896 284.799 322.427 284.703 321.859 284.703C321.323 284.703 320.88 284.784 320.531 284.945C320.182 285.107 319.922 285.326 319.75 285.602C319.583 285.878 319.5 286.193 319.5 286.547C319.5 286.786 319.549 287.005 319.648 287.203C319.753 287.396 319.911 287.576 320.125 287.742C320.344 287.909 320.62 288.062 320.953 288.203C321.292 288.344 321.695 288.479 322.164 288.609C322.81 288.792 323.367 288.995 323.836 289.219C324.305 289.443 324.69 289.695 324.992 289.977C325.299 290.253 325.526 290.568 325.672 290.922C325.823 291.271 325.898 291.667 325.898 292.109C325.898 292.573 325.805 292.992 325.617 293.367C325.43 293.742 325.161 294.062 324.812 294.328C324.464 294.594 324.044 294.799 323.555 294.945C323.07 295.086 322.529 295.156 321.93 295.156C321.404 295.156 320.885 295.083 320.375 294.938C319.87 294.792 319.409 294.573 318.992 294.281C318.581 293.99 318.25 293.63 318 293.203C317.755 292.771 317.633 292.271 317.633 291.703H319.133C319.133 292.094 319.208 292.43 319.359 292.711C319.51 292.987 319.716 293.216 319.977 293.398C320.242 293.581 320.542 293.716 320.875 293.805C321.214 293.888 321.565 293.93 321.93 293.93C322.456 293.93 322.901 293.857 323.266 293.711C323.63 293.565 323.906 293.357 324.094 293.086C324.286 292.815 324.383 292.495 324.383 292.125ZM331.109 295.156C330.521 295.156 329.987 295.057 329.508 294.859C329.034 294.656 328.625 294.372 328.281 294.008C327.943 293.643 327.682 293.211 327.5 292.711C327.318 292.211 327.227 291.664 327.227 291.07V290.742C327.227 290.055 327.328 289.443 327.531 288.906C327.734 288.365 328.01 287.906 328.359 287.531C328.708 287.156 329.104 286.872 329.547 286.68C329.99 286.487 330.448 286.391 330.922 286.391C331.526 286.391 332.047 286.495 332.484 286.703C332.927 286.911 333.289 287.203 333.57 287.578C333.852 287.948 334.06 288.385 334.195 288.891C334.331 289.391 334.398 289.938 334.398 290.531V291.18H328.086V290H332.953V289.891C332.932 289.516 332.854 289.151 332.719 288.797C332.589 288.443 332.38 288.151 332.094 287.922C331.807 287.693 331.417 287.578 330.922 287.578C330.594 287.578 330.292 287.648 330.016 287.789C329.74 287.924 329.503 288.128 329.305 288.398C329.107 288.669 328.953 289 328.844 289.391C328.734 289.781 328.68 290.232 328.68 290.742V291.07C328.68 291.471 328.734 291.849 328.844 292.203C328.958 292.552 329.122 292.859 329.336 293.125C329.555 293.391 329.818 293.599 330.125 293.75C330.438 293.901 330.792 293.977 331.188 293.977C331.698 293.977 332.13 293.872 332.484 293.664C332.839 293.456 333.148 293.177 333.414 292.828L334.289 293.523C334.107 293.799 333.875 294.062 333.594 294.312C333.312 294.562 332.966 294.766 332.555 294.922C332.148 295.078 331.667 295.156 331.109 295.156ZM337.523 288.227V295H336.07V286.547H337.445L337.523 288.227ZM337.227 290.453L336.555 290.43C336.56 289.852 336.635 289.318 336.781 288.828C336.927 288.333 337.143 287.904 337.43 287.539C337.716 287.174 338.073 286.893 338.5 286.695C338.927 286.492 339.422 286.391 339.984 286.391C340.38 286.391 340.745 286.448 341.078 286.562C341.411 286.672 341.701 286.846 341.945 287.086C342.19 287.326 342.38 287.633 342.516 288.008C342.651 288.383 342.719 288.836 342.719 289.367V295H341.273V289.438C341.273 288.995 341.198 288.641 341.047 288.375C340.901 288.109 340.693 287.917 340.422 287.797C340.151 287.672 339.833 287.609 339.469 287.609C339.042 287.609 338.685 287.685 338.398 287.836C338.112 287.987 337.883 288.195 337.711 288.461C337.539 288.727 337.414 289.031 337.336 289.375C337.263 289.714 337.227 290.073 337.227 290.453ZM342.703 289.656L341.734 289.953C341.74 289.49 341.815 289.044 341.961 288.617C342.112 288.19 342.328 287.81 342.609 287.477C342.896 287.143 343.247 286.88 343.664 286.688C344.081 286.49 344.557 286.391 345.094 286.391C345.547 286.391 345.948 286.451 346.297 286.57C346.651 286.69 346.948 286.875 347.188 287.125C347.432 287.37 347.617 287.685 347.742 288.07C347.867 288.456 347.93 288.914 347.93 289.445V295H346.477V289.43C346.477 288.956 346.401 288.589 346.25 288.328C346.104 288.062 345.896 287.878 345.625 287.773C345.359 287.664 345.042 287.609 344.672 287.609C344.354 287.609 344.073 287.664 343.828 287.773C343.583 287.883 343.378 288.034 343.211 288.227C343.044 288.414 342.917 288.63 342.828 288.875C342.745 289.12 342.703 289.38 342.703 289.656ZM361.617 291.172V292.359H353.398V291.508L358.492 283.625H359.672L358.406 285.906L355.039 291.172H361.617ZM360.031 283.625V295H358.586V283.625H360.031Z" fill="black"/>
<path d="M390.383 292.125C390.383 291.859 390.341 291.625 390.258 291.422C390.18 291.214 390.039 291.026 389.836 290.859C389.638 290.693 389.362 290.534 389.008 290.383C388.659 290.232 388.216 290.078 387.68 289.922C387.117 289.755 386.609 289.57 386.156 289.367C385.703 289.159 385.315 288.922 384.992 288.656C384.669 288.391 384.422 288.086 384.25 287.742C384.078 287.398 383.992 287.005 383.992 286.562C383.992 286.12 384.083 285.711 384.266 285.336C384.448 284.961 384.708 284.635 385.047 284.359C385.391 284.078 385.799 283.859 386.273 283.703C386.747 283.547 387.276 283.469 387.859 283.469C388.714 283.469 389.438 283.633 390.031 283.961C390.63 284.284 391.086 284.708 391.398 285.234C391.711 285.755 391.867 286.312 391.867 286.906H390.367C390.367 286.479 390.276 286.102 390.094 285.773C389.911 285.44 389.635 285.18 389.266 284.992C388.896 284.799 388.427 284.703 387.859 284.703C387.323 284.703 386.88 284.784 386.531 284.945C386.182 285.107 385.922 285.326 385.75 285.602C385.583 285.878 385.5 286.193 385.5 286.547C385.5 286.786 385.549 287.005 385.648 287.203C385.753 287.396 385.911 287.576 386.125 287.742C386.344 287.909 386.62 288.062 386.953 288.203C387.292 288.344 387.695 288.479 388.164 288.609C388.81 288.792 389.367 288.995 389.836 289.219C390.305 289.443 390.69 289.695 390.992 289.977C391.299 290.253 391.526 290.568 391.672 290.922C391.823 291.271 391.898 291.667 391.898 292.109C391.898 292.573 391.805 292.992 391.617 293.367C391.43 293.742 391.161 294.062 390.812 294.328C390.464 294.594 390.044 294.799 389.555 294.945C389.07 295.086 388.529 295.156 387.93 295.156C387.404 295.156 386.885 295.083 386.375 294.938C385.87 294.792 385.409 294.573 384.992 294.281C384.581 293.99 384.25 293.63 384 293.203C383.755 292.771 383.633 292.271 383.633 291.703H385.133C385.133 292.094 385.208 292.43 385.359 292.711C385.51 292.987 385.716 293.216 385.977 293.398C386.242 293.581 386.542 293.716 386.875 293.805C387.214 293.888 387.565 293.93 387.93 293.93C388.456 293.93 388.901 293.857 389.266 293.711C389.63 293.565 389.906 293.357 390.094 293.086C390.286 292.815 390.383 292.495 390.383 292.125ZM397.109 295.156C396.521 295.156 395.987 295.057 395.508 294.859C395.034 294.656 394.625 294.372 394.281 294.008C393.943 293.643 393.682 293.211 393.5 292.711C393.318 292.211 393.227 291.664 393.227 291.07V290.742C393.227 290.055 393.328 289.443 393.531 288.906C393.734 288.365 394.01 287.906 394.359 287.531C394.708 287.156 395.104 286.872 395.547 286.68C395.99 286.487 396.448 286.391 396.922 286.391C397.526 286.391 398.047 286.495 398.484 286.703C398.927 286.911 399.289 287.203 399.57 287.578C399.852 287.948 400.06 288.385 400.195 288.891C400.331 289.391 400.398 289.938 400.398 290.531V291.18H394.086V290H398.953V289.891C398.932 289.516 398.854 289.151 398.719 288.797C398.589 288.443 398.38 288.151 398.094 287.922C397.807 287.693 397.417 287.578 396.922 287.578C396.594 287.578 396.292 287.648 396.016 287.789C395.74 287.924 395.503 288.128 395.305 288.398C395.107 288.669 394.953 289 394.844 289.391C394.734 289.781 394.68 290.232 394.68 290.742V291.07C394.68 291.471 394.734 291.849 394.844 292.203C394.958 292.552 395.122 292.859 395.336 293.125C395.555 293.391 395.818 293.599 396.125 293.75C396.438 293.901 396.792 293.977 397.188 293.977C397.698 293.977 398.13 293.872 398.484 293.664C398.839 293.456 399.148 293.177 399.414 292.828L400.289 293.523C400.107 293.799 399.875 294.062 399.594 294.312C399.312 294.562 398.966 294.766 398.555 294.922C398.148 295.078 397.667 295.156 397.109 295.156ZM403.523 288.227V295H402.07V286.547H403.445L403.523 288.227ZM403.227 290.453L402.555 290.43C402.56 289.852 402.635 289.318 402.781 288.828C402.927 288.333 403.143 287.904 403.43 287.539C403.716 287.174 404.073 286.893 404.5 286.695C404.927 286.492 405.422 286.391 405.984 286.391C406.38 286.391 406.745 286.448 407.078 286.562C407.411 286.672 407.701 286.846 407.945 287.086C408.19 287.326 408.38 287.633 408.516 288.008C408.651 288.383 408.719 288.836 408.719 289.367V295H407.273V289.438C407.273 288.995 407.198 288.641 407.047 288.375C406.901 288.109 406.693 287.917 406.422 287.797C406.151 287.672 405.833 287.609 405.469 287.609C405.042 287.609 404.685 287.685 404.398 287.836C404.112 287.987 403.883 288.195 403.711 288.461C403.539 288.727 403.414 289.031 403.336 289.375C403.263 289.714 403.227 290.073 403.227 290.453ZM408.703 289.656L407.734 289.953C407.74 289.49 407.815 289.044 407.961 288.617C408.112 288.19 408.328 287.81 408.609 287.477C408.896 287.143 409.247 286.88 409.664 286.688C410.081 286.49 410.557 286.391 411.094 286.391C411.547 286.391 411.948 286.451 412.297 286.57C412.651 286.69 412.948 286.875 413.188 287.125C413.432 287.37 413.617 287.685 413.742 288.07C413.867 288.456 413.93 288.914 413.93 289.445V295H412.477V289.43C412.477 288.956 412.401 288.589 412.25 288.328C412.104 288.062 411.896 287.878 411.625 287.773C411.359 287.664 411.042 287.609 410.672 287.609C410.354 287.609 410.073 287.664 409.828 287.773C409.583 287.883 409.378 288.034 409.211 288.227C409.044 288.414 408.917 288.63 408.828 288.875C408.745 289.12 408.703 289.38 408.703 289.656ZM421.758 289.586L420.602 289.289L421.172 283.625H427.008V284.961H422.398L422.055 288.055C422.263 287.935 422.526 287.823 422.844 287.719C423.167 287.615 423.536 287.562 423.953 287.562C424.479 287.562 424.951 287.654 425.367 287.836C425.784 288.013 426.138 288.268 426.43 288.602C426.727 288.935 426.953 289.336 427.109 289.805C427.266 290.273 427.344 290.797 427.344 291.375C427.344 291.922 427.268 292.424 427.117 292.883C426.971 293.341 426.75 293.742 426.453 294.086C426.156 294.424 425.781 294.688 425.328 294.875C424.88 295.062 424.352 295.156 423.742 295.156C423.284 295.156 422.849 295.094 422.438 294.969C422.031 294.839 421.667 294.643 421.344 294.383C421.026 294.117 420.766 293.789 420.562 293.398C420.365 293.003 420.24 292.539 420.188 292.008H421.562C421.625 292.435 421.75 292.794 421.938 293.086C422.125 293.378 422.37 293.599 422.672 293.75C422.979 293.896 423.336 293.969 423.742 293.969C424.086 293.969 424.391 293.909 424.656 293.789C424.922 293.669 425.146 293.497 425.328 293.273C425.51 293.049 425.648 292.779 425.742 292.461C425.841 292.143 425.891 291.786 425.891 291.391C425.891 291.031 425.841 290.698 425.742 290.391C425.643 290.083 425.495 289.815 425.297 289.586C425.104 289.357 424.867 289.18 424.586 289.055C424.305 288.924 423.982 288.859 423.617 288.859C423.133 288.859 422.766 288.924 422.516 289.055C422.271 289.185 422.018 289.362 421.758 289.586Z" fill="black"/>
<g clip-path="url(#clip0_4075_1571)">
<path d="M158.63 60.45C158.63 46.6429 147.437 35.45 133.63 35.45C119.823 35.45 108.63 46.6429 108.63 60.45V229.45C108.63 243.257 119.823 254.45 133.63 254.45C147.437 254.45 158.63 243.257 158.63 229.45V60.45Z" fill="#D7E6E7"/>
<path d="M158.63 188.45C158.63 174.643 147.437 163.45 133.63 163.45C119.823 163.45 108.63 174.643 108.63 188.45V229.45C108.63 243.257 119.823 254.45 133.63 254.45C147.437 254.45 158.63 243.257 158.63 229.45V188.45Z" fill="#4D7C1F"/>
<path d="M226.63 60.45C226.63 46.6429 215.437 35.45 201.63 35.45C187.823 35.45 176.63 46.6429 176.63 60.45V229.45C176.63 243.257 187.823 254.45 201.63 254.45C215.437 254.45 226.63 243.257 226.63 229.45V60.45Z" fill="#D7E6E7"/>
<path d="M226.63 126.45C226.63 112.643 215.437 101.45 201.63 101.45C187.823 101.45 176.63 112.643 176.63 126.45V229.45C176.63 243.257 187.823 254.45 201.63 254.45C215.437 254.45 226.63 243.257 226.63 229.45V126.45Z" fill="#C2EF8E"/>
<path d="M294.63 60.45C294.63 46.6429 283.437 35.45 269.63 35.45C255.823 35.45 244.63 46.6429 244.63 60.45V229.45C244.63 243.257 255.823 254.45 269.63 254.45C283.437 254.45 294.63 243.257 294.63 229.45V60.45Z" fill="#D7E6E7"/>
<path d="M362.63 60.45C362.63 46.6429 351.437 35.45 337.63 35.45C323.823 35.45 312.63 46.6429 312.63 60.45V229.45C312.63 243.257 323.823 254.45 337.63 254.45C351.437 254.45 362.63 243.257 362.63 229.45V60.45Z" fill="#D7E6E7"/>
<path d="M430.63 60.45C430.63 46.6429 419.437 35.45 405.63 35.45C391.823 35.45 380.63 46.6429 380.63 60.45V229.45C380.63 243.257 391.823 254.45 405.63 254.45C419.437 254.45 430.63 243.257 430.63 229.45V60.45Z" fill="#D7E6E7"/>
<path d="M294.63 90.45C294.63 76.6429 283.437 65.45 269.63 65.45C255.823 65.45 244.63 76.6429 244.63 90.45V229.45C244.63 243.257 255.823 254.45 269.63 254.45C283.437 254.45 294.63 243.257 294.63 229.45V90.45Z" fill="#88BA4F"/>
<path d="M69.1299 29.45V242.67C69.1299 252.44 68.8299 262.26 69.1299 272.02C69.1299 272.16 69.1299 272.31 69.1299 272.45C69.1299 273.26 69.8199 273.95 70.6299 273.95H441.92C446.93 273.95 451.96 274.04 456.97 273.95C457.19 273.95 457.41 273.95 457.63 273.95C459.56 273.95 459.56 270.95 457.63 270.95H86.3399C81.3899 270.95 76.2299 270.54 71.2899 270.95C71.0699 270.97 70.8499 270.95 70.6299 270.95L72.1299 272.45V59.23C72.1299 49.46 72.4299 39.64 72.1299 29.88C72.1299 29.74 72.1299 29.59 72.1299 29.45C72.1299 27.52 69.1299 27.52 69.1299 29.45Z" fill="#D7E6E7"/>
<path d="M362.63 154.45C362.63 140.643 351.437 129.45 337.63 129.45C323.823 129.45 312.63 140.643 312.63 154.45V229.45C312.63 243.257 323.823 254.45 337.63 254.45C351.437 254.45 362.63 243.257 362.63 229.45V154.45Z" fill="#4D7C1F"/>
<path d="M430.63 126.45C430.63 112.643 419.437 101.45 405.63 101.45C391.823 101.45 380.63 112.643 380.63 126.45V229.45C380.63 243.257 391.823 254.45 405.63 254.45C419.437 254.45 430.63 243.257 430.63 229.45V126.45Z" fill="#C2EF8E"/>
</g>
<defs>
<clipPath id="clip0_4075_1571">
<rect width="390.08" height="245.99" fill="white" transform="translate(69 28)"/>
</clipPath>
</defs>
</svg>
