<svg width="21" height="20" viewBox="0 0 21 20" fill="none" xmlns="http://www.w3.org/2000/svg">
<path d="M8.07502 7.50002C8.27094 6.94308 8.65765 6.47344 9.16665 6.1743C9.67565 5.87515 10.2741 5.7658 10.856 5.86561C11.4379 5.96543 11.9657 6.26796 12.3459 6.71963C12.7261 7.1713 12.9342 7.74296 12.9334 8.33335C12.9334 10 10.4334 10.8334 10.4334 10.8334M10.5 14.1667H10.5084M18.8334 10C18.8334 14.6024 15.1024 18.3334 10.5 18.3334C5.89765 18.3334 2.16669 14.6024 2.16669 10C2.16669 5.39765 5.89765 1.66669 10.5 1.66669C15.1024 1.66669 18.8334 5.39765 18.8334 10Z" stroke="#4D7C0F" stroke-width="2" stroke-linecap="round" stroke-linejoin="round"/>
</svg>
