<?xml version="1.0" encoding="UTF-8"?>
<svg id="Capa_2" data-name="Capa 2" xmlns="http://www.w3.org/2000/svg" viewBox="0 0 233.27 205.32">
  <defs>
    <style>
      .cls-1, .cls-2, .cls-3, .cls-4 {
        stroke-width: 0px;
      }

      .cls-2 {
        fill: #4c4c4c;
      }

      .cls-3 {
        fill: #7a7a7a;
      }

      .cls-4 {
        fill: #bfbfbf;
      }
    </style>
  </defs>
  <g id="Capa_1-2" data-name="Capa 1">
    <g>
      <g id="Hke7n0">
        <g>
          <path class="cls-2" d="m81.82,159.41c-27.57,7.66-30.69,10.74-41.32,41.2-3.75-23.74-17.07-37.27-40.51-41.13,23.29-3.92,36.93-17.21,40.69-40.72,1.98,10.42,5.46,19.96,13.12,27.56,7.7,7.65,17.23,11.22,28.02,13.1Z"/>
          <path class="cls-1" d="m226.66,95.45c2.18-.4,4.39-.75,6.61-1.05-2.46-.8-4.92-1.43-7.36-2.02,0,0,0,0,0,0-5.1-1.22-10.12-2.19-14.93-3.77-41.33-13.63-64.32-42.48-70.01-85.42.19-1.09.45-2.29-.76-2.92-.88-.46-1.84-.46-2,.93-.08.6-1.23,5.19-1.01,6.99-2.44,17.28-9.34,32.72-19.41,46.85-18.43,21.83-41.29,35.24-70.27,37.15-1.63.11-3.34.81-1.41,2.93,1.53,1.18,3.29.97,5.04.87,37.56,5.35,64.2,25.25,79.55,59.99,4.12,9.33,5.98,19.3,7.13,29.4.13,1.11.05,2.64,1.66,2.58,1.51-.06,1.5-1.51,1.59-2.67,1-13.04,4.94-25.27,10.29-37.11,7.34-13.2,17-24.41,28.78-33.83,13.38-9.44,28.18-15.26,44.05-18.43.94,0,1.9-.03,2.47-.48Z"/>
        </g>
      </g>
      <path class="cls-4" d="m115.52,188.55c-11.22,3.12-12.49,4.37-16.82,16.77-1.53-9.66-6.95-15.17-16.49-16.74,9.48-1.59,15.03-7.01,16.56-16.57.8,4.24,2.22,8.12,5.34,11.22,3.13,3.11,7.02,4.56,11.41,5.33Z"/>
      <path class="cls-3" d="m232.17,31.56c-17.15,4.76-19.08,6.68-25.7,25.62-2.33-14.76-10.62-23.18-25.19-25.58,14.49-2.44,22.96-10.7,25.3-25.32,1.23,6.48,3.4,12.41,8.16,17.14,4.79,4.76,10.72,6.97,17.43,8.15Z"/>
    </g>
  </g>
</svg>