<svg width="226" height="230" viewBox="0 0 226 230" fill="none" xmlns="http://www.w3.org/2000/svg">
<g clip-path="url(#clip0_4067_1322)">
<path d="M90.8995 0.0115386C117.207 -0.360837 138.267 9.50899 155.488 27.714C166.023 38.8514 177.462 48.7927 189.594 58.2036C218.995 81.0163 231.503 111.574 223.757 147.927C216.703 181.024 195.236 203.182 162.85 213.732C154.776 216.362 146.235 218.171 137.431 217.753C120.248 216.933 103.889 220.721 87.8129 226.645C55.1631 238.678 13.3026 216.993 3.19229 183.924C-1.84031 167.468 -0.470178 151.651 4.17848 135.718C7.61133 123.956 7.64521 112.13 5.52603 100.244C-1.87795 58.7453 25.7053 15.0232 66.4968 3.72401C69.6963 2.83632 72.7716 1.24527 76.0125 0.835278C81.2408 0.169516 86.5557 0.218414 90.8995 0.0115386Z" fill="#4D7C1F"/>
<path d="M68.8415 182.043C66.9406 180.579 66.8766 178.891 67.9946 176.867C69.3911 174.336 71.1225 172.067 73.6633 169.269C67.3697 169.269 61.7123 169.243 56.0586 169.273C45.6359 169.329 46.7274 169.75 46.7199 159.96C46.7124 148.818 46.6823 137.674 46.7538 126.532C46.7651 124.58 46.2682 123.2 44.8266 121.74C39.4439 116.29 37.656 109.742 39.6622 102.26C40.336 99.7477 41.6723 97.4156 43.9571 96.4151C46.814 95.1663 46.7049 93.154 46.7576 90.7166C46.9834 80.3954 45.8881 70.0329 48.3272 59.7907C54.4589 34.0479 78.2141 14.6957 104.649 14.4098C115.106 14.297 125.634 13.492 135.952 16.2491C161.822 23.1587 179.86 46.0429 180.458 72.9254C180.597 79.2144 180.567 85.5109 180.462 91.7999C180.428 93.8122 180.906 95.0083 182.773 96.1556C187.761 99.2173 189.556 106.033 187.474 113.055C186.959 114.793 186.462 116.918 185.205 117.983C180.289 122.15 180.044 127.518 180.481 133.231C180.631 135.217 180.086 136.902 177.741 137.29C174.097 137.971 173.8 135.341 173.28 132.851C173.009 131.561 173.912 129.451 172.03 129.203C170.197 128.962 169.719 131.054 169.158 132.46C165.537 141.548 159.33 148.431 151.17 153.648C145.67 157.165 139.573 159.046 132.899 160.024C145.354 163.018 157.772 161.618 170.103 161.882C172.546 161.934 173.193 160.471 173.216 158.342C173.254 154.679 172.986 151.004 173.367 147.359C173.619 144.956 174.232 142.567 177.639 143.312C179.702 143.635 180.481 145.012 180.488 146.919C180.511 153.076 180.503 159.237 180.496 165.399C180.496 168.528 178.629 169.329 175.847 169.299C168.646 169.228 161.446 169.273 153.135 169.273C160.158 175.682 161.852 183.683 163.241 191.766C163.636 194.068 165.232 193.436 166.52 193.443C177.929 193.485 189.338 193.455 200.747 193.473C205.572 193.481 205.941 193.872 205.956 198.581C205.99 209.602 199.791 215.793 188.679 215.797C138.586 215.805 88.4901 215.805 38.3975 215.797C27.1278 215.797 20.631 208.993 20.9509 197.803C21.0413 194.59 22.3926 193.413 25.5243 193.436C37.065 193.519 48.6057 193.421 60.1427 193.507C62.3861 193.526 63.9218 193.251 64.1326 190.581C64.3133 188.294 66.0071 187.643 68.0435 187.613C71.6533 188.96 70.8327 191.916 70.4375 194.572C69.9783 197.664 68.4726 200.033 65.0097 200.357C60.8277 200.744 56.6308 200.541 52.4413 200.511C49.622 200.492 47.9658 201.267 48.0637 204.49C48.1766 208.135 48.666 208.918 52.3548 208.981C58.7725 209.094 65.1941 209.158 71.6119 208.959C77.3672 208.778 78.4814 207.545 78.6131 201.903C78.647 200.462 78.5867 199.021 78.7185 197.585C78.9519 195 79.795 192.826 82.8966 192.977C85.7724 193.12 86.3784 195.219 86.5177 197.667C86.6871 200.658 86.066 203.685 86.9769 206.627C87.9142 208.35 89.6005 208.184 91.1362 208.188C106.189 208.237 121.241 208.173 136.29 208.248C139.238 208.263 140.261 207.063 140.077 204.253C139.93 202.042 139.893 199.8 140.216 197.592C140.593 195.023 141.748 192.977 144.673 193.082C147.368 193.18 148.448 195.147 148.738 197.569C149.081 200.428 148.746 203.324 149.111 206.179C149.371 208.455 151.215 208.782 152.871 208.872C160.591 209.279 168.323 209.124 176.047 208.963C177.195 208.94 178.49 208.82 178.685 207.214C178.708 206.819 178.704 206.424 178.712 206.033C178.752 202.296 176.857 200.423 173.028 200.413C169.746 200.402 166.463 200.492 163.185 200.375C158.954 200.229 157.697 199.168 156.711 194.978C155.958 191.788 155.514 188.527 154.67 185.356C152.028 175.408 143.664 168.776 134.201 168.915C131.698 168.953 130.019 169.743 128.913 172.105C122.845 185.037 103.626 184.529 98.1713 172.169C97.5314 170.717 96.7146 169.344 94.9192 169.043C86.0961 168.374 79.4788 172.015 74.6683 179.285C73.317 181.328 72.0937 183.874 68.849 182.054L68.8415 182.043Z" fill="black"/>
<path d="M68.8416 182.043C71.3861 182.52 72.4588 180.967 73.6332 179.018C78.4249 171.074 85.4487 167.166 94.8477 167.87C95.0811 168.524 95.0434 169.22 94.6783 169.75C89.322 177.54 89.2731 186.677 88.0723 195.523C87.7034 198.228 87.3534 200.925 87.2819 203.667C87.248 204.991 87.4964 206.657 85.573 207.138C85.5617 203.734 85.524 200.33 85.5428 196.93C85.5541 194.918 84.7449 193.549 82.6181 193.567C80.4764 193.586 79.7386 195.012 79.7612 197.002C79.7913 199.619 79.7687 202.241 79.7612 204.859C79.7499 208.004 78.2367 209.843 75.0222 209.865C66.3723 209.926 57.7224 209.869 49.0725 209.922C47.3335 209.933 46.7011 209.2 46.9044 207.563C46.9195 207.436 46.9119 207.3 46.9044 207.172C46.6886 201.919 49.2093 199.292 54.4665 199.292C57.3498 199.292 60.2331 199.326 63.1164 199.281C65.2694 199.247 68.0925 199.962 68.6684 197.002C69.2669 193.921 71.6985 190.483 68.0436 187.609C68.3108 185.755 68.5781 183.901 68.8453 182.043H68.8416Z" fill="#C5CFD9"/>
<path d="M177.639 143.304C174.955 143.669 174.387 145.478 174.417 147.829C174.47 152.016 174.364 156.206 174.454 160.392C174.5 162.371 173.86 163.194 171.767 163.187C158.314 163.134 144.839 163.631 131.465 161.588C130.701 161.472 129.794 161.569 129.669 160.516C129.507 159.155 130.558 159.17 131.472 159.053C138.142 158.188 144.537 156.499 150.319 152.892C158.687 147.667 164.886 140.66 168.334 131.339C168.65 130.482 168.981 129.624 169.407 128.819C170.276 127.164 172.045 126.961 173.468 127.138C175.057 127.334 174.274 129.045 174.413 130.106C174.774 132.859 173.175 136.489 177.741 137.297C177.707 139.302 177.673 141.311 177.639 143.316V143.304Z" fill="#544F57"/>
<path d="M210.432 154.348C210.048 156.785 208.316 157.654 206.19 157.315C201.914 156.638 200.284 158.15 201.003 162.476C201.36 164.62 200.525 166.61 198.025 166.606C195.518 166.598 194.702 164.586 195.059 162.457C195.793 158.079 194.065 156.668 189.838 157.315C187.708 157.639 185.687 156.777 185.739 154.276C185.792 151.801 187.794 151 189.947 151.38C194.367 152.159 195.703 150.338 195.055 146.159C194.724 144.015 195.571 142.01 198.059 142.04C200.536 142.067 201.356 144.079 201.003 146.219C200.295 150.507 201.861 152.117 206.163 151.38C208.35 151.004 209.999 151.888 210.432 154.348Z" fill="#E6ECF1"/>
<path d="M40.2683 84.2245C39.922 86.4776 38.39 87.4104 36.3649 87.1396C32.1868 86.5867 30.0149 87.6775 30.8467 92.413C31.2156 94.5194 30.3687 96.5091 27.7715 96.4189C25.1705 96.3286 24.6134 94.2749 24.9108 92.1836C25.4754 88.2229 24.1843 86.4926 19.9873 87.1358C17.7515 87.4781 15.4779 86.8123 15.5796 84.0364C15.6699 81.5803 17.759 80.922 19.9008 81.2606C23.8832 81.8925 25.5695 80.5309 24.9183 76.367C24.5682 74.1328 25.178 71.8571 27.9672 71.9286C30.7414 72.0001 31.2081 74.3547 30.8618 76.5325C30.2257 80.5346 31.769 81.8774 35.6573 81.2643C37.9044 80.9108 39.858 81.475 40.272 84.2208L40.2683 84.2245Z" fill="#E6ECF1"/>
<path d="M182.382 45.0837C180.029 44.9107 179.133 43.2933 179.419 41.3186C180.059 36.8651 178.663 34.7964 173.905 35.6352C171.812 36.0038 170.111 35.0747 170.073 32.8179C170.035 30.5385 171.718 29.7863 173.837 29.8765C174.88 29.9217 175.938 29.79 176.973 29.8991C178.941 30.1135 179.487 29.1769 179.378 27.3865C179.291 25.9572 179.284 24.4978 179.483 23.0873C179.705 21.5113 180.65 20.4844 182.404 20.522C184.132 20.5559 185.457 21.673 185.227 23.1362C184.335 28.7632 186.451 30.8846 192.074 30.0082C193.712 29.7524 194.72 31.2344 194.702 32.8029C194.683 34.3638 193.715 35.4509 192.014 35.6277C191.882 35.6427 191.747 35.6766 191.623 35.6502C186.221 34.5105 184.463 36.82 185.273 42.0182C185.54 43.7409 184.268 44.8844 182.385 45.08L182.382 45.0837Z" fill="#010101"/>
<path d="M86.1827 86.0488C97.7761 83.3481 109.275 80.3428 120.289 75.7126C127.049 72.869 133.482 69.4612 139.49 64.9099C142.787 69.9501 146.148 74.7722 150.394 78.906C154.087 82.4981 158.122 85.556 162.899 87.5834C163.93 88.0197 165.255 88.1965 165.195 89.8177C164.739 101.704 166.655 113.732 164.005 125.464C160.535 140.822 146.34 152.332 130.629 152.922C123.176 153.204 115.701 152.892 108.233 152.851C96.1199 148.424 89.4424 139.171 85.6444 127.386C85.2831 126.269 85.1777 125.088 85.6105 123.937C85.874 123.343 86.337 122.903 86.7962 122.451C89.5515 119.736 89.5704 118.814 86.9317 116.166C86.2166 115.448 85.2718 114.936 84.8803 113.913C84.6394 112.833 84.9066 111.961 85.8891 111.374C88.6256 110.509 91.6218 110.795 94.2604 109.396C96.5151 108.203 98.4612 106.71 99.8313 104.558C100.475 103.55 101.051 102.272 99.948 101.339C98.7133 100.293 97.7535 101.361 97.0195 102.302C95.9618 103.66 94.8401 104.92 93.2893 105.732C89.8376 107.537 86.3596 106.883 84.4173 104.054C83.8264 99.3716 84.1312 94.6811 84.1915 89.9982C84.2103 88.4109 84.4775 86.8462 86.1827 86.0563V86.0488Z" fill="#FECABE"/>
<path d="M102.718 20.6499C113.42 20.7402 124.166 19.3786 134.773 22.1131C157.369 27.9357 174.135 49.1046 174.394 72.395C174.466 78.6803 174.428 84.9693 174.417 91.2583C174.417 92.1648 174.496 93.1803 174.116 93.9401C173.833 94.5043 172.9 94.9895 172.215 95.0535C171.056 95.1626 171.123 94.0304 171.259 93.3722C172.685 86.4099 169.117 83.5437 163.046 80.843C154.441 77.0177 149.088 69.2167 144.345 61.2501C141.282 56.1008 140.905 56.097 136.23 59.8471C126.338 67.7836 114.669 72.0603 102.737 75.7088C98.3746 77.0441 94.0083 78.4546 89.4386 78.9887C87.2517 78.8984 87.4512 77.0779 87.4625 75.8216C87.6394 59.0911 89.1413 42.5975 96.8953 27.3376C98.2617 24.6482 99.8012 22.0341 102.715 20.6537L102.718 20.6499Z" fill="#544F57"/>
<path d="M85.5729 207.138C86.9054 202.993 86.1149 198.634 86.9205 194.414C87.7937 189.817 88.1739 185.134 88.9079 180.508C89.6645 175.746 91.9192 171.639 94.8514 167.87C96.7598 167.381 97.7535 167.87 98.5327 169.969C101.081 176.829 106.573 180.602 113.397 180.662C120.395 180.722 125.901 176.946 128.63 169.901C129.259 168.276 129.929 167.738 131.653 167.667C144.47 167.129 153.763 174.381 156.259 187.019C156.839 189.964 157.429 192.905 157.998 195.854C158.461 198.243 159.707 199.42 162.323 199.337C167.028 199.187 171.756 199.488 176.449 199.225C179.363 199.063 180.556 199.838 180.067 202.835C179.837 204.242 179.931 205.698 179.882 207.135C178.531 208.406 176.826 208.451 175.132 208.466C167.732 208.519 160.328 208.496 152.928 208.481C151.083 208.478 149.295 208.263 147.756 207.105C147.074 203.859 147.594 200.575 147.44 197.314C147.345 195.286 146.792 193.549 144.383 193.582C142 193.616 141.376 195.32 141.409 197.374C141.47 200.774 141.353 204.201 141.726 207.567C141.914 209.282 141.854 209.918 139.975 209.914C122.401 209.873 104.822 209.865 87.2479 209.914C84.8351 209.922 85.1476 208.658 85.5767 207.146L85.5729 207.138Z" fill="#E6ECF1"/>
<path d="M102.718 20.6499C94.746 30.7492 91.6745 42.6351 90.0785 55.0852C89.2166 61.8105 88.4939 68.5396 88.5578 75.3289C88.5691 76.6002 88.2153 77.9919 89.4424 78.9849C80.1112 81.5577 70.5768 83.0133 60.9369 83.4835C57.41 83.6565 55.7763 84.6307 56.1377 88.2642C56.277 89.6898 56.2356 91.1492 56.1302 92.5823C56.0624 93.4963 56.6722 95.0422 55.0461 95.0083C53.6045 94.9783 52.3435 94.3652 52.3698 92.3679C52.4639 85.556 52.1139 78.7291 52.4978 71.9399C53.3071 57.6843 58.5618 45.1815 68.9808 35.2854C78.3647 26.3709 89.4951 20.9771 102.718 20.6574V20.6499Z" fill="#454146"/>
<path d="M86.1827 86.0488C84.4701 90.3066 85.7423 94.7488 85.3998 99.0969C85.2492 101.027 85.3621 102.979 85.3546 104.923C82.8063 105.913 82.0159 103.659 80.7022 102.392C79.7838 101.5 78.9255 100.101 77.4877 101.312C76.3133 102.302 77.2167 103.471 77.7662 104.483C79.0535 106.857 80.9657 108.538 83.4124 109.693C84.4964 110.204 86.1376 110.065 86.2994 111.844C85.3622 112.408 85.3584 113.326 85.396 114.259C83.1225 115.5 80.5366 114.259 78.1803 115.218C76.3359 115.97 74.243 116.429 74.1489 118.844C74.0435 121.488 76.2606 122.064 78.2028 122.903C80.8076 124.031 83.6533 122.384 86.1978 123.745C86.7436 130.832 90.1162 136.643 94.5691 141.905C98.3972 146.43 103.031 150.015 108.237 152.851C94.5352 154.096 81.8314 152.17 71.8679 141.472C65.548 134.683 62.1264 126.63 61.8704 117.396C61.6408 109.027 61.8253 100.647 61.7914 92.2701C61.7839 90.6113 61.6822 89.2196 64.08 89.1368C71.5479 88.8811 78.8352 87.2223 86.1827 86.0488Z" fill="#E9AB9D"/>
<path d="M91.8176 161.569C87.135 162.871 82.3622 163.224 77.514 163.161C70.3058 163.063 63.09 163.025 55.8818 163.191C53.085 163.255 52.3059 162.284 52.3435 159.576C52.479 149.883 52.3623 140.186 52.4376 130.489C52.4489 129.278 51.5531 127.112 53.7965 127.153C55.3698 127.183 57.3761 127.179 58.1289 129.628C60.0787 135.985 63.6283 141.446 68.2205 146.257C74.0925 152.407 81.4475 155.894 89.465 158.214C89.4537 159.888 91.0233 160.456 91.8176 161.566V161.569Z" fill="#454146"/>
<path d="M116.318 174.215C109.855 176.066 103.893 171.879 103.483 165.199C103.232 161.117 105.116 159.076 109.136 159.076C112.652 159.076 116.19 159.305 119.683 159.008C122.894 158.737 124.26 159.726 123.797 163.003C123.635 164.135 124.08 165.35 123.308 166.399C119.924 162.766 115.644 164.289 111.662 164.526C110.122 164.62 110.427 166.203 110.574 167.369C111.018 170.89 113.868 172.383 116.322 174.215H116.318Z" fill="#E9AB9D"/>
<path d="M55.6408 104.551C53.1302 104.085 50.8077 103.678 48.6471 104.867C47.3786 105.566 46.6371 106.616 47.0022 108.075C47.3034 109.275 48.1239 110.058 49.4414 110.313C53.7048 111.141 55.9081 113.725 56.0511 118.066C56.085 119.077 56.0549 120.089 56.0549 121.124C48.139 119.611 43.2344 111.995 45.1503 104.483C45.8203 101.847 47.4878 100.338 50.0963 100.259C52.7462 100.18 54.9068 101.2 55.6446 104.551H55.6408Z" fill="#E6A99B"/>
<path d="M171.36 104.4C172.204 101.369 174.304 100.075 177.183 100.259C180.029 100.444 181.576 102.335 182.129 105.044C183.624 112.348 178.858 119.431 171.176 121.131C171.176 119.687 171.157 118.28 171.176 116.873C171.263 111.036 171.266 111.017 177.3 110.347C178.794 110.182 179.762 109.501 180.007 108.011C180.244 106.575 179.728 105.491 178.362 104.803C176.965 104.103 175.414 103.957 171.36 104.397V104.4Z" fill="#E7A99C"/>
<path d="M116.318 174.215C111.767 173.722 108.444 169.453 109.008 165.011C109.204 163.488 109.972 163.059 111.327 163.066C114.056 163.085 116.8 163.243 119.506 163.014C122.164 162.788 123.406 163.728 123.304 166.395C122.736 170.574 120.391 173.166 116.314 174.211L116.318 174.215Z" fill="#FECABE"/>
<path d="M147.752 207.097C158.461 207.108 169.17 207.12 179.879 207.131C180.443 209.076 179.943 210.012 177.688 209.99C169.222 209.903 160.753 209.974 152.288 209.929C150.255 209.918 148.388 209.44 147.756 207.097H147.752Z" fill="#B7C0CA"/>
<path d="M186.24 207.127C185.886 201.901 188.326 199.288 193.561 199.288C194.604 199.288 195.665 199.409 196.693 199.266C200.239 198.773 200.803 200.296 199.482 203.204C195.646 208.158 191.235 209.463 186.24 207.127Z" fill="#FCC9BD"/>
<path d="M27.9446 203.983C26.2546 199.533 26.3938 199.273 30.7376 199.296C33.986 199.311 37.2344 199.409 40.4828 199.469C40.9383 200.014 40.9948 200.688 40.8743 201.312C40.449 203.471 42.203 206.409 39.5983 207.691C36.6698 209.132 33.4967 208.395 30.6849 206.691C29.5707 206.014 28.577 205.171 27.9446 203.986V203.983Z" fill="#FBC7BC"/>
<path d="M27.9446 203.983C30.4854 205.882 33.2558 207.014 36.508 207.199C39.4515 207.364 40.9571 206.582 40.4941 203.354C40.3135 202.087 40.4791 200.767 40.4866 199.469C42.0148 202.486 40.9232 205.671 41.0587 208.778C41.0926 209.565 40.3662 209.715 39.7187 209.892C35.1529 211.137 30.1993 208.662 27.9484 203.983H27.9446Z" fill="#E4A89A"/>
<path d="M186.24 207.127C191.144 207.481 195.801 206.98 199.482 203.204C197.31 208.376 193.038 210.727 187.708 209.944C185.581 209.632 186.07 208.398 186.24 207.123V207.127Z" fill="#E7AA9C"/>
<path d="M91.8176 161.569C89.8 161.317 87.056 161.573 89.465 158.218C91.3621 158.474 93.2592 158.718 95.1525 158.997C95.9957 159.121 97.14 158.985 97.1437 160.264C97.1513 161.837 95.8414 161.532 94.8853 161.585C93.8652 161.641 92.8376 161.585 91.8176 161.573V161.569Z" fill="#534E56"/>
<path d="M137.295 111.874C132.571 111.551 128.269 109.091 125.57 104.024C124.644 102.287 124.644 100.598 126.41 99.5897C128.118 98.6117 129.515 99.3302 130.701 100.993C135.564 107.797 140.931 107.771 145.893 100.902C147.112 99.2136 148.482 98.6494 150.184 99.6536C151.78 100.594 151.783 102.087 151.072 103.761C149.1 108.395 143.63 111.901 137.292 111.874H137.295Z" fill="#020101"/>
<path d="M111.624 133.216C107.849 133.051 103.817 130.576 101.107 125.923C100.099 124.189 99.6506 122.376 101.627 121.097C103.618 119.807 104.898 120.928 106.091 122.677C110.506 129.143 116.42 129.049 121.072 122.478C122.19 120.898 123.47 119.924 125.318 120.988C127.132 122.03 127.057 123.67 126.282 125.423C124.223 130.083 118.851 133.329 111.624 133.22V133.216Z" fill="#010101"/>
<path d="M86.2994 111.844C82.2417 110.547 78.6658 108.621 76.509 104.694C75.4739 102.813 74.8566 100.857 77.0172 99.5822C78.9218 98.4575 80.4462 99.4919 81.4663 101.38C82.3358 102.986 83.3822 104.487 85.3546 104.923C90.2028 106.733 93.3721 105.86 96.0522 101.587C97.2755 99.6424 98.6155 98.3597 100.746 99.6837C102.974 101.068 102.127 103.118 101.051 104.859C97.6557 110.347 92.5403 112.303 86.3032 111.848L86.2994 111.844Z" fill="#010101"/>
<path d="M145.497 124.509C141.364 124.486 136.81 121.831 136.689 119.378C136.554 116.546 140.792 113.657 145.305 113.507C149.751 113.36 154.61 116.204 154.644 118.972C154.682 121.943 150.398 124.535 145.494 124.509H145.497Z" fill="#E391B6"/>
<path d="M86.194 123.745C82.5579 124.907 79.0121 124.821 75.5341 123.113C73.716 122.222 72.7223 120.969 72.7637 118.822C72.8051 116.606 74.0548 115.429 75.8728 114.771C78.9707 113.646 82.1401 112.92 85.396 114.259C87.8728 115.023 89.7548 116.456 90.0748 119.164C90.4022 121.936 88.0836 122.715 86.1977 123.745H86.194Z" fill="#E391B6"/>
<path d="M113.491 107.146C115.185 107.146 116.879 107.135 118.573 107.146C120.41 107.154 121.58 108.023 121.686 109.9C121.795 111.81 120.696 112.837 118.851 112.875C115.336 112.95 111.816 112.935 108.297 112.897C106.422 112.875 105.274 111.728 105.319 109.971C105.361 108.237 106.516 107.15 108.406 107.146C110.1 107.146 111.794 107.146 113.487 107.146H113.491Z" fill="#010101"/>
</g>
<defs>
<clipPath id="clip0_4067_1322">
<rect width="226" height="230" fill="white"/>
</clipPath>
</defs>
</svg>
