<svg width="1512" height="982" viewBox="0 0 1512 982" fill="none" xmlns="http://www.w3.org/2000/svg">
<mask id="mask0_4045_1710" style="mask-type:luminance" maskUnits="userSpaceOnUse" x="-1" y="0" width="1513" height="982">
<path d="M1511.23 0H-0.77002V982H1511.23V0Z" fill="white"/>
</mask>
<g mask="url(#mask0_4045_1710)">
<path opacity="0.5" d="M1173.28 950.56C1166.27 961.42 1160.51 971.06 1154.01 980.17C1149.43 986.6 1143.73 992.22 1138.74 998.37C1131.68 1007.08 1123.24 1011.88 1111.49 1012.36C1093.25 1013.11 1076.14 1010.21 1060.03 1001.58C1045.43 993.76 1031.62 984.94 1020.54 972.31C1017.6 968.96 1013.85 963.7 1008.85 967.07C1004.38 970.08 1006.46 975.82 1008.16 980.13C1012.19 990.38 1020.86 996.54 1029.23 1002.88C1048.06 1017.15 1069.75 1023.77 1092.82 1026.75C1094.65 1026.99 1097.34 1026.45 1097.99 1028.41C1098.82 1030.93 1096.05 1032.12 1094.36 1033.06C1079.11 1041.62 1064.61 1051.76 1047.25 1055.96C1040 1057.72 1033 1057.07 1025.78 1054.84C1014.5 1051.35 1002.98 1049.08 990.98 1051.5C980.04 1053.71 971.52 1050.27 965.16 1040.55C959.19 1031.43 955 1021.68 952.36 1011.27C950.23 1002.88 951.64 994.53 955.64 986.93C959.82 978.99 963.91 970.93 970.05 964.18C972.06 961.97 973.61 959.4 974.12 955.42C971.31 956.48 970.17 958.45 968.77 960.05C948.53 983.13 926.7 1004.54 901.67 1022.44C893.68 1028.16 885.11 1033.07 876.8 1038.34C873.71 1040.3 871.08 1039.83 869.16 1036.67C868.05 1034.85 867.26 1032.82 866.14 1031.01C863.97 1027.49 864.68 1025.38 868.59 1023.59C891.39 1013.17 911.32 998.33 930.13 982.08C940.4 973.21 949.56 963.06 958.65 952.78C951.11 953.56 946.2 958.74 940.85 962.92C937.16 965.8 933.74 969.21 930.88 972.9C923.46 982.48 913.05 984.04 903.05 980.92C878.8 973.36 857.65 960.55 844.15 938.04C835.56 923.71 831.58 908.02 834.57 891.24C836.35 881.27 836.1 871.18 837.18 861.18C838.1 852.61 840.23 844.34 842.47 836.07C842.9 834.49 843.05 832.2 844.98 831.93C847.04 831.64 847.38 833.97 848.27 835.35C862.97 858.15 880.56 878.02 904.89 891C907.89 892.6 911.12 893.83 914.34 894.94C916.75 895.77 919.49 896.59 921.46 894.08C923.57 891.4 922.19 888.76 920.76 886.33C917.44 880.67 912.29 876.8 907.37 872.65C889.41 857.52 873.29 840.84 862.57 819.52C858.46 811.35 858.38 804.36 863.1 796.02C873.22 778.16 885.34 762.01 899.82 747.57C901.38 746.01 902.74 743.88 906.71 743.74C902.36 754.39 903.18 764.92 904.84 775.5C907.59 792.97 914.97 808.63 924.5 823.17C932 834.61 940.51 845.39 947.02 857.51C948.12 859.55 949.18 863.5 952.07 862.17C954.75 860.94 952.69 857.44 952.04 855.16C945.95 833.68 937.12 813.34 926.71 793.59C914.62 770.66 915.74 747.47 927 724.49C930.71 716.93 938.23 713.41 944.52 708.81C957.44 699.36 972.25 693.53 987.74 689.92C994.9 688.25 995.38 689.47 992.86 696.23C981.46 726.85 974.79 758.38 976.55 791.15C977.49 808.64 979.2 826.3 989.84 841.38C992.85 845.65 995.39 851.27 1001.96 849.96C1006.95 848.97 1011.42 840.78 1010.03 833.91C1007.58 821.78 1005.51 809.34 1000.07 798.16C991.82 781.23 991.68 763.77 995.61 746.16C999.73 727.68 1006.76 710.21 1016.8 693.99C1019.45 689.71 1022.48 687.31 1027.4 685.72C1043.41 680.54 1059.48 681.06 1075.71 683.59C1082.26 684.61 1082.27 685.07 1078.34 690.39C1058.02 717.91 1043.52 747.8 1041.13 782.57C1041.07 783.42 1040.93 784.27 1040.89 785.13C1040.43 795.22 1046.82 803.73 1055.15 804.12C1060.99 804.4 1067.93 795.63 1068.33 786.92C1068.68 779.44 1068.38 771.93 1068.68 764.44C1069.44 744.86 1075.64 726.62 1083.09 708.79C1086.32 701.07 1087.82 700.93 1096.06 703.54C1115.43 709.66 1135.45 711.48 1155.62 712.04C1159.83 712.16 1163.21 709.39 1167.58 708.24C1168.22 712.59 1165.88 716.15 1165.5 720.02C1164.08 734.47 1165.24 748.72 1168.62 762.74C1170.01 768.52 1168.4 771.94 1163.69 775.05C1151.41 783.15 1137.23 787.08 1124.18 793.49C1114.44 798.28 1105.85 804.5 1098.27 812.1C1096.18 814.2 1093.34 817.09 1095.37 820.55C1097.23 823.71 1100.9 823.52 1104.11 823.21C1123.88 821.25 1139.62 811.5 1153.13 797.56C1158.81 791.7 1163.53 785.06 1168.29 778.45C1169 777.46 1169.64 775.96 1171.11 776.19C1172.69 776.44 1172.54 778.1 1172.83 779.31C1176.01 792.46 1181.48 804.82 1186.26 817.4C1187.95 821.86 1187.15 824.31 1183.45 827.11C1165.36 840.74 1145.97 852.18 1124.42 859.03C1110.03 863.61 1095.12 866.93 1079.63 866.08C1071.49 865.63 1063.96 868.4 1057.91 874.09C1053.11 878.6 1053.97 883.11 1060.13 885.33C1069.94 888.85 1080.2 890.82 1090.38 887.99C1110.21 882.48 1130.77 880.47 1150.58 874.96C1165.18 870.9 1179.02 865.47 1190.71 855.5C1191.6 854.74 1192.43 853.2 1193.91 854.21C1195.12 855.04 1194.76 856.54 1194.71 857.78C1194.25 869.02 1190.63 879.63 1187.92 890.4C1185.41 900.38 1181.19 909.8 1177.18 919.27C1174.58 925.39 1170.8 929.2 1163.96 930.91C1137.39 937.56 1110.6 941.42 1083.23 938.06C1072.85 936.78 1062.62 934.24 1053.17 929.35C1050.31 927.87 1047.35 926.64 1044.13 926.13C1040.13 925.5 1036.67 926.37 1035.06 930.35C1033.46 934.29 1035.91 936.78 1039 938.8C1044.96 942.7 1051.32 945.75 1058.2 947.58C1081.63 953.82 1105.35 958.6 1129.69 958.71C1143.96 958.77 1158.17 957.23 1173.28 950.56Z" fill="#9EAD82"/>
<path opacity="0.3" d="M1495.01 639.25C1499.18 636.42 1505.22 637.5 1505.51 630.64C1505.58 628.89 1507.52 627.15 1509.67 627.49C1511.86 627.84 1511 629.82 1510.89 631.24C1510.72 633.43 1512.12 633.09 1513.51 633.03C1514.81 632.97 1516.21 632.87 1517.41 633.27C1518.85 633.75 1520.37 634.84 1519.87 636.59C1519.28 638.65 1517.25 638 1516.02 637.52C1513.23 636.43 1510.63 634.49 1507.46 637.1C1509.45 639.21 1513.48 641.97 1511.44 644.07C1509.21 646.36 1506.48 642.91 1504.38 640.6C1500.72 636.57 1498.19 640.83 1494.45 642.33C1497.94 644.67 1501.97 645.08 1503.62 648.66C1504.15 649.82 1505.5 650.87 1504.69 652.24C1503.83 653.69 1502.34 653.03 1501.07 652.74C1497.81 651.99 1494.94 650.72 1493.6 647.28C1493.09 645.97 1492.86 643.93 1490.62 644.86C1488.7 645.65 1486.41 646.5 1485.73 648.49C1485.03 650.55 1487.58 650.38 1488.7 651.17C1490.79 652.65 1492.35 654.49 1492.85 657.04C1493.03 657.94 1492.33 658.47 1491.49 658.49C1489.09 658.56 1486.35 657.98 1485.46 655.95C1482.27 648.63 1479.58 653.2 1476.91 656.1C1475.58 657.54 1472.92 658.81 1473.94 661.09C1474.8 663.02 1477.4 662.33 1479.16 662.01C1485.1 660.94 1489.24 664.91 1493.85 667.25C1496.93 668.82 1494.6 670.75 1492.95 672C1487.15 676.41 1480.05 675.39 1475.29 669.56C1470.35 663.52 1470.29 663.48 1466.1 670.06C1463.34 674.38 1460.72 678.79 1458.11 683.2C1455.68 687.32 1457.94 688.24 1461.58 688.03C1462.51 687.98 1463.5 687.81 1464.35 687.43C1469.81 684.97 1475.02 685.61 1480.25 688.26C1482.26 689.28 1484.54 689.76 1486.73 690.39C1491.62 691.81 1492.09 693.61 1488.5 697.35C1482.83 703.27 1471.57 704.17 1464.93 699.23C1463.86 698.44 1462.82 697.61 1461.79 696.76C1453.84 690.21 1453.51 690.1 1450.32 700.34C1445.75 715.02 1441.67 729.85 1438.9 745C1438.15 749.12 1440.09 749.96 1443.36 748.47C1447.75 746.48 1451.19 743.09 1454.58 739.78C1458.65 735.81 1463.59 733.84 1469 733.98C1476.61 734.17 1484.18 734.07 1491.77 733.66C1493.83 733.55 1497.93 734.05 1495.07 737.04C1487.46 744.98 1481.11 754.81 1469.05 757.17C1463.98 758.17 1459.28 757.22 1454.53 755.6C1438.93 750.28 1437.76 751.08 1436.17 767.3C1434.61 783.19 1433.15 799.08 1433.71 815.07C1433.93 821.32 1435.31 822.01 1440.83 818.82C1446.2 815.71 1450.18 811 1453.94 806.28C1458.51 800.55 1464.3 797.52 1471.3 796.38C1479.94 794.98 1488.51 793.29 1496.5 789.55C1499.98 787.92 1501.24 789.12 1501.77 792.63C1503.17 802.01 1498.14 809.24 1493.4 816.2C1485.67 827.56 1475.12 833.71 1460.72 830.74C1453.87 829.33 1446.82 829.24 1440.08 826.77C1434.56 824.75 1433.6 825.85 1433.83 832.01C1434.57 851.73 1434.49 871.51 1437.26 891.11C1437.54 893.12 1436.18 896.73 1439.29 896.66C1442.18 896.6 1446.05 895.73 1447.16 892.08C1448.26 888.47 1448.9 884.68 1449.43 880.93C1451.41 867.08 1460.05 852.34 1479.07 849.28C1493.57 846.95 1507.43 842.24 1521.18 837.18C1523.13 836.46 1525.17 835.94 1527.22 835.61C1529.71 835.21 1531.38 836.26 1531.19 839.01C1529.69 860.12 1525.82 880.21 1507.43 894.03C1495.18 903.24 1481.47 903.84 1467.22 900.66C1458.84 898.79 1450.71 899.06 1442.56 901.95C1439.69 902.96 1438.6 904.18 1439.08 907.27C1441.87 925.18 1442.11 943.2 1440.93 961.25C1440.67 965.22 1442.12 966.12 1445.54 964.33C1450.61 961.67 1455.69 958.89 1459.16 954.21C1464.98 946.34 1472.84 942.74 1482.32 941.36C1496.39 939.31 1510.3 939.5 1524.24 942.32C1528.93 943.27 1530.28 945.13 1528.15 949.75C1519.71 968.03 1505.94 979.65 1486.22 984.08C1476.47 986.27 1467.85 982.68 1459.42 978.65C1454.62 976.35 1449.97 973.81 1444.88 972.14C1441.98 971.19 1440.24 971.45 1439.9 975.11C1438.75 987.6 1437.44 1000.08 1436.11 1012.55C1435.68 1016.56 1437.8 1017.74 1441.2 1017.34C1446.35 1016.73 1451.3 1015.28 1455.48 1012.08C1460.5 1008.23 1466.24 1006.92 1472.17 1008.13C1479.68 1009.66 1487.16 1010.54 1494.79 1009.99C1500.02 1009.61 1501.39 1012.45 1499.85 1016.71C1492.14 1038.08 1465.01 1047.71 1449.65 1032.9C1446.51 1029.87 1443.24 1026.95 1439.89 1024.15C1437.03 1021.76 1434.65 1021.79 1433.96 1026.13C1431.31 1042.83 1428.12 1059.43 1424.15 1075.86C1423.25 1079.59 1424.85 1080.39 1427.94 1079.82C1431.73 1079.11 1435.02 1077.13 1438.39 1075.38C1452.3 1068.19 1461.87 1069.89 1472.5 1081.11C1476.82 1085.67 1481.23 1090.11 1484.78 1095.32C1487.1 1098.73 1486.45 1100.62 1482.16 1100.63C1473.41 1100.67 1464.72 1101.19 1456.03 1102.3C1449.82 1103.09 1445.19 1099.72 1441.07 1095.46C1437.12 1091.37 1433.19 1087.2 1427.71 1085.08C1424.05 1083.66 1422.07 1084.25 1420.9 1088.74C1416.23 1106.75 1411.1 1124.64 1406.06 1142.55C1404.46 1148.22 1405.3 1149.59 1410.87 1147.45C1423.1 1142.74 1433.47 1149.6 1444.53 1151.99C1447.88 1152.72 1446.49 1155.5 1445.46 1157.56C1441.22 1166.06 1433.2 1167.95 1424.91 1168.56C1416.84 1169.16 1410.64 1165.47 1406.55 1158.35C1405.64 1156.77 1405.52 1153.89 1403.45 1153.99C1400.96 1154.12 1401.27 1157.13 1400.55 1158.97C1395.27 1172.61 1390 1186.26 1384.81 1199.93C1383.33 1203.82 1382.18 1207.84 1380.76 1211.75C1379.93 1214.03 1380.67 1215.4 1382.8 1216.24C1383.51 1216.52 1384.27 1217.04 1384.94 1216.95C1398.12 1215.35 1405.87 1224.96 1415.09 1231.5C1416.45 1232.46 1418.21 1233.4 1417.89 1235.43C1417.57 1237.46 1416.13 1238.88 1414.18 1239.37C1407.29 1241.1 1400.43 1241.73 1393.39 1239.6C1386.17 1237.41 1382.74 1232.15 1380.56 1225.54C1379.91 1223.58 1379.14 1221.66 1377.99 1218.55C1374.71 1225.49 1371.7 1231.45 1369.04 1237.55C1358.92 1260.69 1347.41 1283.14 1335.43 1305.36C1334.04 1307.94 1332.56 1308.65 1330.01 1307.52C1328.28 1306.75 1326.54 1305.99 1324.79 1305.26C1321.25 1303.79 1320.33 1301.82 1322.58 1298.25C1331.19 1284.57 1338.2 1270.01 1345.61 1255.67C1352.33 1242.68 1359.08 1229.73 1364.38 1216.07C1364.84 1214.88 1366.04 1213.6 1364.73 1212.47C1363.64 1211.53 1362.14 1212.06 1360.92 1212.58C1357.61 1214.01 1354.32 1215.49 1351.06 1217.06C1346.69 1219.16 1342.34 1219.61 1337.95 1217.19C1333.06 1214.49 1327.66 1213.42 1322.35 1211.93C1317.38 1210.53 1317.22 1209.04 1320.96 1205.58C1325.63 1201.26 1331.01 1197.96 1336.92 1195.83C1343.52 1193.46 1350.03 1193.99 1355.6 1198.88C1357.88 1200.88 1360.08 1202.99 1362.22 1205.15C1365.54 1208.49 1367.64 1208.81 1369.98 1203.76C1377.91 1186.67 1384.27 1169.01 1390.51 1151.27C1392.13 1146.67 1390.98 1145.34 1386.28 1146.3C1381.45 1147.28 1376.37 1147.37 1371.74 1148.88C1359.22 1152.96 1349.67 1145.27 1343.08 1135.55C1340.11 1131.16 1337.76 1126.25 1337.7 1120.73C1337.65 1116.73 1339.09 1114.28 1343.6 1116.51C1349.8 1119.58 1356.45 1121.09 1363.19 1122.27C1369.8 1123.43 1373.59 1128.22 1377.07 1133.29C1379.48 1136.81 1382.23 1139.88 1386.1 1141.78C1391.12 1144.24 1393.18 1143.36 1395.12 1138.14C1401.28 1121.56 1405.91 1104.5 1411.1 1087.62C1412.34 1083.61 1410.84 1082.69 1407.25 1083.94C1402.57 1085.56 1398.04 1087.43 1394.11 1090.6C1381.88 1100.45 1367.43 1099.53 1356.85 1087.94C1352.29 1082.95 1347.13 1078.28 1345.43 1071.2C1343.66 1063.81 1344.95 1062.17 1352.32 1063C1357.04 1063.53 1361.78 1064.34 1366.5 1064.32C1377.93 1064.27 1388.35 1066.27 1396.41 1075.41C1398.36 1077.62 1401.54 1078.63 1404.61 1079.14C1409.34 1079.92 1412.52 1078.76 1413.87 1073.4C1417.63 1058.48 1420.95 1043.47 1423.83 1028.36C1424.17 1026.6 1425.27 1024.18 1423.5 1023.02C1421.39 1021.64 1419.74 1023.92 1418.1 1025.06C1415.92 1026.58 1413.8 1028.2 1411.63 1029.74C1398.32 1039.19 1384.53 1040.93 1369.98 1032.56C1362.76 1028.41 1354.46 1026.2 1348.11 1020.47C1346.72 1019.22 1344.47 1018.18 1344.71 1016.19C1344.98 1013.89 1347.62 1014.14 1349.32 1013.71C1360.73 1010.84 1372.32 1008.8 1383.63 1005.42C1390.23 1003.44 1396.85 1005.13 1402.78 1008.7C1408.05 1011.88 1413.81 1013.77 1419.64 1015.47C1423.97 1016.73 1426.26 1015.37 1426.97 1010.5C1428.9 997.34 1430.41 984.14 1431.72 970.9C1432.2 966.02 1430.39 965.28 1426.3 966.29C1418.18 968.29 1411.17 972.63 1404.66 977.48C1384.33 992.63 1371.45 993.07 1351.69 977.9C1341.05 969.73 1329.86 962.09 1322.31 950.47C1320.16 947.17 1320.15 946.17 1324.12 945.39C1339.76 942.31 1355.58 940.38 1370.99 935.88C1380.6 933.08 1389.5 937.06 1397.28 943.53C1403.76 948.92 1409.03 956.17 1417.95 958.19C1419.24 958.48 1420.46 959.08 1421.76 959.35C1431.95 961.48 1432.26 960.73 1432.98 950.5C1434.08 935.05 1433 919.77 1431.34 904.45C1430.86 900.02 1429.48 899.29 1425.17 900.27C1416.48 902.25 1409.85 907.75 1402.72 912.33C1388.57 921.41 1374.03 923.91 1357.71 918.28C1337.13 911.19 1321.27 899.14 1311.71 879.35C1308.63 872.98 1308.97 872.78 1315.88 870.85C1333.22 866.02 1350.74 863.4 1368.8 864.68C1379.5 865.44 1389.03 868.06 1397.49 875.37C1404.89 881.77 1412.29 888.57 1421.76 892.1C1429.02 894.81 1430.97 893.54 1430.32 885.9C1428.66 866.21 1427.64 846.5 1427.66 826.73C1427.66 819.03 1426.8 818.53 1419.33 819.97C1414.48 820.9 1409.65 821.94 1404.81 822.91C1393.61 825.14 1383.52 822.77 1375.29 814.76C1365.9 805.62 1356.71 796.23 1350.62 784.36C1349.15 781.5 1349.03 779.29 1353.15 780.13C1365.65 782.68 1378.39 783.36 1390.98 785.2C1398.95 786.37 1405.08 790.56 1409.95 796.77C1413.83 801.71 1417.97 806.39 1422.6 810.63C1423.68 811.62 1424.89 813.1 1426.47 812.6C1428.36 812.01 1427.63 810 1427.72 808.61C1428.94 790.02 1430.59 771.47 1432.9 752.98C1433.34 749.45 1436.1 745.48 1434.02 742.53C1431.57 739.06 1427.33 742.47 1423.86 742.24C1420.66 742.03 1417.42 742.35 1414.2 742.47C1403.83 742.89 1392.23 733.27 1389.84 721.99C1389.06 718.32 1387.78 714.64 1388.76 710.75C1389.5 707.8 1390.74 706.5 1393.99 708C1400.19 710.85 1406.53 713.39 1412.79 716.11C1418.03 718.39 1421.97 722.05 1424.6 727.18C1426.25 730.39 1428.07 733.54 1431.15 735.67C1433.97 737.63 1435.88 737.58 1436.87 733.67C1438.63 726.67 1440.6 719.72 1442.67 712.81C1443.56 709.85 1442.82 708.42 1439.7 708.32C1437.61 708.25 1435.52 708.11 1433.43 708.13C1421.97 708.24 1414.58 701.89 1412.86 690.51C1412.5 688.13 1412.44 685.64 1414.32 684.15C1416.4 682.5 1418.13 684.79 1419.89 685.7C1421.41 686.49 1422.74 687.72 1424.32 688.25C1430.78 690.42 1435.53 694.39 1438.58 700.53C1439.59 702.57 1441.17 704.64 1443.74 704.46C1446.35 704.28 1446.46 701.59 1447.23 699.75C1448.76 696.07 1449.92 692.23 1451.63 688.65C1453.32 685.11 1452.14 682.86 1449.18 681.01C1448.7 680.71 1448.2 680.34 1447.66 680.23C1433.07 677.26 1432.36 665.92 1432.1 654.36C1432.06 652.69 1431.88 650.53 1433.67 649.8C1435.33 649.12 1436.1 651.21 1437.15 652.16C1440.09 654.84 1442.82 657.69 1446.24 659.89C1450.61 662.7 1451.87 667.31 1452.06 672.27C1452.12 673.97 1452.04 675.7 1452.33 677.36C1452.55 678.62 1452.92 680.23 1454.32 680.59C1456 681.02 1456.41 679.19 1457.1 678.2C1460.57 673.21 1463.87 668.1 1467.33 663.11C1468.71 661.12 1468.58 659.68 1466.43 658.45C1464.78 657.51 1463.2 656.45 1461.57 655.48C1456.44 652.42 1455.14 647.69 1456.11 642.22C1456.6 639.47 1457.16 636.01 1460.39 635.43C1463.21 634.93 1463.07 638.61 1464.6 640.11C1468.48 643.9 1470.65 648.31 1469.94 653.89C1469.8 655 1469.98 656.39 1471.17 656.84C1472.47 657.34 1473.12 656.01 1473.91 655.25C1474.73 654.46 1475.43 653.51 1476.35 652.86C1480.31 650.07 1479.41 648.26 1475.61 646.01C1470.78 643.16 1469.72 637.38 1472.39 632.61C1473.75 630.17 1474.99 630.04 1476.4 632.45C1478.39 635.85 1481.36 638.77 1481.29 643.15C1481.24 646.27 1482.09 647.18 1485.35 645.35C1489.7 642.91 1492.86 640.71 1488.5 635.69C1488.27 635.43 1488.23 634.98 1488.17 634.61C1487.6 631.46 1488.01 628.53 1490.3 626.12C1491.12 625.25 1492.32 624.68 1493.32 625.65C1495.51 627.78 1496.02 630.63 1495.97 633.51C1495.94 635.13 1495.42 636.74 1494.97 639.17L1495.01 639.25Z" fill="#9B6F53"/>
<path opacity="0.3" d="M670.28 744.84C673.87 747.16 677.29 749.66 680.55 752.31C686.82 771.29 685.59 791.94 687.75 811.61C688.95 822.49 690.72 833.31 693.15 843.99C693.04 844.28 693.1 844.61 693.33 844.78C695.16 852.72 697.34 860.59 699.96 868.32C706.92 888.84 717.06 908.29 730.48 925.15C730.49 925.49 730.75 925.79 731.09 925.9C738.68 935.33 747.29 943.95 756.98 951.46C771.26 962.52 787.67 970.89 805.24 975.24C805.81 975.38 806.29 975.21 806.64 974.9C807.01 972.81 807.39 970.73 807.7 968.63C809.62 928.38 820.79 887.55 810.6 847.62C801.21 810.86 776.06 779.3 742.17 762.24C723.64 752.91 703.02 748.05 682.29 748.13C679.23 745.7 676.08 743.38 672.77 741.25C670.4 739.72 667.91 743.32 670.28 744.85V744.84ZM691.04 813.83C690.59 810 690.28 806.13 690.01 802.25C696.18 793.46 699.85 783.28 700.45 772.62C707.39 781.31 713.39 790.8 718.73 800.66C719.35 808.93 717.59 817.22 713.62 824.58C711.47 828.58 708.72 832.26 705.45 835.41C702.51 838.24 699.19 840.16 695.81 842.19C693.73 832.8 692.16 823.31 691.04 813.83ZM696.22 843.96C704.38 840.66 711.37 832.44 715.32 825.11C718.76 818.73 720.65 811.64 720.74 804.46C724.58 811.86 728.07 819.44 731.27 827.06C733.39 832.1 735.4 837.18 737.35 842.28C735.83 860.53 728.36 879.26 710.31 886.31C704.18 872.76 699.54 858.51 696.21 843.96H696.22ZM728.9 918.31C721.83 908.76 715.95 898.49 711 887.78C728.36 881.06 736.55 863.62 738.78 846C743.42 858.31 747.79 870.73 752.44 883.03C751.61 890.85 749.89 898.36 746.32 905.44C742.9 912.22 738.15 918.01 732.49 922.99C731.26 921.45 730.07 919.9 728.9 918.32V918.31ZM733.64 924.37C744.77 915.29 752.79 900.69 753.65 886.22C758.99 900.15 764.77 913.9 771.85 927.12C772.24 927.85 772.66 928.58 773.06 929.31C773.09 929.41 773.14 929.5 773.21 929.58C773.58 930.25 773.97 930.92 774.35 931.59C773.46 939.58 768.96 947.13 762.09 951.37C751.51 943.69 741.95 934.56 733.63 924.37H733.64ZM805.1 972.12C790 968.08 776.01 961.22 763.42 952.3C769.99 947.96 774.47 940.77 775.11 932.92C783.16 947.02 792.73 960.43 805.06 971.05C805.06 971.3 805.04 971.54 805.04 971.79C805.04 971.91 805.08 972.01 805.1 972.11V972.12ZM805.14 968.44C794.29 956.93 784.95 944.3 777.26 930.44C787.71 931.9 798.7 930.96 808.56 927.17C807.06 940.9 805.52 954.63 805.14 968.44ZM810.84 903.6C810.29 910.96 809.51 918.31 808.72 925.65C798.14 929.13 787.26 930.36 776.27 928.67C776.14 928.42 775.99 928.18 775.86 927.93C768.45 914.06 762.61 899.44 757.15 884.71C757.9 885 758.65 885.28 759.33 885.54C761.9 886.53 764.53 887.33 767.21 887.96C772.66 889.23 778.25 889.73 783.84 889.49C793.39 889.08 803.41 886.56 811.57 881.33C811.7 888.75 811.4 896.19 810.84 903.61V903.6ZM806.45 844.52C809.79 856.11 811.21 867.98 811.51 879.91C802.56 884.43 793.26 887.47 783.07 887.72C777.81 887.85 772.51 887.31 767.39 886.08C765.02 885.51 762.68 884.79 760.39 883.93C759 883.4 757.57 882.61 756.13 881.99C755.54 880.39 754.96 878.8 754.37 877.2C749.67 864.29 745.17 851.25 740.25 838.39C760.21 846.11 782.86 839.11 801.52 830.59C803.42 835.13 805.07 839.78 806.44 844.51L806.45 844.52ZM778.99 794.58C788.16 804.99 795.65 816.9 801.12 829.67C781.05 836.4 760.29 845.14 739.41 836.15C734.37 823.12 728.87 810.29 722.26 798.01C740.03 801.92 759.45 799.63 775.42 790.74C776.63 792 777.84 793.27 779 794.59L778.99 794.58ZM774.83 790.11C757.93 798.25 739.33 800.63 721.05 795.85C718.36 790.98 715.51 786.19 712.42 781.52C709.54 777.17 706.39 773.01 703.11 768.97C708.78 769.53 714.48 769.57 720.15 768.93C726.26 768.24 733.2 767.13 738.84 764.36C752.17 770.76 764.42 779.41 774.84 790.1L774.83 790.11ZM737.55 763.74C731.84 765.07 726.32 766.81 720.4 767.45C714.19 768.13 707.96 768.04 701.76 767.32C696.98 761.62 691.83 756.25 686.2 751.39C704.01 752.01 721.53 756.26 737.54 763.74H737.55ZM684.89 756.05C689.98 760.6 694.65 765.56 698.98 770.82C698.73 781.44 695.65 791.84 689.9 800.78C688.92 785.77 688.65 770.54 684.89 756.05Z" fill="#9B6F53"/>
<path opacity="0.5" d="M1301.9 1039.18C1306.63 1033.66 1307.62 1026 1308.54 1019.05C1309.58 1011.25 1310.1 1003.39 1310.13 995.53C1310.23 964.86 1302.95 934.35 1289.51 906.81C1274.51 876.07 1251.6 848.7 1223.17 829.58C1222.64 829.22 1222.12 829.3 1221.72 829.58C1221.21 829.56 1220.73 829.79 1220.58 830.36C1220.25 830.42 1219.97 830.67 1220.1 831.06C1220.16 831.25 1220.23 831.43 1220.29 831.61C1216.52 850.02 1210.04 867.81 1206.91 886.34C1203.81 904.72 1205.59 923.44 1210.74 941.29C1216.02 959.56 1224.66 976.66 1234.64 992.78C1239.48 1000.6 1244.65 1008.21 1249.95 1015.73C1254.88 1022.72 1259.67 1030.16 1265.89 1036.09C1271.63 1041.57 1280.3 1045.83 1288.4 1045.57C1291.61 1060.66 1294.48 1075.82 1297.92 1090.85C1298.45 1093.17 1301.75 1092.28 1301.46 1090.01C1299.52 1074.89 1296.3 1059.81 1292.95 1044.89C1296.24 1043.99 1299.32 1042.19 1301.9 1039.18ZM1306.13 978.6C1306.44 982.19 1306.64 985.78 1306.74 989.38C1298.09 997.1 1291.18 1006.41 1286.36 1016.9C1283.77 1006.41 1281.09 995.94 1278.2 985.52C1278.03 984.9 1277.84 984.28 1277.67 983.66C1279.12 975.36 1282.85 967.71 1286.63 960.19C1289.92 953.64 1293.56 946.98 1299.67 942.72C1302.91 954.42 1305.1 966.44 1306.14 978.6H1306.13ZM1299.14 940.98C1292.39 945.18 1288.49 952.16 1284.98 959.15C1281.64 965.79 1278.36 972.5 1276.53 979.66C1273.42 968.65 1270.2 957.68 1266.76 946.76C1269.56 932.34 1276.45 919.13 1286.81 908.65C1291.84 919.04 1295.95 929.87 1299.14 940.98ZM1285.84 906.71C1275.86 916.67 1268.82 929.11 1265.45 942.71C1261.99 931.85 1258.38 921.04 1254.53 910.32C1255.75 905.07 1257.55 899.99 1260.12 895.21C1261.55 892.56 1263.17 890.01 1264.99 887.6C1266.72 885.31 1268.93 883.32 1270.68 881.06C1276.36 889.22 1281.42 897.8 1285.85 906.71H1285.84ZM1269.78 879.82C1267.58 881.42 1265.75 883.77 1264.09 885.86C1261.9 888.61 1259.94 891.55 1258.25 894.63C1256.11 898.52 1254.48 902.64 1253.26 906.88C1250.72 899.9 1248.11 892.95 1245.38 886.04C1245.19 885.56 1244.99 885.09 1244.81 884.61C1246.28 876.3 1249.9 868.12 1255.31 861.69C1260.49 867.44 1265.31 873.51 1269.78 879.82ZM1254.65 860.96C1249.25 867.14 1245.55 874.11 1243.72 881.93C1240.64 874.21 1237.49 866.52 1234.24 858.87C1234.67 856.63 1235.2 854.41 1235.91 852.26C1236.7 849.87 1237.76 847.64 1238.84 845.39C1244.42 850.26 1249.67 855.49 1254.65 860.95V860.96ZM1222.73 832.76C1227.99 836.42 1233 840.39 1237.83 844.55C1236.48 846.84 1235.43 849.37 1234.54 851.83C1234 853.34 1233.56 854.87 1233.19 856.41C1229.9 848.64 1226.58 840.79 1222.64 833.33C1222.66 833.14 1222.7 832.95 1222.72 832.76H1222.73ZM1222.15 837.01C1224.71 844.17 1227.55 851.25 1230.41 858.32C1228.94 857.13 1227.38 856.06 1225.71 855.16C1223.64 854.05 1221.19 852.9 1218.75 852.5C1220.09 847.38 1221.3 842.24 1222.15 837.02V837.01ZM1218.45 853.63C1219.23 853.89 1220.02 854.13 1220.79 854.42C1222.28 854.98 1223.74 855.64 1225.13 856.42C1227.57 857.78 1229.74 859.53 1231.69 861.51C1234.29 867.93 1236.89 874.36 1239.28 880.84C1239.44 881.28 1239.6 881.73 1239.76 882.18C1236.63 879.58 1233.12 877.45 1229.3 875.96C1224.62 874.14 1218.24 872.53 1213.02 873.57C1214.72 866.9 1216.68 860.29 1218.45 853.64V853.63ZM1209.76 889.2C1210.48 884.34 1211.52 879.55 1212.71 874.79C1215.14 874.93 1217.6 874.79 1220.04 875.12C1222.95 875.5 1225.8 876.25 1228.53 877.3C1233.19 879.1 1237.37 881.88 1240.92 885.36C1243.92 893.57 1246.86 901.8 1249.74 910.05C1238.18 902.06 1222.64 897.02 1208.81 899.75C1208.97 896.23 1209.24 892.71 1209.76 889.19V889.2ZM1208.76 900.99C1216.47 901 1223.85 901.18 1231.35 903.41C1238.49 905.53 1245.07 909.02 1250.94 913.58C1252.83 919.04 1254.73 924.5 1256.56 929.99C1258.36 935.37 1260.04 940.79 1261.76 946.2C1247.44 937.14 1229.04 931.33 1212.19 933.64C1209.68 922.94 1208.39 911.97 1208.76 901V900.99ZM1216.46 948.43C1214.94 944.05 1213.64 939.6 1212.54 935.1C1221.44 935.27 1230.04 935.66 1238.75 938.11C1247.38 940.53 1255.45 944.44 1262.83 949.5C1266.37 960.79 1269.71 972.15 1272.9 983.54C1258.49 973.59 1241.28 967.22 1223.78 966.2C1221.04 960.41 1218.56 954.49 1216.46 948.43ZM1224.57 967.84C1242.43 970.23 1258.99 976.31 1273.78 986.64C1276.77 997.41 1279.56 1008.23 1282.23 1019.08C1271.88 1010.62 1259 1004.79 1245.65 1003.66C1243.91 1001.08 1242.16 998.5 1240.48 995.89C1234.68 986.85 1229.25 977.52 1224.56 967.85L1224.57 967.84ZM1272.16 1037.08C1265.35 1032.11 1260.48 1024.88 1255.65 1018.1C1252.56 1013.77 1249.53 1009.4 1246.54 1004.99C1260.12 1007.53 1272.56 1012.94 1283 1022.23C1283.82 1025.59 1284.68 1028.93 1285.47 1032.3C1286.24 1035.61 1286.95 1038.93 1287.67 1042.25C1282.16 1042.45 1276.61 1040.32 1272.17 1037.08H1272.16ZM1293.34 1041.17C1292.96 1041.31 1292.57 1041.38 1292.18 1041.49C1291.87 1040.14 1291.57 1038.78 1291.27 1037.44C1289.95 1031.62 1288.51 1025.82 1287.1 1020.02C1291.64 1009.35 1298.31 999.75 1306.74 991.78C1306.89 1001.61 1306.33 1011.45 1304.92 1021.17C1303.77 1029.08 1301.75 1038.1 1293.35 1041.17H1293.34Z" fill="#9EAD82"/>
<path opacity="0.5" d="M1424.83 584.18C1431.57 586.47 1438.38 586.2 1445.17 584.45C1446.8 584.03 1448.37 583.41 1450.26 582.79C1448.65 586.61 1447.37 590.1 1446.79 593.77C1446.19 597.53 1445.8 601.35 1447.28 605.01C1448.29 607.53 1449.78 607.97 1452.05 606.54C1456.77 603.57 1459.4 599.01 1461.29 593.97C1462.11 591.79 1462.65 589.51 1463.42 586.92C1464.32 588.21 1464.99 589.21 1465.71 590.18C1469.03 594.67 1472.46 599.07 1477.44 601.88C1479.2 602.87 1481.19 603.96 1483.14 602.51C1485.05 601.1 1484.74 598.94 1484.37 596.9C1483.68 593.09 1481.83 589.8 1479.77 586.58C1477.63 583.24 1474.68 580.61 1471.82 577.42C1475.78 577.77 1479.31 577.93 1482.83 577.66C1487.7 577.29 1492.49 576.49 1496.68 573.72C1500.27 571.35 1500.05 568.15 1496.14 566.29C1493.47 565.02 1490.6 564.58 1487.66 564.39C1482.25 564.04 1476.96 564.71 1471.1 566.89C1474.81 562.43 1477.95 558.62 1480.2 554.19C1481.37 551.88 1482.27 549.49 1482.39 546.89C1482.56 543.31 1480.57 541.98 1477.37 543.54C1474.96 544.72 1473.07 546.58 1471.33 548.61C1468.39 552.04 1465.92 555.8 1463.62 559.72C1463.25 550.33 1461.58 541.34 1458.11 532.74C1457.55 531.35 1456.99 528.73 1455.24 529.44C1453.6 530.1 1455.04 532.36 1455.66 533.66C1459.49 541.73 1460.73 550.34 1461.18 559.12C1461.36 562.63 1461.04 566.12 1460.39 569.57C1459.37 569.47 1458.93 568.88 1458.42 568.41C1455.41 565.68 1452.46 562.89 1449.38 560.23C1445.49 556.88 1441.45 553.72 1436.33 552.39C1433.59 551.68 1432.52 552.71 1433.36 555.38C1434.19 558.03 1435.79 560.27 1437.68 562.29C1441.49 566.37 1445.82 569.79 1451.52 572.27C1446.99 573.09 1443.08 573.75 1439.2 574.51C1434.18 575.48 1429.14 576.43 1424.51 578.74C1423.27 579.36 1421.7 580.09 1421.75 581.68C1421.79 583.36 1423.52 583.75 1424.81 584.19L1424.83 584.18ZM1497.05 569.67C1491.34 576.65 1475.6 576.9 1463.51 572.6C1474.46 567.22 1485.29 563.79 1497.05 569.67ZM1465.66 560.72C1468.68 554.93 1472.68 549.92 1477.91 545.96C1478.38 545.6 1478.85 544.92 1479.48 545.17C1480.3 545.49 1480.03 546.4 1480.01 547.05C1479.9 549.86 1478.73 552.34 1477.44 554.77C1474.17 560.87 1469.7 565.91 1464.08 569.95C1463.67 570.25 1463.23 570.6 1462.46 570.38C1462.67 566.89 1464.08 563.77 1465.66 560.73V560.72ZM1481.81 596.62C1482.18 598 1482.77 600 1481.61 600.8C1480.54 601.53 1479.08 600.03 1477.93 599.28C1468.97 593.44 1463.89 585.02 1461.43 574.09C1471.86 578.92 1478.9 585.92 1481.81 596.62ZM1459.28 575.34C1461.45 579.6 1461.38 583.9 1460.65 588.13C1459.63 594.12 1456.75 599.24 1452.25 603.38C1451.71 603.88 1451.26 604.87 1450.34 604.52C1449.44 604.18 1449.27 603.22 1449.13 602.32C1448.24 596.65 1449.08 591.23 1451.57 586.1C1453.46 582.21 1455.9 578.66 1459.27 575.35L1459.28 575.34ZM1436.09 555.06C1444.62 558.79 1452.08 563.95 1457.73 571.57C1448.22 569.12 1440.53 564.23 1436.09 555.06ZM1455.83 574.46C1452.92 582.02 1434.46 586.26 1424.7 581.49C1434.69 576.61 1445.09 575.01 1455.83 574.46Z" fill="#A0A98A"/>
<path opacity="0.5" d="M690.51 899.6C689.66 908.84 686.07 915.33 681.55 921.09C666.58 940.17 647.94 954.26 624.05 960.03C614.46 962.35 604.48 963.04 594.53 962.93C593.19 962.92 591.37 962.13 590.62 963.78C590.02 965.1 591.65 965.89 592.28 966.92C601.63 982.1 611.24 997.1 619.48 1012.95C626.12 1025.74 632.92 1038.42 638.82 1051.59C640.61 1055.59 638.62 1056.26 636.1 1057.48C633.48 1058.74 631.21 1060.44 629.39 1056.04C621.6 1037.22 613.04 1018.74 603.61 1000.7C598.11 990.19 591.82 980.09 585.83 969.83C585.24 968.81 584.68 967.22 583.17 967.61C581.78 967.97 581.9 969.62 581.52 970.79C572.77 997.56 541.67 1023.11 511.78 1021.74C503.92 1021.38 496.37 1019.25 489.59 1015.49C474.31 1007.02 462.27 995.08 453.5 979.87C451.24 975.94 451.56 973.99 456.07 971.67C470.39 964.29 486 961.43 501.35 957.64C507.27 956.18 512.52 953.65 517.04 949.66C519.3 947.66 520.56 945.02 519.76 941.89C518.92 938.63 516.17 937.35 513.31 936.82C506.23 935.51 500.09 938.23 494.72 942.4C481.49 952.69 466.42 959.52 451.27 966.27C447.72 967.86 445.68 967.03 444.2 963.34C435.41 941.57 427.26 919.61 426 895.86C425.13 879.52 424.99 881.27 439.37 883.09C450.97 884.55 462.41 887.31 473.92 889.48C478.26 890.3 482.53 889.84 486.79 888.87C490.7 887.99 493.36 885.7 494.17 881.84C495.03 877.74 494.15 873.62 490.89 870.97C486.37 867.29 481.32 864.88 474.95 865.93C467.1 867.23 459.79 870.63 451.83 871.42C448.75 871.73 445.73 871.95 442.7 871.29C430.46 868.63 428.11 864.99 431.02 852.91C433.88 840.98 437.37 829.23 441.86 817.8C442.35 816.55 442.4 814.64 444.27 814.62C445.93 814.61 446.45 816.3 447.25 817.45C449.63 820.84 451.93 824.29 454.38 827.63C455.33 828.92 456.5 830.1 457.78 831.07C462.46 834.61 468.11 834.68 471.1 831.38C473.85 828.34 472.84 822.06 468.91 818.16C464.34 813.63 458.87 810.56 452.79 808.56C448.32 807.09 446.74 804.85 449.42 800.16C452.27 795.17 454.35 789.74 456.78 784.52C458.07 781.75 459.49 780.16 462.11 783.51C463.06 784.72 464.62 785.56 466.04 786.29C468.36 787.49 470.64 787.31 472.34 785.11C473.88 783.12 473.54 781.04 472.08 779.14C471.32 778.15 470.55 776.89 469.49 776.43C462.82 773.52 464.17 769 466.95 764.27C470.32 758.53 473.88 752.89 477.29 747.17C478.78 744.68 481.07 744.42 483.42 745.1C489.66 746.92 496.01 748.22 502.41 749.3C505.49 749.82 506.46 751.58 506.41 754.61C506.33 759.44 504.59 763.78 503 768.17C502.07 770.74 501.28 773.3 501.34 776.05C501.41 778.86 502.51 781.06 505.46 781.61C508.3 782.14 509.78 780.22 510.76 777.94C513.14 772.43 511.51 766.86 510.54 761.43C508.62 750.66 508.4 750.83 518.99 752.97C540.21 757.25 560.79 764.06 581.94 768.6C585.55 769.37 586.38 770.58 584.39 774.04C580.37 780.99 575.5 787.1 569.37 792.31C563.06 797.67 556.56 802.94 552.84 810.65C550.97 814.53 550.12 818.54 552.62 822.51C556.72 829.02 562.06 830.15 568.75 826.26C576.53 821.73 580.07 814.31 582.33 806.2C584.9 797 586.82 787.62 590.05 778.61C592.45 771.94 593.33 771.71 599.85 774.54C615.17 781.19 628.95 790.3 642.18 800.39C646.9 803.99 646.86 808.54 646.3 813.47C644.91 825.72 636.54 833.64 628.45 841.61C624.06 845.93 619.77 850.21 616.95 855.8C614.4 860.85 614.56 866.02 616.49 871.02C619.82 879.68 629.42 881.82 636.27 875.61C640.95 871.37 643.31 865.67 645.65 859.98C650.15 848.99 652.62 837.28 658 826.56C662.02 818.56 661.43 818.39 667.66 824.52C681.17 837.82 687.9 854.42 691.58 872.6C692.36 876.44 691.62 879.67 688.88 882.55C686.9 884.64 685.17 886.96 683.36 889.21C672.9 902.27 659.03 907.82 642.6 907.76C639.72 907.75 636.85 907.73 634 908.4C630.31 909.27 628.34 911.69 628.12 915.22C627.91 918.65 630.04 921 633.13 922.2C638.16 924.16 643.08 923.12 647.86 921.14C662.12 915.21 676.92 910.37 690.54 899.6H690.51ZM578.02 896.67C576.76 899.09 575.18 901.86 576.94 904.63C578.81 907.58 582.04 908.54 585.46 908.24C595.05 907.39 602.24 902.21 608.11 895.04C610.44 892.2 612.01 888.7 609.58 885.09C607.2 881.56 603.57 880.77 599.54 881.45C590.01 883.07 583.36 888.78 578.02 896.67ZM536.1 907.74C538.86 902.57 537.16 897.9 531.84 897.69C521.48 897.28 512.62 901.68 505.17 908.47C501.82 911.52 503.27 915.64 507.45 917.57C515.38 921.23 531.93 915.56 536.1 907.74ZM570.61 874.02C571.41 871.5 572.39 868.98 572.99 866.37C573.76 863.01 574.6 859.25 570.68 857.3C566.97 855.46 563.54 857.23 560.88 859.84C556.57 864.07 553.79 869.36 552.33 875.16C551.46 878.6 552.09 882.33 555.41 884.27C558.92 886.31 562.08 884.27 564.52 881.71C566.73 879.38 568.54 876.67 570.61 874.02ZM520.4 819.85C519.35 822.23 517.49 824.6 517.25 827.55C516.99 830.69 517.26 833.94 520.37 835.61C523.39 837.23 525.99 835.43 528.14 833.43C532.47 829.38 535.22 824.41 536.26 818.52C536.7 816.03 536.46 813.72 534.24 812.25C531.8 810.63 529.2 810.68 526.59 812.16C523.58 813.88 522.37 816.98 520.39 819.85H520.4ZM513.86 860.01C514.59 858.01 514.18 856.2 511.51 855.96C507.67 855.62 503.97 856.63 500.53 858.26C498.59 859.17 498.05 860.89 499.87 862.6C502.53 865.1 512.07 863.48 513.86 860.01Z" fill="#9EAD82"/>
<path opacity="0.3" d="M335.1 834.08C342.96 829.7 351.31 826.64 360.12 824.85C361.51 824.57 363.26 823.72 364.29 825.36C365.13 826.7 363.93 827.9 363.21 828.94C360.63 832.7 358.22 836.61 355.27 840.07C332.76 866.4 308.58 891 280.47 911.47C278.98 912.56 277.63 913.66 278.35 915.62C281.27 923.55 282.71 931.91 285.34 941.56C287.73 936.11 289.19 932.04 291.22 928.27C307.69 897.66 331.07 873.98 362.17 858.19C368.06 855.2 374.42 854.22 381 855.08C382.29 855.25 383.89 855.39 384.42 856.75C385.11 858.51 383.29 858.89 382.28 859.56C379.07 861.68 376.6 864.55 373.98 867.3C367.17 874.45 361.41 882.48 354.42 889.51C343.42 900.57 333.16 912.37 321.61 922.97C322.69 922.91 323.56 922.58 324.42 922.25C352 911.8 380.14 907.91 409.22 914.96C410.96 915.38 413.76 914.81 413.91 917.14C414.03 919.14 411.34 919.6 409.67 920.38C404.04 923 398.37 925.55 392.21 928.35C394.72 929.18 397.44 926.87 398.47 929.05C399.65 931.55 396.72 932.88 395.27 934.44C390.5 939.59 385.78 944.81 380.26 949.19C366.09 960.42 350.95 970.18 335.05 978.77C333.2 979.77 331.21 980.58 329.09 983.7C341.48 978.38 353.18 977.39 364.97 976.82C374.39 976.36 382.8 979.88 391.25 983.24C392.6 983.78 394.35 984.63 394.39 986.25C394.44 988.47 392.17 988.52 390.66 989.08C379.27 993.28 368 997.85 356.44 1001.49C339.28 1006.89 322.38 1013.38 304.34 1015.6C292.38 1017.08 292.39 1017.18 294.04 1029.16C294.08 1029.43 294.5 1029.64 294.99 1030.12C311.16 1014.94 330.99 1011.69 352.08 1013.48C358.48 1014.02 364.58 1016.58 370.55 1019.08C373.54 1020.33 374.06 1021.87 371.06 1023.77C363.54 1028.54 356.13 1033.49 347.36 1035.87C332.07 1040.01 316.6 1042.31 300.7 1041.43C292.54 1040.98 292.53 1041.21 291.83 1049.57C291.53 1053.16 291.57 1056.82 290.82 1060.32C287.89 1074.02 285.39 1087.79 280.88 1101.16C274.81 1119.13 266.05 1135.63 255.79 1151.45C254.03 1154.16 252.14 1154.36 249.69 1152.47C243.94 1148.05 249.28 1144.91 251.35 1142.17C262.56 1127.41 269.06 1110.34 275 1093.18C280.89 1076.14 284.03 1058.34 285.78 1040.33C286.18 1036.17 285.21 1034.74 280.91 1034.21C267.35 1032.54 254 1029.85 241.01 1025.33C228.66 1021.03 216.03 1017.51 203.52 1013.66C202.18 1013.25 200.11 1014.12 199.72 1012.06C199.42 1010.44 200.87 1009.35 201.93 1008.28C204.5 1005.66 207.55 1003.78 210.92 1002.38C216.32 1000.14 221.68 997.72 227.78 998.21C213.55 992.78 198.93 989.17 185.74 981.75C183.07 980.24 181.99 979.31 185.68 977.45C190.87 974.85 196.22 973.19 201.96 972.76C208.32 972.28 214.69 971.87 222.11 971.35C219.9 970.42 218.58 969.83 217.24 969.3C207.53 965.47 197.73 961.83 188.13 957.74C184.56 956.22 180.97 955.37 177.21 954.83C175.67 954.61 173.36 955.99 172.72 953.75C172.16 951.77 173.91 950.11 175.39 949.06C178 947.21 180.91 945.78 184.45 943.73C177.36 941.42 171.14 941.59 164.91 941.56C162.03 941.54 157.53 943.58 156.61 940.87C155.53 937.69 159.76 935.37 162.26 933.15C163.24 932.28 164.46 931.68 165.59 930.98C177.33 923.65 190.55 921.63 203.87 922.09C221.45 922.69 238.25 927.29 254.15 935.18C263.08 939.62 271.4 944.93 280.51 952.17C278.06 938.65 276.21 926.88 272.77 915.43C271.96 912.73 270.04 912.6 267.79 913.51C264.45 914.86 261.24 916.79 257.77 917.48C224.57 924.06 192.46 921.61 162.18 905.22C160.54 904.33 158.06 903.82 157.75 901.94C157.31 899.24 161.03 900.08 162.42 897.44C157.84 898.57 153.88 899.57 149.9 900.53C148.28 900.92 146.23 902.21 145.05 900.87C143.55 899.16 145.31 897.31 146.31 895.79C153.81 884.42 164.33 877.06 176.99 872.37C185.66 869.16 194.77 867.59 203.76 867.26C216.6 866.79 229.56 867.89 241.6 873.36C248.53 876.51 255.93 878.57 262.37 883.06C261.4 878.29 259.84 874.22 258.68 870.04C257.63 866.26 255.34 864.37 251.54 863.72C239.17 861.59 226.75 860.33 214.18 861.04C191.64 862.31 169.35 866.39 146.75 867C144.81 867.05 142.18 868.87 141.05 866.51C140.03 864.37 142.51 862.79 143.97 861.47C167.51 840.19 194.64 831.87 226.03 838.68C235.31 840.69 242.98 845.54 250.49 851.3C248.66 845.54 246.16 840.26 244.19 834.8C242.9 831.2 240.87 829.89 237.08 829.78C219.6 829.29 202.41 826.25 185.23 823.31C165.02 819.85 144.87 816 124.4 814.24C122.51 814.08 119.58 815.1 118.95 812.55C118.38 810.27 121.08 809.18 122.67 808C135.41 798.51 149.94 795.12 165.58 795.57C168.38 795.65 171.29 796.14 174.73 794.59C167.5 791.4 161.07 788.58 154.66 785.74C140.24 779.35 128.12 769.63 116.48 759.24C115.4 758.28 113.8 757.14 114.36 755.52C114.97 753.74 116.9 754.24 118.36 754.28C134.24 754.68 149.63 757.9 164.54 763.1C185.39 770.37 204.9 780.34 223.26 794.63C205.26 768.56 188.48 743.04 174.95 715.56C167.33 700.08 159.45 684.68 154.84 667.92C154.47 666.56 153.41 664.87 155.04 663.75C156.38 662.82 157.57 664.05 158.56 664.85C171.32 675.12 183.05 686.41 192.55 699.85C197.73 707.18 202.86 714.55 207.99 721.87C209.53 720.97 209.33 719.69 209.68 718.65C213.51 707.23 218.1 696.24 227.06 687.7C228.41 686.41 229.73 684.46 231.82 685.43C233.58 686.25 233.23 688.39 233.14 690.06C232.23 709.01 232.27 727.96 232.5 746.92C232.71 764.37 232.54 781.83 232.56 799.29C232.56 801.57 232.89 803.79 235.66 806.07C235.3 798.17 237.15 791.28 238.43 784.28C242.25 763.45 252.15 745.77 266.27 730.42C272.58 723.56 280.05 717.85 289.46 715.52C290.71 715.21 292.19 714.6 293.23 715.77C294.36 717.06 293.16 718.3 292.59 719.39C284.63 734.51 280.06 751.12 271.75 766.13C264.02 780.1 256.83 794.36 246.51 806.66C239.23 815.33 239.09 815.2 245.38 824.87C246.73 824.08 246.5 822.59 246.92 821.4C250.29 811.83 254.75 802.82 261.42 795.12C272.19 782.68 284.83 772.42 299.07 764.19C310.11 757.81 322.18 754.65 334.8 753.5C336.35 753.36 338.61 752.9 339.39 754.77C340.06 756.38 338.14 757.37 337.16 758.39C330.82 764.92 324.72 771.76 317.9 777.76C296.8 796.35 275.18 814.31 251.12 829.05C248.8 830.47 247.89 831.96 249.11 834.63C251.62 840.09 253.96 845.63 256.44 851.28C258.62 849.65 258.75 847.17 259.93 845.3C261.24 843.21 262.41 841.04 263.69 838.93C280.4 811.54 302.56 791 334.42 782.61C338.94 781.42 343.44 781.41 347.97 782.22C349.6 782.51 351.69 782.67 352.12 784.63C352.52 786.49 350.45 786.92 349.31 787.76C337.93 796.15 329.3 807.43 318.63 816.65C328.6 811.56 338.76 807.43 349.85 806.09C351.61 805.88 353.92 804.8 355.02 806.99C355.91 808.75 354.15 810.11 353.15 811.43C346.96 819.62 340.23 827.33 332.67 834.35C333.73 835.62 334.47 834.5 335.13 834.13L335.1 834.08ZM294.77 960.71C290.59 963.55 288.97 966.74 290.22 971.73C291.48 976.76 290.79 982.17 293.1 988.5C307.33 968.75 324.79 954.21 345.45 943.14C328.02 947.66 310.07 950.33 294.77 960.71ZM266.28 893.75C265.52 890.8 263.59 890.73 261.08 890.83C242.76 891.59 224.44 892.22 206 893.29C227.73 895.36 249.03 899.34 270.42 908.18C268.86 902.79 267.46 898.3 266.28 893.75ZM298.03 863.25C289.33 869.1 280.65 874.99 271.91 880.78C269.68 882.26 268.94 884.08 269.74 886.59C271.51 892.15 273.29 897.72 275.06 903.28C280.97 888.64 288.36 875.37 298.03 863.25ZM283.58 977.11C284.1 971.37 283.35 966.42 282.61 961.47C282.31 959.47 281.25 958.62 279.2 958.46C271.59 957.88 263.89 958.7 256.21 956.88C266.18 962.27 274.05 970.23 283.58 977.11ZM283.01 844.1C275.84 847.96 268.68 851.77 261.17 854.82C259.24 855.6 258.65 857.02 259.34 858.92C261 863.48 262.72 868.01 264.41 872.56C264.92 872.61 265.43 872.66 265.94 872.7C269.27 861.74 276.3 853.11 283.01 844.1ZM286.04 989.79C285.9 986.78 284.36 985.07 281.1 984.65C275.84 983.98 270.63 982.88 265.07 983.05C272.84 988.89 279.82 994.88 286.2 1003.84C286.15 997.97 286.22 993.87 286.04 989.79ZM237.32 821.56C234.09 806.49 230.79 804.37 211.41 805.36C220.85 809.52 229.21 815.25 237.32 821.56ZM299.75 995.99C292.29 999.25 292.27 999.28 294.4 1008.41C298.97 1003.62 303.56 999.18 308.78 995.55C314 991.92 319.47 988.67 326.12 984.43C316.39 988.7 308.08 992.35 299.76 995.99H299.75ZM265.97 1008.14C273.8 1013.28 279.9 1018.55 286.15 1024.98C287.1 1012.49 282.57 1008.68 265.97 1008.14Z" fill="#9B6F53"/>
<path opacity="0.5" d="M1191.52 773.96C1197.36 775.95 1203.26 775.71 1209.16 774.19C1210.57 773.83 1211.94 773.29 1213.57 772.75C1212.18 776.06 1211.07 779.09 1210.56 782.27C1210.04 785.53 1209.7 788.84 1210.98 792.02C1211.86 794.2 1213.15 794.59 1215.12 793.35C1219.21 790.77 1221.49 786.82 1223.13 782.45C1223.84 780.56 1224.31 778.58 1224.97 776.33C1225.75 777.45 1226.33 778.32 1226.96 779.16C1229.84 783.05 1232.82 786.87 1237.13 789.3C1238.65 790.16 1240.38 791.1 1242.07 789.85C1243.72 788.62 1243.45 786.75 1243.13 784.99C1242.53 781.68 1240.93 778.84 1239.14 776.04C1237.29 773.14 1234.72 770.87 1232.25 768.1C1235.68 768.4 1238.75 768.54 1241.8 768.31C1246.02 767.99 1250.17 767.29 1253.81 764.9C1256.92 762.85 1256.73 760.07 1253.34 758.46C1251.03 757.36 1248.53 756.97 1245.99 756.81C1241.3 756.51 1236.72 757.09 1231.64 758.97C1234.86 755.11 1237.58 751.8 1239.53 747.95C1240.55 745.95 1241.32 743.87 1241.43 741.62C1241.58 738.51 1239.85 737.36 1237.08 738.72C1234.99 739.75 1233.35 741.36 1231.84 743.11C1229.29 746.08 1227.15 749.34 1225.16 752.75C1224.84 744.61 1223.39 736.81 1220.38 729.35C1219.89 728.15 1219.41 725.87 1217.89 726.49C1216.47 727.07 1217.72 729.02 1218.25 730.15C1221.57 737.15 1222.64 744.61 1223.04 752.22C1223.2 755.27 1222.92 758.29 1222.35 761.28C1221.47 761.19 1221.09 760.68 1220.64 760.27C1218.03 757.9 1215.47 755.48 1212.8 753.18C1209.43 750.27 1205.92 747.53 1201.49 746.38C1199.12 745.76 1198.19 746.66 1198.92 748.97C1199.64 751.27 1201.03 753.21 1202.67 754.96C1205.98 758.5 1209.73 761.46 1214.67 763.62C1210.74 764.33 1207.36 764.91 1203.99 765.56C1199.64 766.4 1195.26 767.22 1191.25 769.23C1190.17 769.77 1188.82 770.4 1188.85 771.78C1188.89 773.24 1190.39 773.57 1191.51 773.95L1191.52 773.96ZM1254.14 761.38C1249.19 767.43 1235.54 767.65 1225.06 763.92C1234.55 759.25 1243.94 756.28 1254.14 761.38ZM1226.92 753.62C1229.54 748.6 1233 744.26 1237.54 740.82C1237.95 740.51 1238.36 739.92 1238.9 740.14C1239.61 740.42 1239.38 741.21 1239.36 741.77C1239.26 744.21 1238.25 746.36 1237.13 748.46C1234.3 753.75 1230.42 758.12 1225.55 761.62C1225.19 761.88 1224.81 762.19 1224.14 761.99C1224.32 758.97 1225.55 756.25 1226.92 753.62ZM1240.92 784.75C1241.24 785.94 1241.76 787.68 1240.75 788.37C1239.82 789.01 1238.56 787.7 1237.56 787.06C1229.79 782 1225.38 774.69 1223.25 765.22C1232.29 769.4 1238.4 775.48 1240.92 784.75ZM1221.39 766.3C1223.27 769.99 1223.21 773.72 1222.58 777.39C1221.69 782.59 1219.2 787.02 1215.3 790.61C1214.83 791.04 1214.44 791.9 1213.65 791.6C1212.87 791.3 1212.72 790.47 1212.6 789.69C1211.83 784.78 1212.56 780.07 1214.72 775.63C1216.36 772.26 1218.48 769.18 1221.4 766.3H1221.39ZM1201.28 748.72C1208.68 751.95 1215.14 756.43 1220.04 763.04C1211.79 760.92 1205.13 756.68 1201.28 748.72ZM1218.4 765.54C1215.87 772.1 1199.87 775.77 1191.4 771.63C1200.06 767.4 1209.08 766.02 1218.4 765.54Z" fill="#A0A98A"/>
<path opacity="0.3" d="M1359.21 701.3C1355.35 691.22 1354.07 680.32 1352.03 669.55C1350.03 658.94 1349 648.4 1350.29 637.41C1351.57 626.53 1355.11 616.48 1360.59 606.72C1366.18 596.77 1372.01 587.19 1381.54 581.11C1391.68 574.63 1403.63 571.34 1413.43 564.23C1422.63 557.56 1429.03 547.27 1431.43 535.87C1433.24 527.29 1434.75 518.49 1434.04 510.05C1433.39 502.29 1431.41 493.88 1435.65 486.61C1441.06 477.31 1451.84 472.59 1461.35 472.77C1472.35 472.98 1482.18 479.23 1490.63 485.86C1492.75 487.53 1496.5 487.46 1498.32 489.46C1498.74 489.93 1498.28 490.48 1497.86 490C1490.65 481.88 1481.49 474.31 1470.78 472.04C1461.18 470.01 1450.37 473.83 1441.56 480.08C1425.53 491.45 1429.19 511.4 1428.89 527.02C1428.81 531.49 1429.63 535.59 1427.95 539.86C1425.71 545.56 1423.28 551.65 1418.75 555.69C1409.43 563.98 1396.91 566.99 1386.18 572.74C1380.73 575.66 1374.3 577.88 1369.52 581.94C1365.11 585.69 1361.61 591.21 1358.26 595.96C1351.43 605.64 1350.19 617.85 1347.83 629.26C1343.1 652.07 1345.31 674.78 1353.23 695.23C1354.21 697.76 1353.71 701.15 1354.85 703.6C1355.64 705.29 1359.88 703.08 1359.21 701.32V701.3Z" fill="#9B6F53"/>
<path opacity="0.3" d="M1391.94 556.02C1402.05 549.62 1408.18 538.29 1409.8 526.61C1411.26 516.1 1410.79 505.84 1412.25 495.34C1412.99 490 1414.42 484.95 1417.9 480.64C1421.96 475.61 1427.57 472.57 1433.34 470.19C1444.27 465.68 1456.24 462.26 1467.65 462.45C1479.06 462.64 1489.65 467.2 1500.01 471.42C1501.28 471.94 1503.39 470.66 1504.63 471.24C1504.65 471.24 1503.93 472.62 1503.92 472.61C1494.13 467.56 1483.88 462.6 1472.69 461.76C1461.36 460.9 1449.67 464.2 1438.5 467.71C1427.51 471.17 1416.42 476.88 1412.44 488.75C1409.01 498.97 1411.18 509.61 1410.92 519.93C1410.78 525.77 1410.35 531.93 1407.99 537.46C1405.44 543.45 1401.25 549.45 1396.33 553.71C1395.11 554.77 1393.35 555.22 1392.05 556.17C1391.71 556.42 1391.59 556.25 1391.95 556.02H1391.94Z" fill="#9B6F53"/>
<path opacity="0.3" d="M1279.31 809.85C1278.8 801.12 1277.94 792.45 1277.55 783.71C1277.16 775.04 1277.01 766.35 1277.18 757.63C1277.52 740.19 1279.03 722.67 1282.22 705.31C1285.39 688.06 1290.32 671.05 1297.31 654.74C1304.31 638.42 1313.41 622.83 1324.45 608.82C1329.89 601.91 1335.84 595.39 1342.22 589.38C1348.67 583.31 1355.61 577.54 1362.97 572.73C1364.79 571.54 1366.63 570.4 1368.49 569.3C1368.87 569.07 1368.63 568.47 1368.24 568.68C1360.49 572.83 1353.04 577.58 1346.07 583.09C1339.06 588.64 1332.54 594.82 1326.53 601.51C1314.39 615.02 1304.41 630.33 1296.46 646.62C1288.47 662.99 1282.8 680.25 1278.91 697.83C1275.02 715.37 1273.03 733.15 1272.36 750.88C1271.68 768.77 1272.37 786.61 1273.87 804.27C1274.06 806.48 1274.27 808.67 1274.56 810.85C1274.98 813.98 1279.49 812.95 1279.31 809.85Z" fill="#9B6F53"/>
<g opacity="0.3">
<path d="M30.7 657.41C27.32 660.5 27.98 664.48 32.18 666.31C35.01 667.54 37.88 667.52 40.81 666.58C43.36 665.76 45.55 664.25 48.14 662.78C47.77 663.99 47.45 664.87 47.24 665.77C46.38 669.49 46.18 673.16 48.42 676.54C50.19 679.21 53.28 679.77 55.87 677.88C58.02 676.31 59.07 674.05 59.55 671.52C59.89 669.72 60.08 667.9 60.42 665.54C60.88 666.62 61.09 667.16 61.34 667.69C62.97 671.16 65.17 674.1 68.93 675.45C73.64 677.14 77 674.31 76.13 669.39C75.59 666.38 73.87 664 71.83 661.82C70.18 660.05 68.56 658.25 67.15 656.7C68.1 656.96 69.48 657.41 70.89 657.69C74.67 658.42 78.33 658.26 81.56 655.86C83.14 654.68 84.05 653.1 83.42 651.12C82.81 649.2 81.55 647.75 79.35 647.64C77.62 647.55 75.89 647.64 74.16 647.64C70.44 648.27 66.73 648.91 63.01 649.54L62.86 648.81C65.93 648.24 68.99 647.67 72.06 647.1C75.47 646 78.28 644.08 80.13 640.94C82.21 637.41 80.6 634.33 76.48 633.93C73.28 633.62 70.76 635.09 68.54 637.13C67.06 638.49 65.77 640.05 63.97 641.96C65.36 638.07 66.6 634.75 66.4 631.12C66.23 628.07 64.96 625.84 63.11 625.49C61.13 625.12 59.39 626.57 58.29 629.7C57.86 630.91 57.55 632.2 57.4 633.47C57.1 636.04 56.95 638.63 56.7 641.73C55.77 638.03 55.3 634.7 53.85 631.64C52.72 629.26 51.4 627.03 49.2 625.51C45.75 623.11 42.28 624.77 41.97 628.93C41.82 630.96 42.31 632.86 43.15 634.72C44.22 637.08 46 638.95 47.94 641.63C46.58 640.84 45.87 640.41 45.15 640.02C42.54 638.59 39.83 637.46 36.77 637.65C34.4 637.8 32.33 638.53 31.3 640.91C30.26 643.3 31.17 645.3 32.68 647.12C34.64 649.5 37.29 650.71 40.23 651.38C41.53 651.68 42.85 651.94 44.58 652.31C41.59 653.05 39.08 653.6 36.61 654.29C34.43 654.9 32.39 655.87 30.7 657.42V657.41ZM77.72 648.92C79.8 648.88 81.35 649.57 81.83 651.65C82.33 653.84 80.7 654.69 79.04 655.42C74 657.66 67.27 656.12 62.88 651.5C68.01 650.42 72.74 649.02 77.72 648.92ZM63.26 655.73C66.83 659.01 70.28 662.43 72.97 666.5C74.85 669.34 74.83 671.69 73.22 673.4C72.36 674.31 71.51 674.61 70.23 674.21C66.74 673.1 64.56 670.69 63.08 667.5C61.54 664.16 60.82 660.61 60.66 656.86C60.75 656.12 60.24 655.01 61.16 654.57C62.12 654.11 62.66 655.18 63.26 655.74V655.73ZM73.17 636.22C74.74 635.37 76.78 634.78 78.14 636.5C79.62 638.38 78.8 640.34 77.32 641.89C73.34 646.06 68.04 646.85 62.58 647.38C65.14 642.64 68.49 638.75 73.17 636.22ZM60.32 628.98C60.61 627.87 61.27 627.4 62.32 627.32C63.36 627.24 63.81 627.92 64.26 628.73C65.09 630.22 64.85 631.79 64.63 633.3C63.98 637.73 62.19 641.72 59.44 645.85C58 639.75 58.9 634.35 60.32 628.98ZM57.38 653.47C58.38 659.03 58.92 664.1 58.34 669.22C58.04 671.86 57.03 674.19 55.19 676.19C53.94 677.56 52.72 677.55 51.28 676.7C49.4 675.59 48.52 673.91 48.42 671.77C48.27 668.38 49.17 665.26 50.79 662.33C52.51 659.23 54.63 656.42 57.37 653.47H57.38ZM44.12 631.83C43.6 630.07 42.97 627.51 45.14 626.44C47.53 625.25 49.17 627.25 50.47 628.99C53.47 632.98 54.35 637.78 55.27 642.52C55.54 643.91 56.13 645.31 55.7 647.22C50.58 642.8 46.02 638.28 44.12 631.83ZM34.63 646.72C33.25 645.67 31.82 644.39 32.54 642.4C33.28 640.36 34.94 639.29 37.15 639.3C38 639.3 38.89 639.38 39.68 639.66C44.63 641.37 48.97 644.16 52.93 647.54C53.37 647.92 54 648.52 53.94 648.93C53.82 649.78 52.86 649.56 52.22 649.64C50.34 649.88 48.45 650.05 46.57 650.25C42.19 650.36 38.14 649.39 34.63 646.72ZM56.26 651.45C50.82 657.28 46.51 663.25 39.04 665.32C36.29 666.08 33.7 665.81 31.64 663.61C30.01 661.87 30.11 660.27 31.86 658.67C33.16 657.47 34.79 656.86 36.43 656.29C42.65 654.12 49.22 653.45 56.27 651.46L56.26 651.45Z" fill="#9B6F53"/>
<path d="M74.16 647.64C73.5 647.3 72.6 647.92 72.06 647.1C71.36 647.56 70.62 647.83 69.87 648.01C71.28 647.83 72.72 647.68 74.16 647.64Z" fill="#9B6F53"/>
<path d="M64.47 648.81C65.45 648.67 66.44 648.51 67.46 648.36C66.43 648.45 65.41 648.53 64.47 648.81Z" fill="#9B6F53"/>
</g>
<g opacity="0.3">
<path d="M789.61 773.84C786.23 776.93 786.89 780.91 791.09 782.74C793.92 783.97 796.79 783.95 799.72 783.01C802.27 782.19 804.46 780.68 807.05 779.21C806.68 780.42 806.36 781.3 806.15 782.2C805.29 785.92 805.09 789.59 807.33 792.97C809.1 795.64 812.19 796.2 814.78 794.31C816.93 792.74 817.98 790.48 818.46 787.95C818.8 786.15 818.99 784.33 819.33 781.97C819.79 783.05 820 783.59 820.25 784.12C821.88 787.59 824.08 790.53 827.84 791.88C832.55 793.57 835.91 790.74 835.04 785.82C834.5 782.81 832.78 780.43 830.74 778.25C829.09 776.48 827.47 774.68 826.06 773.13C827.01 773.39 828.39 773.84 829.8 774.12C833.58 774.85 837.24 774.69 840.47 772.29C842.05 771.11 842.96 769.53 842.33 767.55C841.72 765.63 840.46 764.18 838.26 764.07C836.53 763.98 834.8 764.07 833.07 764.07C829.35 764.7 825.64 765.34 821.92 765.97L821.77 765.24C824.84 764.67 827.9 764.1 830.97 763.53C834.38 762.43 837.19 760.51 839.04 757.37C841.12 753.84 839.51 750.76 835.39 750.36C832.19 750.05 829.67 751.52 827.45 753.56C825.97 754.92 824.68 756.48 822.88 758.39C824.27 754.5 825.51 751.18 825.31 747.55C825.14 744.5 823.87 742.27 822.02 741.92C820.04 741.55 818.3 743 817.2 746.13C816.77 747.34 816.46 748.63 816.31 749.9C816.01 752.47 815.86 755.06 815.61 758.16C814.68 754.46 814.21 751.13 812.76 748.07C811.63 745.69 810.31 743.46 808.11 741.94C804.66 739.54 801.19 741.2 800.88 745.36C800.73 747.39 801.22 749.29 802.06 751.15C803.13 753.51 804.91 755.38 806.85 758.06C805.49 757.27 804.78 756.84 804.06 756.45C801.45 755.02 798.74 753.89 795.68 754.08C793.31 754.23 791.24 754.96 790.21 757.34C789.17 759.73 790.08 761.73 791.59 763.55C793.55 765.93 796.2 767.14 799.14 767.81C800.44 768.11 801.76 768.37 803.49 768.74C800.5 769.48 797.99 770.03 795.52 770.72C793.34 771.33 791.3 772.3 789.61 773.85V773.84ZM836.63 765.35C838.71 765.31 840.26 766 840.74 768.08C841.24 770.27 839.61 771.12 837.95 771.85C832.91 774.09 826.18 772.55 821.79 767.93C826.92 766.85 831.65 765.45 836.63 765.35ZM822.17 772.16C825.74 775.44 829.19 778.86 831.88 782.93C833.76 785.77 833.74 788.12 832.13 789.83C831.27 790.74 830.42 791.04 829.14 790.64C825.65 789.53 823.47 787.12 821.99 783.93C820.45 780.59 819.73 777.04 819.57 773.29C819.66 772.55 819.15 771.44 820.07 771C821.03 770.54 821.57 771.61 822.17 772.17V772.16ZM832.08 752.65C833.65 751.8 835.69 751.21 837.05 752.93C838.53 754.81 837.71 756.77 836.23 758.32C832.25 762.49 826.95 763.28 821.49 763.81C824.05 759.07 827.4 755.18 832.08 752.65ZM819.23 745.41C819.52 744.3 820.18 743.83 821.23 743.75C822.27 743.67 822.72 744.35 823.17 745.16C824 746.65 823.76 748.22 823.54 749.73C822.89 754.16 821.1 758.15 818.35 762.28C816.91 756.18 817.81 750.78 819.23 745.41ZM816.29 769.9C817.29 775.46 817.83 780.53 817.25 785.65C816.95 788.29 815.94 790.62 814.1 792.62C812.85 793.99 811.63 793.98 810.19 793.13C808.31 792.02 807.43 790.34 807.33 788.2C807.18 784.81 808.08 781.69 809.7 778.76C811.42 775.66 813.54 772.85 816.28 769.9H816.29ZM803.03 748.26C802.51 746.5 801.88 743.94 804.05 742.87C806.44 741.68 808.08 743.68 809.38 745.42C812.38 749.41 813.26 754.21 814.18 758.95C814.45 760.34 815.04 761.74 814.61 763.65C809.49 759.23 804.93 754.71 803.03 748.26ZM793.54 763.15C792.16 762.1 790.73 760.82 791.45 758.83C792.19 756.79 793.85 755.72 796.06 755.73C796.91 755.73 797.8 755.81 798.59 756.09C803.54 757.8 807.88 760.59 811.84 763.97C812.28 764.35 812.91 764.95 812.85 765.36C812.73 766.21 811.77 765.99 811.13 766.07C809.25 766.31 807.36 766.48 805.48 766.68C801.1 766.79 797.05 765.82 793.54 763.15ZM815.17 767.88C809.73 773.71 805.42 779.68 797.95 781.75C795.2 782.51 792.61 782.24 790.55 780.04C788.92 778.3 789.02 776.7 790.77 775.1C792.07 773.9 793.7 773.29 795.34 772.72C801.56 770.55 808.13 769.88 815.18 767.89L815.17 767.88Z" fill="#9B6F53"/>
<path d="M833.06 764.07C832.4 763.73 831.5 764.35 830.96 763.53C830.26 763.99 829.52 764.26 828.77 764.44C830.18 764.26 831.62 764.11 833.06 764.07Z" fill="#9B6F53"/>
<path d="M823.37 765.24C824.35 765.1 825.34 764.94 826.36 764.79C825.33 764.88 824.31 764.96 823.37 765.24Z" fill="#9B6F53"/>
</g>
<path opacity="0.5" d="M101.99 694.63C101.9 694.65 101.8 694.65 101.7 694.69C84.98 701.94 68.37 709.45 51.88 717.2C37.26 724.07 22.6001 731.75 11.05 743.27C-7.70995 762 -15.75 790.36 -9.73996 816.18C-6.54996 829.87 1.79005 843.99 13.5701 852.51C10.1801 865.21 7.45006 878.08 5.46005 891.07C2.58005 909.89 1.35004 928.89 1.62004 947.91C-2.54996 936.47 -6.63995 925 -10.53 913.48C-27.25 864.01 -40.71 813.08 -47.08 761.22C-38.59 762.23 -29.85 761.06 -21.61 757.17C2.88005 745.62 13.6701 717.55 8.96005 691.8C2.78006 658 -25.16 633.86 -40.28 604.21C-40.3199 604.07 -40.3999 603.95 -40.4799 603.84C-41.4899 603.94 -42.49 604.07 -43.5 604.23C-43.5 604.34 -43.5099 604.44 -43.4799 604.56C-65.59 620.56 -85.43 643.45 -94.04 669.58C-101.79 693.12 -100.59 721.17 -84.02 740.77C-75.61 750.72 -63.99 757.88 -51.55 760.48C-50.17 772.6 -48.38 784.67 -46.25 796.68C-40.56 828.67 -32.47 860.25 -22.81 891.37C-40.5999 879.74 -57.97 867.2 -74.02 853.3C-71.08 850.38 -68.59 846.99 -66.67 843.3C-55.84 822.5 -63.2 799.23 -77.9299 782.48C-97.5199 760.2 -126.19 749.69 -149.88 732.77C-151.14 731.87 -152.48 733.13 -152.34 734.32C-160.66 757 -165.62 781.72 -158.92 805.49C-152.74 827.4 -137.76 848.36 -116.88 858.33C-107.75 862.69 -97.2 864.56 -87.38 861.52C-83.7599 860.4 -80.47 858.62 -77.52 856.37C-71.99 861.3 -66.3 866.04 -60.46 870.59C-48 880.28 -34.9599 889.36 -21.3999 897.46C-21.2099 897.57 -21.02 897.61 -20.83 897.66C-9.47995 933.38 3.87006 968.5 18.0201 1002.98C24 1017.54 30.3 1031.97 37.08 1046.17C31.87 1042.82 26.4601 1039.73 21.14 1036.62C13.64 1032.22 6.08005 1027.93 -1.53995 1023.75C-13.4799 1017.19 -25.55 1010.85 -37.77 1004.82C-35.27 995.53 -36.44 985.43 -40.03 976.33C-50.09 950.83 -75.6799 934.96 -101.49 929.15C-136.64 921.23 -172.61 931.44 -206.14 941.68C-207.63 942.13 -206.99 944.59 -205.6 944.54C-205.51 944.66 -205.41 944.77 -205.31 944.9C-204.77 945.58 -204.21 946.24 -203.68 946.92C-202.68 948.19 -201.7 949.48 -200.76 950.8C-199.81 952.14 -198.89 953.51 -198.03 954.91C-197.62 955.57 -197.23 956.26 -196.82 956.92C-196.53 957.39 -196.21 957.97 -195.77 958.34C-190.31 967.67 -185.15 977.16 -179.7 986.54C-172.01 999.75 -163.25 1012.67 -151.13 1022.23C-130.32 1038.65 -101.3 1044.24 -75.83 1036.99C-62.96 1033.33 -49.84 1026.42 -42.2899 1014.99C-41.0799 1013.16 -40.14 1011.23 -39.32 1009.27C-29.15 1014.33 -19.03 1019.5 -9.03995 1024.91C-0.189941 1029.71 8.58005 1034.64 17.2701 1039.72C25.06 1044.27 32.66 1049.22 40.6301 1053.45C41.5401 1055.3 42.4201 1057.16 43.3501 1059C52.4601 1077.03 62.07 1095.58 74.44 1111.62C75.65 1113.19 78.47 1111.5 77.45 1109.72C73.75 1103.25 69.94 1096.87 66.15 1090.48C66.15 1090.43 66.17 1090.39 66.17 1090.33C63.4001 1061.24 64.85 1032.18 69.7 1003.44C79.98 1007.21 91.6 1006.74 101.94 1000.34C121.99 987.92 128.97 963.14 129.14 940.88C129.24 927.95 127.45 915.09 125.27 902.37C122.38 885.47 119.25 868.61 116.25 851.73C116.04 850.56 114.74 850.42 114.05 850.99C113.69 850.69 113.15 850.56 112.64 850.89C100.7 858.6 90.15 868.35 80.46 878.71C71.16 888.66 62.55 899.4 55.38 911C42.43 931.93 34.31 959.04 46.15 982.36C50.54 991.01 57.62 997.78 65.84 1001.8C63.73 1013.63 62.17 1025.55 61.27 1037.55C60.15 1052.57 60.13 1067.69 61.56 1082.68C57.68 1076.04 53.86 1069.35 50.31 1062.49C42.05 1046.54 34.53 1030.21 27.4901 1013.69C19.2101 994.26 11.47 974.57 4.12004 954.74C4.87004 954.56 5.49004 954.03 5.48004 953.14C4.84004 919.91 8.88004 886.83 17.18 854.87C23.49 858.59 30.64 860.72 38.41 860.45C53.04 859.94 65.93 850.39 75.12 839.65C84.17 829.07 90.18 816.13 94.08 802.84C104.28 768 99.82 731 104.53 695.35C104.74 693.77 102.62 693.43 101.98 694.62L101.99 694.63ZM-11.81 746.9C-22.3199 755.93 -35.11 759.23 -47.5 757.66C-48.03 753.11 -48.49 748.54 -48.91 743.98C-42.52 738.41 -35.3799 734.05 -27.0399 731.94C-22.5799 730.81 -17.96 730.25 -13.35 730.39C-8.82996 730.52 -4.60995 731.61 -0.199951 732.45C-3.06995 737.77 -6.87996 742.68 -11.8 746.91L-11.81 746.9ZM0.620041 730.89C0.620041 730.89 0.550034 730.83 0.51004 730.81C-7.93996 726.78 -19.36 727.51 -28.1499 729.93C-35.86 732.06 -43.43 735.92 -49.11 741.65C-49.99 731.69 -50.61 721.7 -50.8999 711.69C-44.61 703.23 -37.29 696.25 -27.49 691.82C-22.5 689.57 -17.1899 688.04 -11.7599 687.34C-6.18994 686.62 -0.999954 687.3 4.50005 687.75C7.97005 702.3 7.13005 717.79 0.610046 730.89H0.620041ZM-8.23996 658.96C-5.15996 663.96 -2.31995 669.11 0.0700531 674.52C1.60005 677.98 2.87004 681.57 3.87004 685.24C-6.52995 682.61 -19.05 685.37 -28.46 689.69C-37.2 693.71 -45.68 700.12 -50.96 708.39C-51.19 697.99 -51.04 687.57 -50.58 677.17C-40.07 664.73 -25.0699 656.9 -8.38995 658.97C-8.33995 658.97 -8.29996 658.96 -8.24995 658.96H-8.23996ZM-23.2 637.07C-18.61 643.48 -13.99 649.86 -9.77995 656.49C-24.91 655.21 -41.66 661.72 -50.45 674.39C-50.16 668.7 -49.81 663.02 -49.2899 657.35C-48.7999 651.91 -48.11 646.52 -47.35 641.14C-44.03 638.95 -40.31 637.24 -36.41 636.49C-34.24 636.08 -32.03 635.91 -29.83 636.03C-27.57 636.16 -25.44 636.83 -23.21 637.07H-23.2ZM-42 607.69C-37.25 617.03 -31.33 625.66 -25.2599 634.2C-26.6199 633.87 -28.0399 633.71 -29.39 633.62C-31.86 633.47 -34.3699 633.63 -36.7899 634.14C-40.5099 634.91 -44 636.37 -46.9799 638.62C-45.4599 628.29 -43.66 618.02 -42 607.7V607.69ZM-43.94 608.38C-46.81 618.23 -48.7 628.44 -50.19 638.64C-52.18 636.33 -54.5999 634.29 -57.0099 632.58C-58.6499 631.42 -60.3799 630.39 -62.2 629.53C-62.9899 629.15 -63.81 628.81 -64.63 628.49C-58.11 621.42 -51.03 614.91 -43.94 608.37V608.38ZM-72.6799 637.94C-70.4699 635.08 -68.14 632.34 -65.7299 629.68C-65.7 629.69 -65.67 629.71 -65.63 629.72C-64.68 630.15 -63.74 630.59 -62.83 631.08C-61.13 632 -59.47 633.02 -57.91 634.15C-55.08 636.2 -52.8 638.65 -50.58 641.27C-51.03 644.51 -51.46 647.76 -51.85 650.98C-52.8 658.81 -53.52 666.66 -54.03 674.52C-55.4599 672.67 -57.1299 670.96 -58.7299 669.38C-61.19 666.95 -63.8699 664.74 -66.72 662.77C-71.84 659.23 -77.61 656.37 -83.66 654.77C-80.49 648.87 -76.7899 643.24 -72.6799 637.93V637.94ZM-92.23 676.16C-90.39 669.21 -87.73 662.55 -84.44 656.21C-78.58 658.29 -72.9799 660.8 -67.8699 664.41C-65.1199 666.35 -62.52 668.53 -60.13 670.91C-57.97 673.06 -56.2 675.5 -54.2 677.76C-54.61 684.97 -54.86 692.18 -54.92 699.4C-54.94 702.51 -54.92 705.62 -54.88 708.73C-55.24 708.35 -55.5999 707.99 -55.92 707.64C-57.45 705.95 -59.07 704.34 -60.74 702.79C-64.07 699.71 -67.67 696.92 -71.4799 694.46C-78.2699 690.07 -85.9799 686.33 -93.96 684.61C-93.51 681.77 -92.96 678.94 -92.23 676.16ZM-94.21 686.2C-86.53 688.79 -79.16 691.72 -72.32 696.24C-68.68 698.65 -65.2399 701.35 -62.06 704.33C-60.4799 705.81 -58.9599 707.36 -57.5099 708.97C-56.6299 709.94 -55.81 711.21 -54.82 712.17C-54.62 721.82 -54.14 731.46 -53.39 741.09C-57.31 735.52 -62.7099 730.84 -68.4299 727.36C-75.06 723.33 -83.38 720.05 -91.32 720.18C-95 709.44 -95.8 697.68 -94.22 686.2H-94.21ZM-76.41 743.67C-83.01 737.39 -87.69 729.91 -90.72 721.8C-87.28 722.45 -83.86 723.05 -80.5 724.17C-76.55 725.49 -72.74 727.29 -69.21 729.5C-62.54 733.68 -57.44 739.25 -52.99 745.62C-52.66 749.37 -52.3299 753.12 -51.9299 756.86C-60.81 754.88 -69.32 750.4 -76.41 743.66V743.67ZM-71.78 796.73C-84.95 804 -94.59 818.39 -94.79 833.59C-100.88 827.23 -106.66 820.59 -112.07 813.64C-112.07 813.6 -112.02 813.58 -112.02 813.53C-111.96 809.55 -112 805.67 -111.27 801.73C-110.55 797.83 -109.28 794.04 -107.56 790.47C-104.16 783.44 -98.88 777.43 -92.36 773.14C-84.38 779.67 -76.95 787.68 -71.7899 796.72L-71.78 796.73ZM-94 771.84C-100.53 776.22 -105.73 782.24 -109.23 789.3C-112.44 795.79 -114.69 803.97 -113.79 811.39C-119.92 803.3 -125.56 794.8 -130.56 785.8C-130.27 783.45 -130.13 781.09 -129.55 778.76C-128.83 775.87 -127.72 773.07 -126.25 770.48C-123.38 765.42 -119.21 761.16 -114.16 758.26C-107.2 762.41 -100.39 766.8 -94 771.83V771.84ZM-115.92 757.22C-120.89 760.24 -125.02 764.51 -127.83 769.63C-129.31 772.32 -130.45 775.18 -131.18 778.16C-131.57 779.75 -131.89 781.48 -132.01 783.2C-132.92 781.51 -133.81 779.8 -134.67 778.07C-136.88 773.64 -138.87 769.1 -140.76 764.52C-140.16 757.95 -136.76 752.24 -131.56 748.18C-126.36 751.21 -121.11 754.17 -115.93 757.23L-115.92 757.22ZM-149.98 736.55C-144.47 740.45 -138.71 743.97 -132.89 747.39C-137.58 750.66 -140.76 755.9 -141.95 761.49C-142.56 759.93 -143.23 758.39 -143.8 756.81C-146.21 750.15 -147.98 743.32 -149.98 736.55ZM-150.94 738.39C-149.61 746.73 -147.01 755.06 -143.93 763.05C-147.63 760.77 -151.88 759.05 -156.13 758.61C-154.76 751.83 -152.95 745.08 -150.94 738.38V738.39ZM-156.43 760.07C-153.91 760.64 -151.46 761.2 -149.06 762.21C-146.87 763.13 -144.83 764.34 -142.9 765.71C-141.79 768.48 -140.63 771.21 -139.45 773.88C-137.81 777.58 -136.03 781.21 -134.18 784.81C-137.9 782.79 -142.05 781.58 -146.28 781.27C-150.39 780.97 -154.88 781.42 -158.72 783.13C-158.77 775.43 -157.92 767.73 -156.44 760.07H-156.43ZM-154.09 810.31C-157.17 801.75 -158.53 793.14 -158.71 784.54C-154.7 783.47 -150.69 782.74 -146.45 783.13C-141.33 783.6 -136.46 785.43 -132.3 788.44C-132.26 788.47 -132.22 788.47 -132.17 788.5C-128.02 796.17 -123.46 803.62 -118.48 810.77C-118.27 811.07 -118.05 811.35 -117.85 811.65C-122.97 809.47 -128.54 808.29 -134.07 808.22C-140.34 808.14 -147.63 809.12 -153.36 812.19C-153.6 811.56 -153.86 810.94 -154.09 810.31ZM-152.83 813.57C-150.21 812.61 -147.63 811.64 -144.86 811.07C-141.28 810.33 -137.64 810.05 -133.99 810.25C-127.27 810.61 -120.88 812.45 -114.99 815.62C-109.94 822.48 -104.52 829.04 -98.79 835.33C-110.88 833.97 -123.77 835.87 -134.33 841.94C-142.35 833.84 -148.66 823.85 -152.82 813.57H-152.83ZM-80.82 854.84C-89.59 860.77 -100.62 860.9 -110.38 857.53C-119.16 854.49 -127.01 849.21 -133.7 842.61C-121.76 837.98 -109.45 835.71 -96.67 837.64C-91.33 843.38 -85.75 848.89 -79.95 854.17C-80.25 854.39 -80.52 854.64 -80.83 854.85L-80.82 854.84ZM-93.58 834.79C-92.12 819.8 -84.2 805.81 -70.78 798.46C-65.61 808.19 -63.15 819.06 -65.52 830.52C-67.1 838.2 -70.7899 845.67 -76.4299 851.19C-82.3699 845.94 -88.08 840.47 -93.58 834.79ZM-55.3 958.31C-61.03 969.99 -61.64 985.09 -55.13 996.58C-65.06 991.98 -75.07 987.54 -85.15 983.28C-85.09 983.08 -85.09 982.86 -85.23 982.64C-90.56 974.3 -96.6799 966.55 -100.84 957.5C-104.57 949.38 -106.63 940.55 -105.75 931.6C-86.77 935.17 -68.18 943.94 -55.3 958.3V958.31ZM-116.26 930.14C-113.51 930.38 -110.74 930.76 -107.98 931.22C-110.2 950.18 -99.43 968.41 -87.39 982.32C-102.46 976.02 -117.68 970.08 -133.07 964.6C-137.18 960.11 -140.77 955.11 -143.36 949.59C-146.14 943.68 -147.59 937.47 -148.61 931.08C-137.89 929.69 -127.09 929.19 -116.25 930.15L-116.26 930.14ZM-150.04 931.26C-149.75 942.95 -144.35 954.82 -136.34 963.45C-140.53 961.98 -144.7 960.43 -148.91 959.03C-154.06 957.31 -159.25 955.61 -164.45 953.94C-164.47 953.22 -164.73 952.49 -165.19 951.85C-165.83 950.95 -166.68 950.21 -167.4 949.37C-168.16 948.48 -168.84 947.55 -169.5 946.59C-171.8 943.26 -173.34 939.74 -173.92 935.83C-166.02 933.93 -158.05 932.36 -150.04 931.27V931.26ZM-202.14 943.58C-193.12 940.89 -183.98 938.26 -174.74 936.02C-174.17 939.23 -173.23 942.4 -171.83 945.32C-170.93 947.22 -169.78 948.92 -168.41 950.51C-167.73 951.3 -166.56 952.37 -166.19 953.39C-178.03 949.63 -189.99 946.15 -202.1 943.62L-202.14 943.58ZM-200.67 945.41C-190.09 949.11 -179.38 952.47 -168.72 955.96C-169.96 956.33 -171.28 956.56 -172.49 956.97C-174.41 957.63 -176.26 958.48 -178.01 959.5C-181.29 961.41 -184.43 963.93 -186.56 967.1C-190.86 959.57 -195.37 952.19 -200.68 945.4L-200.67 945.41ZM-185.94 968.18C-185.94 968.18 -185.92 968.18 -185.91 968.17C-182.77 964.98 -179.59 962.04 -175.53 960.03C-173.43 958.99 -171.24 958.23 -168.97 957.68C-168.09 957.47 -167.13 957.2 -166.29 956.75C-162.62 957.96 -158.96 959.19 -155.31 960.47C-148.4 962.89 -141.53 965.42 -134.68 967.97C-148.97 972.4 -162.98 982.09 -170.13 995.36C-175.82 986.64 -180.75 977.32 -185.93 968.18H-185.94ZM-145.5 1022.11C-155.35 1015.2 -162.77 1006.41 -169.18 996.81C-164.55 990.46 -159.71 984.6 -153.32 979.83C-146.7 974.89 -139.12 971.3 -131.12 969.25C-122.45 972.51 -113.82 975.88 -105.25 979.37C-100.08 981.48 -94.92 983.64 -89.78 985.85C-100.05 989.45 -109.83 994.26 -118.86 1000.35C-127.97 1006.49 -137.39 1014.09 -143.99 1023.08C-144.49 1022.75 -145.01 1022.44 -145.5 1022.09V1022.11ZM-142.46 1024.1C-138.97 1020.58 -135.65 1016.92 -131.94 1013.6C-127.48 1009.62 -122.76 1005.93 -117.81 1002.58C-108.13 996.04 -97.55 990.97 -86.47 987.31C-76.61 991.59 -66.84 996.1 -57.1199 1000.7C-64.84 1003.51 -72.0399 1007.87 -78.2 1013.25C-85.27 1019.43 -92.06 1027.62 -95.25 1036.6C-111.76 1037.24 -128.52 1032.91 -142.46 1024.09V1024.1ZM-71.95 1032.18C-78.7599 1034.62 -85.9 1036.02 -93.11 1036.5C-88.57 1028.49 -83.79 1021.2 -76.72 1015.03C-70.05 1009.21 -62.4099 1005.04 -54.1199 1002.14C-50.19 1004.02 -46.23 1005.86 -42.32 1007.79C-47.47 1020.04 -59.86 1027.85 -71.95 1032.19V1032.18ZM-49.08 999.35C-50.28 998.78 -51.51 998.25 -52.71 997.68C-55.44 991.59 -57.31 985.15 -57.4299 978.43C-57.5399 972.16 -56.17 965.99 -53.59 960.3C-52.1199 962.06 -50.7199 963.88 -49.4299 965.81C-42.25 976.52 -37.52 990.51 -40.81 1003.35C-43.56 1002.01 -46.31 1000.66 -49.07 999.35H-49.08ZM111.5 987.48C103.67 997.06 91.98 1003.96 79.28 1002.58C76.17 1002.24 73.16 1001.42 70.26 1000.27C70.53 998.72 70.7701 997.18 71.07 995.63C71.76 992.04 72.5 988.46 73.28 984.88C79.75 981.92 86.4 979.63 93.53 978.84C97.36 978.42 101.22 978.4 105.05 978.77C108.83 979.14 112.4 980.1 116.08 980.95C114.73 983.21 113.21 985.39 111.5 987.48ZM117.11 979.09C117.02 979 116.91 978.93 116.78 978.88C109.52 976.07 100.83 975.79 93.18 976.68C86.45 977.46 79.67 979.37 73.75 982.74C75.79 973.59 78.12 964.51 80.66 955.48C86 949.89 92.3 945.59 99.93 943.49C108.3 941.19 117.25 941.62 125.21 945.15C125.39 945.23 125.56 945.26 125.71 945.25C125.13 957.08 122.76 968.81 117.11 979.08V979.09ZM125.31 925.94C125.78 931.49 125.96 937.19 125.79 942.9C111.77 936.8 92.32 939.89 81.78 951.54C84.74 941.25 87.98 931.04 91.37 920.88C95.53 917.78 99.96 915.22 105.08 913.83C111.19 912.17 117.68 912.07 123.81 913.67C123.88 913.69 123.95 913.67 124.01 913.68C124.51 917.76 124.97 921.85 125.31 925.95V925.94ZM123.75 911.63C113.43 909.12 100.91 911.09 92.37 917.87C93.92 913.27 95.4901 908.68 97.1 904.1C98.89 899 100.72 893.91 102.56 888.82C103.6 888 104.64 887.21 105.83 886.6C107.27 885.87 108.79 885.36 110.39 885.1C113.6 884.59 116.86 885.14 119.71 886.71C119.77 886.74 119.82 886.74 119.87 886.76C121.32 895.03 122.68 903.31 123.75 911.61V911.63ZM119.47 884.39C116.6 883.05 113.32 882.62 110.2 883.11C108.03 883.45 105.69 884.23 103.76 885.51C107.36 875.56 110.95 865.61 114.25 855.57C115.94 865.15 117.77 874.76 119.47 884.39ZM113.76 852.82C113.78 852.93 113.8 853.04 113.82 853.15C109.07 863.58 104.61 874.18 100.42 884.9C99.41 883.02 98.19 881.25 96.77 879.65C95.7 878.44 94.51 877.32 93.25 876.31C92.58 875.78 91.9001 875.3 91.17 874.86C90.85 874.67 90.49 874.4 90.12 874.35C89.98 874.33 89.89 874.33 89.81 874.33C97.46 866.84 105.53 859.74 113.77 852.81L113.76 852.82ZM89.11 875.03C89.23 875.16 89.28 875.27 89.42 875.48C89.61 875.76 89.98 875.96 90.26 876.16C90.9001 876.63 91.54 877.12 92.16 877.62C93.38 878.61 94.51 879.71 95.53 880.9C97.17 882.8 98.49 884.93 99.55 887.19C95.6 897.4 91.86 907.7 88.36 918.07C86.59 913.81 84.07 909.88 80.89 906.53C78.97 904.51 76.85 902.69 74.53 901.15C73.41 900.41 72.25 899.73 71.06 899.1C70.43 898.77 69.78 898.48 69.11 898.2C68.88 898.11 68.69 898.05 68.51 898.01C74.81 889.85 81.75 882.26 89.1 875.02L89.11 875.03ZM56.47 915.8C59.91 909.94 63.7101 904.4 67.76 899.07C67.89 899.17 68 899.28 68.18 899.37C68.9 899.74 69.61 900.12 70.32 900.51C71.44 901.12 72.5201 901.79 73.57 902.52C75.87 904.11 77.9901 905.94 79.89 907.99C83.26 911.64 85.8 915.94 87.49 920.6C84.94 928.23 82.5 935.88 80.17 943.54C79.16 946.86 78.25 950.22 77.3 953.56C76.52 951.28 75.36 949.06 74.22 947.07C72.39 943.9 70.16 940.99 67.59 938.38C65.1 935.85 62.31 933.61 59.29 931.75C57.83 930.86 56.31 930.06 54.76 929.36C53.88 928.97 52.99 928.59 52.06 928.32C51.48 928.15 50.93 928.13 50.36 928.09C52.15 923.8 54.2 919.67 56.46 915.81L56.47 915.8ZM50.12 928.65C51.21 929.27 52.25 929.89 53.43 930.43C55.12 931.21 56.76 932.1 58.35 933.08C61.33 934.93 64.08 937.14 66.51 939.66C68.87 942.11 70.9601 944.83 72.7 947.75C74.31 950.44 75.3 953.34 76.55 956.16C74.26 964.33 72.1 972.54 70.2 980.82C64.4001 970.04 55.1 960.75 43.84 955.87C44.15 946.64 46.55 937.31 50.11 928.64L50.12 928.65ZM52.42 986.19C46.28 977.58 43.83 967.77 43.8501 957.79C54.8701 963.92 63.88 972.62 69.45 984.07C68.39 988.87 67.39 993.68 66.49 998.52C60.93 995.56 56.05 991.28 52.42 986.19ZM51.93 720.68C58.01 717.78 64.11 714.93 70.22 712.09C73.03 715.88 75.4601 719.87 77.04 724.31C70.86 732.1 65.05 740.2 59.64 748.56C58.23 743.86 55.71 739.4 52.68 735.62C49.54 731.7 45.64 728.29 41.12 726.08C44.7 724.18 48.32 722.4 51.93 720.67V720.68ZM39.8501 726.79C44.0201 729.71 47.96 732.91 51.13 736.94C54.44 741.15 56.53 745.83 58.21 750.85C52.21 760.29 46.6301 769.99 41.55 779.9C35.2 766.67 25.98 752.36 11.56 747.49C19.58 738.91 29.4901 732.39 39.8501 726.81V726.79ZM9.13005 750.1C9.62006 749.52 10.16 749 10.67 748.44C25.07 755.12 33.7 768.31 40.36 782.25C39.65 783.66 38.94 785.07 38.2401 786.48C34.55 794.03 31.15 801.71 28.01 809.5C25.15 802.3 20.91 795.65 15.5701 790.02C9.94005 784.09 2.88004 778.73 -4.95996 776.05C-2.00996 766.56 2.74005 757.65 9.13005 750.09V750.1ZM-5.32996 777.27C1.89005 781.2 8.60005 785.51 14.28 791.61C19.86 797.6 24.08 804.65 26.9 812.31C23.95 819.79 21.22 827.35 18.7701 835.01C18.39 833.62 17.95 832.25 17.43 830.92C15.88 827 13.68 823.33 11.04 820.06C6.42004 814.35 -0.539948 808.63 -8.00995 807.2C-9.12994 797.2 -8.15996 786.95 -5.31996 777.27H-5.32996ZM-4.63995 822.32C-6.17995 817.91 -7.22997 813.35 -7.84996 808.74C-4.89996 810.2 -1.94995 811.57 0.750046 813.52C3.93004 815.82 6.81004 818.47 9.26004 821.54C11.63 824.51 13.5701 827.81 15.05 831.31C15.83 833.16 16.47 835.05 16.94 837C17.14 837.81 17.23 838.75 17.36 839.67C16.42 842.74 15.4301 845.8 14.5701 848.9C5.86005 842.41 -1.01996 832.73 -4.63995 822.32ZM53.01 853.41C40.63 859.41 28.37 857.56 18.15 851.33C19.23 847.33 20.42 843.35 21.6301 839.39C29.33 834.18 37.6801 830.55 47.3 830.86C56.0901 831.14 64.1 834.48 71.09 839.66C66 845.26 60.03 850.01 53 853.42L53.01 853.41ZM72.48 838.11C59.19 826.44 36.5 825.03 22.56 836.36C25.03 828.54 27.77 820.8 30.76 813.15C47.56 799.84 70.37 795.44 90.29 804.29C86.42 816.57 80.7 828.51 72.48 838.11ZM94.96 784.94C94 790.6 92.64 796.4 90.93 802.16C72.03 793.65 47.67 796.31 31.9901 810.14C35.7701 800.71 39.9601 791.44 44.5201 782.34C47.4901 780.55 50.45 778.81 53.71 777.46C58.19 775.59 62.93 774.32 67.74 773.67C77.32 772.36 87.12 773.65 96.01 777.44C95.69 779.94 95.39 782.45 94.96 784.95V784.94ZM96.34 775.08C87.33 771.35 77.46 770.16 67.8 771.49C60.47 772.5 52.3701 775.03 45.9901 779.43C50.64 770.35 55.67 761.46 61.08 752.78C66.74 749.57 72.57 747.22 79.14 746.67C85.6501 746.13 92.18 747.34 98.09 750.1C97.76 758.45 97.3 766.79 96.34 775.08ZM98.2 747.55C87.45 742.93 73.49 743.05 63.31 749.27C63.95 748.27 64.57 747.26 65.22 746.27C69.61 739.56 74.29 733.06 79.09 726.65C79.14 726.61 79.16 726.56 79.19 726.51C79.37 726.28 79.55 726.05 79.73 725.82C82.75 724.29 86.03 723.3 89.41 723.04C92.73 722.78 95.94 723.36 99.05 724.42C98.68 732.13 98.47 739.85 98.19 747.56L98.2 747.55ZM99.16 722.43C93.66 720.36 87.2 720.7 81.82 723.12C88.09 714.9 94.57 706.84 101.29 698.98C100.18 706.76 99.57 714.59 99.16 722.43ZM101.51 697.38C93.1801 705.32 85.4301 713.87 78.2 722.86C76.63 718.7 74.36 714.76 71.23 711.64C81.35 706.93 91.48 702.23 101.52 697.34C101.52 697.35 101.52 697.36 101.52 697.38H101.51Z" fill="#9EAD82"/>
</g>
</svg>
