<svg width="1512" height="982" viewBox="0 0 1512 982" fill="none" xmlns="http://www.w3.org/2000/svg">
<mask id="mask0_4045_1681" style="mask-type:luminance" maskUnits="userSpaceOnUse" x="0" y="0" width="1512" height="982">
<path d="M1512 0H0V982H1512V0Z" fill="white"/>
</mask>
<g mask="url(#mask0_4045_1681)">
<path opacity="0.5" d="M1312.22 353.43C1319.23 342.57 1324.99 332.93 1331.49 323.82C1336.07 317.39 1341.77 311.77 1346.76 305.62C1353.82 296.91 1362.26 292.11 1374.01 291.63C1392.25 290.88 1409.36 293.78 1425.47 302.41C1440.07 310.23 1453.88 319.05 1464.96 331.68C1467.9 335.03 1471.65 340.29 1476.65 336.92C1481.12 333.91 1479.04 328.17 1477.34 323.86C1473.31 313.61 1464.64 307.45 1456.27 301.11C1437.44 286.84 1415.75 280.22 1392.68 277.24C1390.85 277 1388.16 277.54 1387.51 275.58C1386.68 273.06 1389.45 271.87 1391.14 270.93C1406.39 262.37 1420.89 252.23 1438.25 248.03C1445.5 246.27 1452.5 246.92 1459.72 249.15C1471 252.64 1482.52 254.91 1494.52 252.49C1505.46 250.28 1513.98 253.72 1520.34 263.44C1526.31 272.56 1530.5 282.31 1533.14 292.72C1535.27 301.11 1533.86 309.46 1529.86 317.06C1525.68 325 1521.59 333.06 1515.45 339.81C1513.44 342.02 1511.89 344.59 1511.38 348.57C1514.19 347.51 1515.33 345.54 1516.73 343.94C1536.97 320.86 1558.8 299.45 1583.83 281.55C1591.82 275.83 1600.39 270.92 1608.7 265.65C1611.79 263.69 1614.42 264.16 1616.34 267.32C1617.45 269.14 1618.24 271.17 1619.36 272.98C1621.53 276.5 1620.82 278.61 1616.91 280.4C1594.11 290.82 1574.18 305.66 1555.37 321.91C1545.1 330.78 1535.94 340.93 1526.85 351.21C1534.39 350.43 1539.3 345.25 1544.65 341.07C1548.34 338.19 1551.76 334.78 1554.62 331.09C1562.04 321.51 1572.45 319.95 1582.45 323.07C1606.7 330.63 1627.85 343.44 1641.35 365.95C1649.94 380.28 1653.92 395.97 1650.93 412.75C1649.15 422.72 1649.4 432.81 1648.32 442.81C1647.4 451.38 1645.27 459.65 1643.03 467.92C1642.6 469.5 1642.45 471.79 1640.52 472.06C1638.46 472.35 1638.12 470.02 1637.23 468.64C1622.53 445.84 1604.94 425.97 1580.61 412.99C1577.61 411.39 1574.38 410.16 1571.16 409.05C1568.75 408.22 1566.01 407.4 1564.04 409.91C1561.93 412.59 1563.31 415.23 1564.74 417.66C1568.06 423.32 1573.21 427.19 1578.13 431.34C1596.09 446.47 1612.21 463.15 1622.93 484.47C1627.04 492.64 1627.12 499.63 1622.4 507.97C1612.28 525.83 1600.16 541.98 1585.68 556.42C1584.12 557.98 1582.76 560.11 1578.79 560.25C1583.14 549.6 1582.32 539.07 1580.66 528.49C1577.91 511.02 1570.53 495.36 1561 480.82C1553.5 469.38 1544.99 458.6 1538.48 446.48C1537.38 444.44 1536.32 440.49 1533.43 441.82C1530.75 443.05 1532.81 446.55 1533.46 448.83C1539.55 470.31 1548.38 490.65 1558.79 510.4C1570.88 533.33 1569.76 556.52 1558.5 579.5C1554.79 587.06 1547.27 590.58 1540.98 595.18C1528.06 604.63 1513.25 610.46 1497.76 614.07C1490.6 615.74 1490.12 614.52 1492.64 607.76C1504.04 577.14 1510.71 545.61 1508.95 512.84C1508.01 495.35 1506.3 477.69 1495.66 462.61C1492.65 458.34 1490.11 452.72 1483.54 454.03C1478.55 455.02 1474.08 463.21 1475.47 470.08C1477.92 482.21 1479.99 494.65 1485.43 505.83C1493.68 522.76 1493.82 540.22 1489.89 557.83C1485.77 576.31 1478.74 593.78 1468.7 610C1466.05 614.28 1463.02 616.68 1458.1 618.27C1442.09 623.45 1426.02 622.93 1409.79 620.4C1403.24 619.38 1403.23 618.92 1407.16 613.6C1427.48 586.08 1441.98 556.19 1444.37 521.42C1444.43 520.57 1444.57 519.72 1444.61 518.86C1445.07 508.77 1438.68 500.26 1430.35 499.87C1424.51 499.59 1417.57 508.36 1417.17 517.07C1416.82 524.55 1417.12 532.06 1416.82 539.55C1416.06 559.13 1409.86 577.37 1402.41 595.2C1399.18 602.92 1397.68 603.06 1389.44 600.45C1370.07 594.33 1350.05 592.51 1329.88 591.95C1325.67 591.83 1322.29 594.6 1317.92 595.75C1317.28 591.4 1319.62 587.84 1320 583.97C1321.42 569.52 1320.26 555.27 1316.88 541.25C1315.49 535.47 1317.1 532.05 1321.81 528.94C1334.09 520.84 1348.27 516.91 1361.32 510.5C1371.06 505.71 1379.65 499.49 1387.23 491.89C1389.32 489.79 1392.16 486.9 1390.13 483.44C1388.27 480.28 1384.6 480.47 1381.39 480.78C1361.62 482.74 1345.88 492.49 1332.37 506.43C1326.69 512.29 1321.97 518.93 1317.21 525.54C1316.5 526.53 1315.86 528.03 1314.39 527.8C1312.81 527.55 1312.96 525.89 1312.67 524.68C1309.49 511.53 1304.02 499.17 1299.24 486.59C1297.55 482.13 1298.35 479.68 1302.05 476.88C1320.14 463.25 1339.53 451.81 1361.08 444.96C1375.47 440.38 1390.38 437.06 1405.87 437.91C1414.01 438.36 1421.54 435.59 1427.59 429.9C1432.39 425.39 1431.53 420.88 1425.37 418.66C1415.56 415.14 1405.3 413.17 1395.12 416C1375.29 421.51 1354.73 423.52 1334.92 429.03C1320.32 433.09 1306.48 438.52 1294.79 448.49C1293.9 449.25 1293.07 450.79 1291.59 449.78C1290.38 448.95 1290.74 447.45 1290.79 446.21C1291.25 434.97 1294.87 424.36 1297.58 413.59C1300.09 403.61 1304.31 394.19 1308.32 384.72C1310.92 378.6 1314.7 374.79 1321.54 373.08C1348.11 366.43 1374.9 362.57 1402.27 365.93C1412.65 367.21 1422.88 369.75 1432.33 374.64C1435.19 376.12 1438.15 377.35 1441.37 377.86C1445.37 378.49 1448.83 377.62 1450.44 373.64C1452.04 369.7 1449.59 367.21 1446.5 365.19C1440.54 361.29 1434.18 358.24 1427.3 356.41C1403.87 350.17 1380.15 345.39 1355.81 345.28C1341.54 345.22 1327.33 346.76 1312.22 353.43Z" fill="#9EAD82"/>
<path opacity="0.3" d="M243.64 14.96C248.31 13.08 253.98 15.42 255.73 8.78C256.17 7.09 258.44 5.79 260.46 6.59C262.52 7.4 261.27 9.15 260.85 10.52C260.22 12.62 261.65 12.59 263.03 12.82C264.31 13.04 265.7 13.24 266.79 13.88C268.1 14.65 269.35 16.04 268.48 17.65C267.46 19.54 265.62 18.47 264.52 17.74C262.03 16.09 259.9 13.64 256.25 15.51C257.75 18 261.1 21.55 258.65 23.17C255.99 24.93 254.05 20.98 252.49 18.28C249.77 13.57 246.39 17.19 242.42 17.86C245.34 20.89 249.18 22.14 250.03 25.99C250.31 27.24 251.4 28.55 250.31 29.72C249.16 30.95 247.85 29.99 246.67 29.43C243.64 28 241.11 26.15 240.54 22.5C240.32 21.11 240.53 19.07 238.14 19.5C236.1 19.87 233.68 20.21 232.59 22C231.46 23.86 234 24.24 234.92 25.25C236.64 27.14 237.78 29.27 237.73 31.87C237.71 32.79 236.92 33.15 236.1 33C233.74 32.56 231.19 31.41 230.75 29.23C229.19 21.4 225.59 25.29 222.36 27.56C220.76 28.69 217.89 29.36 218.4 31.8C218.83 33.87 221.52 33.75 223.31 33.81C229.34 34.03 232.54 38.79 236.55 42.06C239.23 44.25 236.55 45.64 234.66 46.51C228.05 49.58 221.34 47.08 217.92 40.37C214.37 33.41 214.33 33.37 208.83 38.9C205.22 42.53 201.71 46.28 198.23 50.04C194.98 53.54 196.99 54.93 200.59 55.5C201.51 55.65 202.52 55.69 203.42 55.5C209.28 54.26 214.23 55.99 218.78 59.69C220.52 61.11 222.66 62.07 224.66 63.15C229.13 65.58 229.21 67.43 224.91 70.33C218.11 74.91 206.92 73.39 201.48 67.15C200.61 66.15 199.76 65.12 198.94 64.07C192.56 55.98 192.27 55.81 186.97 65.13C179.38 78.5 172.24 92.12 166.31 106.34C164.7 110.21 166.42 111.44 169.93 110.68C174.64 109.67 178.73 107.09 182.74 104.57C187.56 101.55 192.81 100.69 198.07 101.97C205.46 103.77 212.88 105.29 220.38 106.5C222.41 106.83 226.32 108.19 222.88 110.51C213.76 116.65 205.45 124.9 193.17 124.65C188 124.54 183.61 122.62 179.32 120.03C165.21 111.51 163.9 112.04 158.89 127.55C153.99 142.74 149.18 157.96 146.31 173.7C145.19 179.85 146.39 180.82 152.47 178.87C158.38 176.97 163.27 173.22 167.95 169.41C173.64 164.78 179.94 163.05 187.02 163.44C195.76 163.91 204.49 164.09 213.09 162.13C216.84 161.28 217.82 162.72 217.58 166.26C216.95 175.72 210.5 181.72 204.39 187.51C194.42 196.97 182.81 200.73 169.37 194.76C162.97 191.92 156.11 190.34 150.04 186.49C145.07 183.34 143.9 184.22 142.82 190.28C139.34 209.71 135.06 229.02 133.6 248.76C133.45 250.79 131.35 254.02 134.41 254.61C137.24 255.16 141.21 255.14 143.08 251.81C144.93 248.51 146.35 244.95 147.67 241.4C152.55 228.28 164.14 215.72 183.37 216.78C198.03 217.59 212.58 215.94 227.09 213.92C229.14 213.63 231.26 213.55 233.33 213.67C235.85 213.81 237.26 215.19 236.48 217.84C230.53 238.14 222.46 256.95 201.56 266.54C187.63 272.93 174.11 270.6 160.86 264.46C153.07 260.85 145.07 259.39 136.49 260.47C133.47 260.85 132.14 261.81 131.96 264.93C130.88 283.02 127.27 300.68 122.28 318.07C121.18 321.9 122.41 323.08 126.13 322.06C131.65 320.54 137.21 318.91 141.59 315.07C148.95 308.62 157.4 306.78 166.95 307.45C181.13 308.45 194.69 311.58 207.7 317.31C212.08 319.23 213.01 321.34 209.94 325.4C197.8 341.47 181.88 349.88 161.66 350.02C151.66 350.09 144 344.74 136.63 339.01C132.43 335.75 128.42 332.27 123.81 329.56C121.18 328.01 119.42 327.9 118.31 331.4C114.53 343.36 110.6 355.27 106.64 367.17C105.37 371 107.18 372.6 110.59 372.93C115.75 373.43 120.9 373.06 125.66 370.83C131.39 368.14 137.28 368.08 142.81 370.52C149.83 373.62 156.94 376.07 164.52 377.15C169.71 377.89 170.44 380.95 168.03 384.79C155.95 404.02 127.39 407.66 115.54 389.92C113.11 386.29 110.55 382.75 107.87 379.3C105.59 376.35 103.25 375.88 101.66 379.97C95.51 395.72 88.87 411.26 81.49 426.47C79.81 429.92 81.21 431.05 84.35 431.14C88.2 431.25 91.84 430.01 95.51 429.03C110.64 424.96 119.63 428.66 127.62 441.89C130.87 447.26 134.23 452.54 136.59 458.39C138.13 462.22 137.09 463.92 132.9 463.03C124.35 461.2 115.74 459.87 107.01 459.1C100.77 458.55 96.96 454.27 93.85 449.23C90.86 444.39 87.9 439.48 83 436.24C79.73 434.08 77.66 434.23 75.57 438.37C67.18 454.97 58.36 471.36 49.62 487.79C46.85 492.99 47.38 494.51 53.28 493.6C66.23 491.6 74.91 500.51 85.21 505.2C88.33 506.62 86.38 509.04 84.93 510.84C78.98 518.24 70.74 518.38 62.51 517.22C54.5 516.09 49.22 511.16 46.75 503.34C46.2 501.6 46.69 498.76 44.65 498.42C42.19 498.02 41.85 501.02 40.76 502.67C32.7 514.88 24.64 527.09 16.66 539.34C14.39 542.83 12.41 546.51 10.18 550.03C8.88 552.08 9.32 553.58 11.21 554.85C11.84 555.27 12.47 555.94 13.15 556C26.37 557.24 31.9 568.28 39.52 576.64C40.64 577.87 42.16 579.16 41.42 581.08C40.68 582.99 38.97 584.08 36.96 584.14C29.86 584.36 23.02 583.52 16.6 579.94C10.01 576.27 7.78001 570.39 7.05 563.47C6.84 561.42 6.49 559.37 6.03 556.09C1.34 562.18 -2.86 567.36 -6.76 572.75C-21.57 593.21 -37.6 612.69 -54.03 631.85C-55.94 634.07 -57.53 634.46 -59.79 632.81C-61.32 631.69 -62.85 630.57 -64.41 629.49C-67.56 627.3 -68.04 625.18 -65.08 622.17C-53.76 610.64 -43.81 597.9 -33.52 585.47C-24.19 574.21 -14.84 562.99 -6.75 550.78C-6.05 549.72 -4.6 548.72 -5.64 547.34C-6.5 546.19 -8.08001 546.38 -9.38 546.64C-12.92 547.34 -16.45 548.08 -19.96 548.92C-24.68 550.05 -29.02 549.55 -32.79 546.25C-36.99 542.58 -42.04 540.37 -46.91 537.79C-51.47 535.37 -51.31 533.87 -46.91 531.29C-41.42 528.06 -35.46 525.98 -29.24 525.16C-22.29 524.24 -16.04 526.15 -11.64 532.11C-9.84 534.55 -8.14 537.08 -6.51 539.65C-3.98 543.62 -1.99 544.38 1.37 539.94C12.76 524.93 22.73 509.02 32.6 493.02C35.16 488.87 34.32 487.33 29.53 487.27C24.6 487.2 19.62 486.21 14.77 486.69C1.67 488.01 -6.02 478.46 -10.39 467.56C-12.36 462.64 -13.61 457.34 -12.49 451.93C-11.68 448.01 -9.76 445.92 -5.83 449.06C-0.420006 453.38 5.75001 456.27 12.09 458.86C18.3 461.4 20.99 466.89 23.31 472.58C24.92 476.53 26.95 480.12 30.33 482.79C34.71 486.26 36.91 485.84 39.92 481.16C49.46 466.27 57.62 450.58 66.29 435.2C68.35 431.54 67.08 430.33 63.32 430.78C58.41 431.37 53.58 432.23 49.06 434.49C35.02 441.51 21.1 437.54 13.22 423.96C9.83 418.12 5.78001 412.45 5.62 405.17C5.46 397.58 7.07 396.24 14.1 398.62C18.6 400.15 23.06 401.94 27.68 402.93C38.85 405.32 48.61 409.49 54.55 420.13C55.98 422.7 58.88 424.37 61.76 425.52C66.22 427.29 69.57 426.83 72.03 421.88C78.88 408.1 85.32 394.14 91.35 379.99C92.05 378.34 93.64 376.21 92.16 374.7C90.39 372.9 88.3 374.78 86.45 375.55C83.99 376.57 81.58 377.7 79.14 378.74C64.13 385.14 50.28 383.91 37.84 372.63C31.67 367.04 24.03 363.11 19.05 356.16C17.96 354.64 15.99 353.15 16.63 351.25C17.38 349.06 19.91 349.87 21.67 349.81C33.43 349.43 45.19 349.91 56.96 349.01C63.83 348.48 69.94 351.54 74.97 356.29C79.44 360.52 84.67 363.59 90.01 366.49C93.97 368.64 96.5 367.8 98.23 363.2C102.92 350.75 107.21 338.17 111.3 325.52C112.81 320.85 111.19 319.75 106.98 319.86C98.62 320.09 90.85 322.83 83.45 326.19C60.36 336.66 47.69 334.36 31.6 315.33C22.94 305.08 13.64 295.24 8.73 282.28C7.33 278.59 7.54 277.62 11.58 277.7C27.51 278.02 43.38 279.5 59.4 278.38C69.38 277.69 77.23 283.47 83.46 291.45C88.65 298.1 92.25 306.3 100.53 310.17C101.73 310.73 102.8 311.58 104 312.11C113.51 316.36 113.96 315.69 116.85 305.85C121.21 290.98 123.41 275.83 125.04 260.51C125.51 256.08 124.32 255.07 119.9 255.12C110.99 255.21 103.34 259.17 95.39 262.13C79.63 267.99 64.89 267.34 50.14 258.37C31.55 247.06 18.61 231.91 13.48 210.55C11.83 203.67 12.2 203.55 19.36 203.14C37.33 202.11 55 203.28 72.38 208.38C82.68 211.4 91.43 215.98 98.14 224.93C104.01 232.75 109.79 240.97 118.29 246.44C124.81 250.64 126.98 249.8 127.98 242.21C130.55 222.61 133.75 203.14 137.97 183.83C139.62 176.3 138.87 175.63 131.27 175.45C126.33 175.33 121.39 175.32 116.45 175.23C105.03 175.03 95.68 170.57 89.34 160.99C82.11 150.06 75.13 138.93 71.71 126.04C70.89 122.94 71.24 120.74 75.08 122.44C86.75 127.59 99.05 130.97 110.96 135.45C118.5 138.29 123.6 143.69 127.03 150.79C129.77 156.44 132.82 161.9 136.44 167.03C137.29 168.23 138.15 169.93 139.8 169.78C141.77 169.61 141.48 167.49 141.87 166.15C147.01 148.24 152.58 130.47 158.77 112.9C159.95 109.54 163.49 106.25 162.09 102.93C160.43 99.01 155.57 101.45 152.23 100.49C149.15 99.61 145.91 99.22 142.74 98.66C132.52 96.86 123.23 85 123.29 73.46C123.31 69.71 122.85 65.84 124.63 62.24C125.98 59.51 127.47 58.51 130.33 60.67C135.78 64.78 141.44 68.6 146.97 72.6C151.61 75.94 154.67 80.36 156.15 85.93C157.08 89.42 158.19 92.88 160.75 95.63C163.09 98.15 164.97 98.5 166.76 94.89C169.97 88.43 173.37 82.06 176.87 75.75C178.36 73.05 177.95 71.49 174.93 70.73C172.9 70.22 170.89 69.63 168.85 69.21C157.63 66.88 151.76 59.1 152.5 47.61C152.66 45.21 153.12 42.76 155.28 41.7C157.66 40.53 158.87 43.13 160.39 44.4C161.7 45.49 162.74 46.98 164.18 47.84C170.03 51.33 173.83 56.23 175.5 62.87C176.06 65.08 177.15 67.44 179.7 67.81C182.28 68.19 182.97 65.59 184.11 63.95C186.39 60.68 188.34 57.17 190.77 54.04C193.18 50.94 192.51 48.49 190 46.05C189.59 45.65 189.18 45.19 188.68 44.97C175.05 38.96 176.78 27.73 178.98 16.38C179.3 14.74 179.58 12.59 181.49 12.26C183.26 11.95 183.56 14.16 184.38 15.31C186.69 18.55 188.75 21.92 191.61 24.79C195.28 28.47 195.53 33.24 194.66 38.13C194.36 39.81 193.91 41.48 193.84 43.16C193.79 44.44 193.81 46.09 195.1 46.74C196.65 47.52 197.44 45.82 198.33 44.99C202.78 40.85 207.09 36.56 211.54 32.42C213.32 30.77 213.49 29.34 211.65 27.68C210.24 26.41 208.92 25.04 207.53 23.74C203.17 19.66 202.91 14.76 205.02 9.63C206.08 7.05 207.37 3.78001 210.65 3.91001C213.51 4.02001 212.59 7.59 213.77 9.38C216.75 13.91 217.94 18.67 216.05 23.98C215.68 25.03 215.56 26.43 216.63 27.13C217.79 27.9 218.71 26.74 219.65 26.16C220.62 25.56 221.51 24.78 222.55 24.35C227.01 22.46 226.52 20.51 223.28 17.5C219.17 13.69 219.36 7.81 222.98 3.72C224.83 1.63 226.06 1.76 226.93 4.42C228.15 8.16 230.43 11.65 229.43 15.92C228.72 18.96 229.36 20.03 232.93 18.93C237.7 17.47 241.26 16 238.06 10.16C237.89 9.86001 237.95 9.41 237.96 9.03C238.08 5.83 239.1 3.05 241.85 1.19001C242.84 0.520005 244.13 0.210005 244.9 1.37001C246.58 3.91001 246.48 6.81001 245.82 9.62001C245.45 11.2 244.59 12.66 243.63 14.94L243.64 14.96Z" fill="#9B6F53"/>
<path opacity="0.3" d="M94.55 566.17C98.82 566.31 103.04 566.7 107.2 567.3C122.34 580.36 131.89 598.7 143.85 614.47C150.47 623.19 157.55 631.56 165.12 639.47C165.17 639.77 165.4 640.03 165.68 640.05C171.33 645.92 177.24 651.55 183.46 656.83C199.98 670.85 218.67 682.33 238.85 689.9C239.03 690.19 239.41 690.3 239.76 690.23C251.12 694.42 262.94 697.39 275.11 698.85C293.05 701 311.43 699.75 328.73 694.45C329.29 694.28 329.62 693.88 329.75 693.44C329 691.46 328.25 689.48 327.44 687.52C308.41 652.01 297.01 611.24 267.74 582.22C240.8 555.51 203.01 541.36 165.16 544.14C144.47 545.66 124.29 552.08 106.53 562.8C102.66 562.29 98.76 561.91 94.83 561.79C92.02 561.7 91.73 566.07 94.55 566.16V566.17ZM147.82 614.69C145.46 611.64 143.21 608.47 140.99 605.28C141.77 594.56 139.69 583.95 134.72 574.49C145.14 578.38 155.16 583.43 164.81 589.15C169.59 595.92 172.34 603.94 172.72 612.3C172.93 616.84 172.46 621.41 171.28 625.79C170.22 629.73 168.36 633.08 166.49 636.56C159.88 629.58 153.66 622.24 147.82 614.68V614.69ZM167.75 637.87C173.06 630.85 174.83 620.2 174.45 611.88C174.12 604.64 172.1 597.58 168.49 591.38C175.58 595.76 182.47 600.47 189.14 605.36C193.54 608.59 197.88 611.92 202.18 615.29C210.26 631.73 213.47 651.64 201.61 666.96C189.39 658.49 178.08 648.64 167.75 637.87ZM233.99 684.86C223.02 680.3 212.7 674.51 202.94 667.87C214.38 653.18 212.44 634.02 205.3 617.75C215.61 625.92 225.74 634.33 236.05 642.5C239.36 649.63 241.74 656.96 242.31 664.87C242.86 672.44 241.76 679.85 239.46 687.03C237.62 686.34 235.79 685.62 233.98 684.87L233.99 684.86ZM241.17 687.62C246.05 674.12 245.43 657.47 238.73 644.61C250.47 653.82 262.49 662.65 275.36 670.34C276.07 670.77 276.81 671.17 277.53 671.6C277.61 671.67 277.7 671.72 277.8 671.75C278.46 672.14 279.14 672.51 279.81 672.89C283.15 680.2 283.18 688.99 279.46 696.15C266.44 695 253.54 692.08 241.17 687.61V687.62ZM327 691.86C311.97 696.15 296.44 697.46 281.06 696.28C284.47 689.18 284.62 680.71 281.13 673.64C295.28 681.6 310.38 688.18 326.42 690.96C326.54 691.17 326.66 691.39 326.78 691.61C326.84 691.71 326.92 691.78 327 691.86ZM325.15 688.69C309.92 684.39 295.42 678.36 281.71 670.42C291.43 666.3 300.37 659.84 306.88 651.53C312.65 664.08 318.38 676.65 325.16 688.69H325.15ZM296.72 630.13C300.03 636.73 303.14 643.43 306.23 650.14C298.94 658.56 290.24 665.21 279.94 669.4C279.7 669.26 279.45 669.12 279.21 668.98C265.73 660.89 253.2 651.35 240.95 641.52C241.74 641.38 242.52 641.24 243.25 641.11C245.96 640.64 248.63 639.98 251.25 639.13C256.58 637.42 261.63 634.97 266.3 631.89C274.28 626.63 281.58 619.32 285.9 610.64C289.82 616.93 293.39 623.47 296.72 630.12V630.13ZM262.59 581.7C271.41 589.93 278.73 599.37 285.12 609.46C279.76 617.94 273.35 625.33 264.74 630.77C260.29 633.58 255.47 635.85 250.45 637.42C248.12 638.15 245.74 638.74 243.34 639.17C241.88 639.43 240.25 639.48 238.69 639.69C237.37 638.62 236.04 637.55 234.72 636.48C224.05 627.82 213.49 618.95 202.67 610.44C223.76 606.8 239.59 589.17 251.22 572.27C255.19 575.19 258.99 578.33 262.59 581.69V581.7ZM213.37 552.97C226.59 557.19 239.14 563.55 250.38 571.7C236.62 587.79 223.3 605.96 200.77 608.97C189.75 600.38 178.44 592.2 166.46 585.06C183.72 579.28 199.2 567.34 208.33 551.5C210.02 551.96 211.7 552.43 213.38 552.97H213.37ZM207.51 551.27C197.2 566.94 182.46 578.54 164.32 583.83C159.51 581.03 154.61 578.39 149.55 575.98C144.84 573.73 140.01 571.78 135.11 570C140.26 567.57 145.17 564.67 149.71 561.21C154.6 557.48 159.98 552.97 163.39 547.69C178.12 546.33 193.06 547.46 207.5 551.27H207.51ZM161.97 547.8C157.75 551.87 153.91 556.2 149.17 559.8C144.19 563.57 138.8 566.7 133.12 569.27C126.09 566.83 118.91 564.87 111.59 563.6C127.18 554.98 144.4 549.62 161.98 547.81L161.97 547.8ZM112.84 568.26C119.55 569.55 126.1 571.4 132.52 573.69C137.77 582.93 140.47 593.44 140.13 604.06C131.58 591.69 123.52 578.76 112.84 568.27V568.26Z" fill="#9B6F53"/>
<path opacity="0.5" d="M134.4 -82.39C127.13 -82.35 120.69 -78.08 114.84 -74.23C108.27 -69.91 101.98 -65.16 96.02 -60.03C72.77 -40.03 54.47 -14.55 42.46 13.64C29.05 45.1 23.35 80.34 27.51 114.35C27.59 114.99 27.99 115.33 28.45 115.45C28.77 115.84 29.26 116.06 29.78 115.8C30.04 116.01 30.41 116.05 30.62 115.7C30.72 115.53 30.81 115.36 30.91 115.19C47.29 105.99 64.98 99.24 81.04 89.48C96.97 79.79 109.95 66.19 120.07 50.61C130.43 34.66 137.7 16.93 143.35 -1.17001C146.09 -9.95 148.46 -18.84 150.68 -27.77C152.74 -36.08 155.22 -44.56 155.64 -53.15C156.02 -61.08 153.57 -70.42 148.07 -76.37C157.38 -88.67 166.96 -100.77 176.07 -113.21C177.48 -115.13 174.65 -117.04 173.12 -115.33C162.96 -103.97 153.67 -91.66 144.58 -79.36C141.75 -81.26 138.37 -82.41 134.41 -82.39H134.4ZM85.84 -45.93C88.35 -48.51 90.94 -51.02 93.59 -53.45C105.09 -51.96 116.65 -52.84 127.73 -56.06C121.49 -47.23 115.33 -38.35 109.35 -29.35C108.99 -28.81 108.65 -28.27 108.29 -27.73C101.06 -23.39 92.84 -21.21 84.68 -19.13C77.58 -17.33 70.15 -15.72 62.94 -17.55C69.66 -27.66 77.31 -37.18 85.83 -45.93H85.84ZM61.98 -16.02C69.58 -13.67 77.4 -15.29 84.98 -17.21C92.19 -19.03 99.41 -20.95 106.02 -24.25C99.73 -14.7 93.55 -5.07001 87.54 4.66999C74.81 12 60.3 15.43 45.6 14.47C50.16 3.86999 55.66 -6.33 61.97 -16.02H61.98ZM44.78 16.47C58.84 17.5 72.85 14.67 85.34 8.31999C79.4 18.05 73.59 27.85 68 37.78C63.23 40.3 58.21 42.26 52.92 43.45C49.98 44.11 46.99 44.55 43.98 44.75C41.12 44.94 38.17 44.57 35.31 44.72C37.75 35.08 40.94 25.64 44.77 16.47H44.78ZM34.96 46.21C37.61 46.83 40.59 46.67 43.25 46.56C46.76 46.42 50.27 45.97 53.7 45.23C58.04 44.3 62.22 42.84 66.23 40.98C62.62 47.47 59.07 53.99 55.64 60.57C55.4 61.02 55.17 61.48 54.94 61.94C47.7 66.26 39.15 68.89 30.74 69C31.7 61.32 33.12 53.7 34.97 46.19L34.96 46.21ZM30.61 69.99C38.82 70.02 46.51 68.26 53.62 64.52C49.8 71.9 46.05 79.32 42.4 86.78C40.43 87.92 38.41 88.97 36.31 89.85C33.98 90.82 31.61 91.48 29.2 92.13C29.23 84.72 29.74 77.33 30.62 69.99H30.61ZM30.19 112.58C29.52 106.21 29.23 99.82 29.22 93.44C31.84 92.97 34.44 92.1 36.87 91.16C38.36 90.58 39.8 89.91 41.21 89.18C37.5 96.75 33.73 104.4 30.67 112.26C30.51 112.37 30.34 112.47 30.18 112.58H30.19ZM33.79 110.24C37.52 103.62 41.02 96.84 44.49 90.04C44.55 91.93 44.76 93.81 45.18 95.66C45.69 97.95 46.43 100.56 47.72 102.66C42.97 105 38.29 107.45 33.79 110.23V110.24ZM48.77 102.15C48.45 101.39 48.12 100.64 47.83 99.86C47.27 98.37 46.82 96.83 46.5 95.27C45.94 92.54 45.83 89.75 46.06 86.98C49.21 80.81 52.37 74.64 55.7 68.59C55.93 68.18 56.17 67.77 56.39 67.35C56.48 71.42 57.16 75.47 58.54 79.33C60.23 84.05 63.18 89.93 67.39 93.2C61.24 96.28 54.95 99.13 48.77 102.14V102.15ZM81.35 85.44C77.21 88.08 72.9 90.42 68.53 92.64C67.04 90.71 65.34 88.94 63.98 86.88C62.37 84.43 61.06 81.79 60.07 79.03C58.38 74.33 57.74 69.35 58.05 64.39C62.29 56.75 66.59 49.14 70.94 41.56C72.47 55.53 78.83 70.57 89.95 79.24C87.18 81.43 84.34 83.53 81.35 85.43V85.44ZM90.91 78.48C85.87 72.64 81.17 66.95 77.95 59.82C74.88 53.03 73.21 45.78 72.81 38.36C75.7 33.35 78.58 28.34 81.53 23.37C84.42 18.49 87.41 13.67 90.38 8.82999C92.91 25.59 100.56 43.3 113.34 54.52C106.89 63.43 99.45 71.58 90.91 78.48ZM121.74 41.6C119.43 45.61 116.91 49.51 114.23 53.29C108.53 46.45 103.2 39.69 99.34 31.51C95.52 23.4 93.19 14.74 92.19 5.84999C98.41 -4.22001 104.81 -14.17 111.33 -24.05C113.24 -6.64001 119.7 10.54 130.37 24.43C127.79 30.3 124.94 36.04 121.73 41.6H121.74ZM131.1 22.76C121.21 7.68998 114.97 -8.81001 113.1 -26.75C119.28 -36.06 125.64 -45.25 132.09 -54.38C132.47 -41.02 136.5 -27.46 144.38 -16.64C143.57 -13.64 142.76 -10.63 141.88 -7.65001C138.84 2.64999 135.35 12.86 131.1 22.74V22.76ZM152.29 -58.55C152.99 -50.15 150.71 -41.74 148.75 -33.65C147.5 -28.48 146.18 -23.33 144.8 -18.19C137.83 -30.12 133.78 -43.07 133.96 -57.03C135.96 -59.85 137.93 -62.69 139.96 -65.49C141.96 -68.24 144 -70.95 146.04 -73.66C149.8 -69.62 151.82 -64.04 152.28 -58.55H152.29ZM141.52 -77.24C141.88 -77.04 142.19 -76.79 142.52 -76.57C141.7 -75.46 140.87 -74.34 140.05 -73.23C136.51 -68.42 133.07 -63.54 129.61 -58.68C118.57 -55.13 106.95 -53.88 95.41 -55.04C102.74 -61.59 110.54 -67.61 118.82 -72.9C125.56 -77.21 133.7 -81.59 141.52 -77.25V-77.24Z" fill="#9EAD82"/>
<path opacity="0.5" d="M50.6 652.18C57.34 654.47 64.15 654.2 70.94 652.45C72.57 652.03 74.14 651.41 76.03 650.79C74.42 654.61 73.14 658.1 72.56 661.77C71.96 665.53 71.57 669.35 73.05 673.01C74.06 675.53 75.55 675.97 77.82 674.54C82.54 671.57 85.17 667.01 87.06 661.97C87.88 659.79 88.42 657.51 89.19 654.92C90.09 656.21 90.76 657.21 91.48 658.18C94.8 662.67 98.23 667.07 103.21 669.88C104.97 670.87 106.96 671.96 108.91 670.51C110.82 669.1 110.51 666.94 110.14 664.9C109.45 661.09 107.6 657.8 105.54 654.58C103.4 651.24 100.45 648.61 97.59 645.42C101.55 645.77 105.08 645.93 108.6 645.66C113.47 645.29 118.26 644.49 122.45 641.72C126.04 639.35 125.82 636.15 121.91 634.29C119.24 633.02 116.37 632.58 113.43 632.39C108.02 632.04 102.73 632.71 96.87 634.89C100.58 630.43 103.72 626.62 105.97 622.19C107.14 619.88 108.04 617.49 108.16 614.89C108.33 611.31 106.34 609.98 103.14 611.54C100.73 612.72 98.84 614.58 97.1 616.61C94.16 620.04 91.69 623.8 89.39 627.72C89.02 618.33 87.35 609.34 83.88 600.74C83.32 599.35 82.76 596.73 81.01 597.44C79.37 598.1 80.81 600.36 81.43 601.66C85.26 609.73 86.5 618.34 86.95 627.12C87.13 630.63 86.81 634.12 86.16 637.57C85.14 637.47 84.7 636.88 84.19 636.41C81.18 633.68 78.23 630.89 75.15 628.23C71.26 624.88 67.22 621.72 62.1 620.39C59.36 619.68 58.29 620.71 59.13 623.38C59.96 626.03 61.56 628.27 63.45 630.29C67.26 634.37 71.59 637.79 77.29 640.27C72.76 641.09 68.85 641.75 64.97 642.51C59.95 643.48 54.91 644.43 50.28 646.74C49.04 647.36 47.47 648.09 47.52 649.68C47.56 651.36 49.29 651.75 50.58 652.19L50.6 652.18ZM122.82 637.67C117.11 644.65 101.37 644.9 89.28 640.6C100.23 635.22 111.06 631.79 122.82 637.67ZM91.43 628.72C94.45 622.93 98.45 617.92 103.68 613.96C104.15 613.6 104.62 612.92 105.25 613.17C106.07 613.49 105.8 614.4 105.78 615.05C105.67 617.86 104.5 620.34 103.21 622.77C99.94 628.87 95.47 633.91 89.85 637.95C89.44 638.25 89 638.6 88.23 638.38C88.44 634.89 89.85 631.77 91.43 628.73V628.72ZM107.58 664.62C107.95 666 108.54 668 107.38 668.8C106.31 669.53 104.85 668.03 103.7 667.28C94.74 661.44 89.66 653.02 87.2 642.09C97.63 646.92 104.67 653.92 107.58 664.62ZM85.05 643.34C87.22 647.6 87.15 651.9 86.42 656.13C85.4 662.12 82.52 667.24 78.02 671.38C77.48 671.88 77.03 672.87 76.11 672.52C75.21 672.18 75.04 671.22 74.9 670.32C74.01 664.65 74.85 659.23 77.34 654.1C79.23 650.21 81.67 646.66 85.04 643.35L85.05 643.34ZM61.86 623.06C70.39 626.79 77.85 631.95 83.5 639.57C73.99 637.12 66.3 632.23 61.86 623.06ZM81.6 642.46C78.69 650.02 60.23 654.26 50.47 649.49C60.46 644.61 70.86 643.01 81.6 642.46Z" fill="#A0A98A"/>
<path opacity="0.5" d="M-36.69 836.92C-36.88 826.25 -33.59 818.38 -29.15 811.22C-14.43 787.52 5.12 769.07 31.71 759.46C42.38 755.61 53.71 753.56 65.1 752.44C66.64 752.29 68.81 752.96 69.46 750.98C69.98 749.39 68.02 748.69 67.17 747.6C54.57 731.42 41.7 715.47 30.29 698.38C21.09 684.59 11.72 670.94 3.33 656.62C0.780003 652.27 2.97 651.26 5.7 649.55C8.53 647.78 10.92 645.55 13.55 650.36C24.82 670.9 36.93 690.96 49.98 710.4C57.59 721.73 66.05 732.49 74.19 743.46C75 744.55 75.84 746.3 77.52 745.66C79.06 745.08 78.72 743.2 79.01 741.82C85.65 710.11 118 676.99 152.36 674.8C161.39 674.22 170.29 675.71 178.52 679.16C197.06 686.93 212.33 699.07 224.27 715.36C227.35 719.57 227.23 721.84 222.37 725.06C206.93 735.3 189.44 740.53 172.36 746.79C165.78 749.2 160.09 752.75 155.43 757.89C153.1 760.46 151.98 763.63 153.3 767.11C154.67 770.73 157.98 771.85 161.31 772.09C169.57 772.7 176.25 768.82 181.87 763.37C195.71 749.94 212.08 740.24 228.55 730.61C232.41 728.35 234.84 729.04 237.01 733.07C249.79 756.86 261.87 780.94 266.3 807.94C269.35 826.52 269.29 824.49 252.61 824.23C239.16 824.02 225.74 822.3 212.3 821.27C207.24 820.88 202.41 821.94 197.66 823.58C193.3 825.08 190.54 828.03 190.1 832.55C189.63 837.34 191.15 841.95 195.22 844.57C200.85 848.21 206.92 850.34 214.08 848.33C222.9 845.86 230.82 841.05 239.83 839.14C243.32 838.4 246.74 837.76 250.29 838.14C264.62 839.65 267.76 843.51 265.96 857.69C264.18 871.69 261.68 885.57 257.97 899.2C257.57 900.69 257.75 902.88 255.61 903.14C253.72 903.36 252.91 901.5 251.84 900.28C248.7 896.7 245.63 893.04 242.4 889.54C241.15 888.19 239.66 886.98 238.08 886.04C232.29 882.58 225.82 883.21 222.81 887.36C220.05 891.18 221.99 898.23 226.97 902.2C232.76 906.81 239.4 909.63 246.61 911.16C251.91 912.28 254 914.64 251.52 920.34C248.89 926.4 247.19 932.87 245.07 939.15C243.94 942.48 242.52 944.47 239.1 940.97C237.86 939.7 235.97 938.94 234.26 938.28C231.46 937.2 228.87 937.69 227.21 940.42C225.7 942.89 226.35 945.23 228.25 947.22C229.25 948.26 230.28 949.6 231.55 950C239.55 952.49 238.57 957.82 235.98 963.59C232.85 970.58 229.49 977.47 226.3 984.44C224.91 987.48 222.32 988.06 219.55 987.57C212.18 986.27 204.76 985.58 197.31 985.16C193.72 984.96 192.4 983.07 192.07 979.59C191.55 974.06 193 968.88 194.27 963.65C195.01 960.6 195.6 957.57 195.18 954.43C194.75 951.22 193.21 948.85 189.77 948.59C186.46 948.34 185.01 950.73 184.17 953.45C182.14 960.05 184.71 966.22 186.5 972.3C190.05 984.37 190.28 984.15 177.91 983.04C153.11 980.81 128.72 975.61 103.97 973.08C99.75 972.65 98.64 971.37 100.49 967.17C104.21 958.71 109.01 951.12 115.37 944.39C121.91 937.47 128.68 930.62 131.97 921.35C133.62 916.68 134.08 911.98 130.73 907.77C125.22 900.84 118.98 900.21 111.81 905.51C103.48 911.66 100.37 920.59 98.8 930.16C97.02 941 96.01 951.97 93.44 962.68C91.54 970.61 90.56 970.99 82.75 968.57C64.39 962.89 47.5 954.21 31.1 944.33C25.25 940.81 24.72 935.6 24.74 929.9C24.79 915.72 33.36 905.61 41.62 895.48C46.1 889.98 50.47 884.55 52.99 877.81C55.27 871.71 54.43 865.82 51.61 860.35C46.71 850.87 35.47 849.62 28.41 857.59C23.59 863.03 21.61 869.84 19.65 876.64C15.88 889.77 14.53 903.47 9.73 916.41C6.14 926.06 6.83 926.18 -1.06 919.95C-18.18 906.44 -27.96 888.3 -34.45 867.98C-35.82 863.69 -35.39 859.9 -32.62 856.26C-30.62 853.62 -28.93 850.75 -27.15 847.95C-16.83 831.71 -1.66 823.61 17.13 821.62C20.43 821.27 23.7 820.93 26.88 819.8C30.99 818.34 32.94 815.33 32.75 811.27C32.56 807.32 29.82 804.9 26.14 803.91C20.15 802.3 14.64 804.11 9.44 806.97C-6.13 815.54 -22.43 822.93 -36.65 836.96L-36.69 836.92ZM92.31 826.13C93.45 823.21 94.9 819.83 92.55 816.89C90.04 813.75 86.23 813.06 82.35 813.84C71.49 816.01 63.92 822.85 58.11 831.77C55.81 835.31 54.45 839.51 57.68 843.33C60.84 847.06 65.09 847.52 69.61 846.23C80.3 843.18 87.19 835.82 92.3 826.13H92.31ZM138.85 808.2C136.35 814.46 138.88 819.59 144.98 819.16C156.88 818.33 166.45 812.18 174.12 803.48C177.56 799.58 175.4 795.04 170.37 793.36C160.84 790.17 142.63 798.74 138.85 808.2ZM103.62 851.1C103.02 854.08 102.21 857.09 101.86 860.14C101.4 864.08 100.92 868.49 105.64 870.22C110.12 871.86 113.81 869.41 116.53 866.09C120.93 860.71 123.44 854.31 124.38 847.5C124.94 843.46 123.76 839.27 119.71 837.47C115.43 835.57 112.08 838.3 109.62 841.54C107.38 844.48 105.65 847.81 103.62 851.1ZM167.84 906.73C168.74 903.87 170.57 900.93 170.47 897.52C170.37 893.9 169.65 890.22 165.88 888.7C162.22 887.23 159.48 889.61 157.28 892.17C152.84 897.34 150.32 903.37 149.87 910.24C149.68 913.14 150.25 915.75 152.97 917.16C155.96 918.71 158.93 918.32 161.72 916.3C164.95 913.96 165.94 910.25 167.84 906.73ZM170.28 859.99C169.69 862.37 170.4 864.39 173.48 864.32C177.92 864.22 182.02 862.6 185.74 860.32C187.84 859.03 188.24 857 185.95 855.27C182.6 852.74 171.89 855.8 170.27 859.99H170.28Z" fill="#9EAD82"/>
<path opacity="0.3" d="M1481.88 882.06C1490.31 886.68 1497.82 892.5 1504.45 899.45C1505.5 900.55 1507.26 901.64 1506.36 903.51C1505.62 905.03 1503.86 904.63 1502.51 904.57C1497.65 904.37 1492.73 904.42 1487.93 903.71C1451.32 898.31 1415.32 890.41 1380.84 876.61C1379.01 875.88 1377.25 875.28 1375.88 877.05C1370.37 884.19 1363.62 890.25 1356.38 898.11C1362.66 897.18 1367.18 896.18 1371.74 895.88C1408.79 893.39 1443.5 901.09 1475.46 920.25C1481.52 923.88 1486.01 929.08 1488.98 935.52C1489.56 936.79 1490.34 938.31 1489.42 939.56C1488.22 941.19 1486.84 939.75 1485.66 939.22C1481.92 937.53 1477.92 936.92 1473.94 936.11C1463.6 934.01 1453.06 933.36 1442.73 931.03C1426.47 927.36 1409.97 924.79 1393.82 920.36C1394.49 921.3 1395.28 921.9 1396.07 922.49C1421.19 941.5 1440.71 964.75 1450.84 995.07C1451.45 996.88 1453.55 999.1 1451.53 1000.55C1449.79 1001.8 1447.84 999.62 1446.19 998.55C1440.62 994.94 1435.09 991.26 1429.06 987.28C1429.74 990.02 1433.37 991.18 1431.98 993.35C1430.39 995.84 1427.52 993.95 1425.29 993.52C1417.92 992.13 1410.52 990.83 1403.42 988.32C1385.21 981.88 1367.78 973.73 1350.98 964.23C1349.02 963.12 1347.16 961.79 1343.13 961.64C1354.98 969.83 1362.53 979.85 1369.74 990.19C1375.51 998.45 1377.1 1008.06 1378.87 1017.61C1379.15 1019.14 1379.37 1021.21 1377.93 1022.17C1375.95 1023.48 1374.61 1021.45 1373.25 1020.4C1362.98 1012.49 1352.44 1004.88 1342.58 996.49C1327.94 984.03 1312.47 972.44 1300.21 957.37C1292.08 947.39 1291.99 947.45 1282.09 955.76C1281.87 955.95 1281.92 956.45 1281.76 957.16C1304.68 963.17 1318.89 979.26 1329.26 999.35C1332.41 1005.45 1333.56 1012.42 1334.69 1019.24C1335.25 1022.66 1334.16 1024 1330.74 1022.37C1322.15 1018.28 1313.46 1014.39 1306.33 1007.8C1293.9 996.32 1283.03 983.64 1274.79 968.75C1270.56 961.11 1270.35 961.23 1262.39 965.35C1258.97 967.12 1255.68 969.23 1252.1 970.54C1238.04 975.67 1224.16 981.24 1209.5 984.75C1189.79 989.47 1169.89 990.92 1149.74 990.63C1146.29 990.58 1145.04 988.98 1145.35 985.7C1146.08 977.98 1151.96 981.03 1155.61 981.35C1175.33 983.1 1194.47 979.29 1213.37 974.9C1232.13 970.55 1250.02 963.27 1267.3 954.62C1271.29 952.62 1272.03 950.93 1270.07 946.74C1263.87 933.52 1258.72 919.92 1255.43 905.6C1252.3 891.98 1248.31 878.56 1244.69 865.06C1244.3 863.61 1242.33 862.24 1243.98 860.71C1245.27 859.52 1247.08 860.21 1248.66 860.56C1252.49 861.4 1255.92 863.08 1259.11 865.34C1264.21 868.95 1269.44 872.42 1272.46 878.22C1269.28 862.26 1264.24 846.98 1263.47 830.83C1263.31 827.56 1263.55 826.05 1267.32 828.34C1272.62 831.55 1277.16 835.45 1280.82 840.4C1284.87 845.88 1288.86 851.41 1293.55 857.83C1293.14 855.3 1292.92 853.77 1292.64 852.26C1290.59 841.3 1288.31 830.37 1286.56 819.35C1285.91 815.25 1284.64 811.53 1282.99 807.81C1282.31 806.29 1279.75 804.98 1281.42 803.14C1282.89 801.51 1285.39 802.14 1287.17 802.89C1290.33 804.2 1293.28 806.02 1297.14 808.06C1295.2 800.33 1291.51 794.8 1288 789.14C1286.38 786.52 1281.97 783.61 1283.91 781.24C1286.18 778.46 1290.67 780.96 1294.1 781.96C1295.44 782.35 1296.68 783.12 1297.96 783.74C1311.26 790.2 1320.6 801.01 1327.76 813.32C1337.21 829.57 1342.6 847.38 1344.48 866.24C1345.54 876.84 1345.46 887.39 1344.09 899.74C1354.93 889.84 1364.52 881.48 1372.93 871.86C1374.91 869.59 1373.94 867.78 1371.84 866.26C1368.73 864.01 1365.15 862.2 1362.56 859.45C1337.74 833.15 1321.71 802.71 1319.34 766C1319.21 764.01 1318.27 761.48 1319.79 760.13C1321.98 758.19 1323.34 762.04 1326.51 761.8C1322.89 758.3 1319.72 755.28 1316.6 752.22C1315.32 750.97 1312.99 749.86 1313.54 748.03C1314.23 745.7 1316.91 746.24 1318.85 746.28C1333.39 746.6 1346.04 751.94 1357.47 760.72C1365.3 766.73 1371.9 774.09 1377.3 782.03C1385.02 793.38 1391.39 805.73 1393.28 819.73C1394.37 827.79 1396.71 835.66 1396.31 844.03C1400.07 840.44 1402.87 836.72 1405.99 833.29C1408.81 830.19 1409.22 827.05 1407.65 823.24C1402.55 810.84 1396.63 798.89 1388.85 787.92C1374.89 768.25 1358.54 750.4 1345.15 730.3C1344 728.57 1340.87 727.23 1342.36 724.87C1343.71 722.73 1346.56 724.08 1348.58 724.65C1381.2 733.85 1404.14 753.67 1415.83 785.94C1419.28 795.48 1419.25 805.18 1418.31 815.24C1422.48 810.31 1425.83 805.05 1429.66 800.17C1432.18 796.96 1432.22 794.37 1430.16 790.88C1420.67 774.79 1413.65 757.51 1406.55 740.29C1398.19 720.04 1390.23 699.62 1380.19 680.11C1379.26 678.3 1376.67 676.24 1378.62 674.22C1380.36 672.41 1382.88 674.23 1384.85 675C1400.67 681.13 1412 692.35 1420.48 706.76C1422 709.34 1423.2 712.25 1426.57 714.48C1425.35 706.12 1424.25 698.71 1423.17 691.29C1420.75 674.61 1422.66 658.13 1425.45 641.69C1425.71 640.17 1425.83 638.08 1427.61 637.65C1429.56 637.19 1430.21 639.22 1431 640.56C1439.66 655.15 1445.5 670.91 1449.26 687.35C1454.53 710.34 1456.59 733.66 1454.1 758.39C1467.46 727.3 1481.01 697.61 1498.18 669.76C1507.85 654.07 1517.31 638.19 1529.85 624.5C1530.87 623.39 1531.79 621.47 1533.74 622.31C1535.34 623 1534.91 624.77 1534.75 626.12C1532.71 643.5 1529.16 660.53 1522.4 676.76C1518.72 685.61 1514.96 694.44 1511.26 703.24C1512.95 704.12 1513.99 703.22 1515.13 702.94C1527.64 699.92 1540.19 697.83 1553 701.08C1554.94 701.57 1557.45 701.65 1557.76 704.1C1558.02 706.16 1555.88 707.05 1554.32 707.93C1536.66 717.87 1519.54 728.68 1502.52 739.66C1486.85 749.77 1470.96 759.53 1455.18 769.47C1453.12 770.77 1451.3 772.33 1450.81 776.13C1457.76 771.32 1465.04 769.07 1472.09 766.26C1493.1 757.88 1514.72 756.79 1536.64 760.84C1546.43 762.65 1555.84 766.17 1563.29 773.36C1564.28 774.31 1565.68 775.31 1565.2 776.91C1564.68 778.66 1562.87 778.28 1561.56 778.38C1543.35 779.77 1525.73 785.07 1507.43 786.09C1490.4 787.04 1473.41 788.64 1456.42 786.28C1444.45 784.62 1444.47 784.42 1439.3 795.6C1440.79 796.37 1442 795.31 1443.32 795.02C1453.89 792.64 1464.58 791.55 1475.33 793.2C1492.7 795.88 1509.17 801.48 1524.71 809.68C1536.76 816.04 1546.48 825.17 1554.69 835.93C1555.7 837.26 1557.4 839.03 1556.15 840.8C1555.07 842.32 1553.08 841.15 1551.61 840.84C1542.09 838.81 1532.45 837.18 1523.14 834.43C1494.34 825.9 1465.8 816.55 1438.79 803.16C1436.18 801.87 1434.32 801.89 1432.6 804.51C1429.08 809.88 1425.41 815.15 1421.7 820.6C1424.42 821.65 1426.73 820.36 1429.09 820.36C1431.72 820.36 1434.35 820.18 1436.99 820.14C1471.27 819.69 1502.44 828.07 1528.13 852.13C1531.78 855.55 1534.34 859.6 1536.18 864.16C1536.84 865.8 1537.89 867.78 1536.35 869.28C1534.9 870.7 1533.33 869.07 1531.92 868.52C1517.87 862.99 1502.76 861.6 1488.35 857.18C1498.62 863.31 1508.13 870.15 1515.65 879.42C1516.84 880.89 1519.12 882.37 1517.77 884.61C1516.68 886.41 1514.45 885.59 1512.69 885.44C1501.77 884.49 1490.97 882.79 1480.32 879.93C1479.78 881.61 1481.2 881.64 1481.91 882.03L1481.88 882.06ZM1344.41 917.53C1339.46 915.36 1335.66 915.71 1331.86 919.68C1328.02 923.68 1322.74 926.13 1318.32 931.81C1344.27 933.46 1367.34 941 1389.1 953.39C1375.11 940.18 1362.5 925.46 1344.41 917.53ZM1388.8 853.71C1391.04 851.34 1390 849.56 1388.48 847.35C1377.39 831.21 1366.4 814.99 1354.96 798.92C1365.43 819.75 1373.93 841.28 1378.1 865.66C1382.09 861.18 1385.36 857.36 1388.8 853.71ZM1434.43 865.11C1424.19 860.56 1413.94 856.05 1403.73 851.44C1401.13 850.26 1399.06 850.63 1397.25 852.78C1393.22 857.55 1389.2 862.31 1385.17 867.08C1401.77 864.11 1417.98 863.26 1434.44 865.11H1434.43ZM1323.21 916.73C1328.7 913.94 1332.75 910.45 1336.81 906.96C1338.45 905.55 1338.62 904.11 1337.59 902.17C1333.79 894.95 1328.68 888.45 1325.95 880.48C1326.74 892.56 1324.01 904.2 1323.2 916.74L1323.21 916.73ZM1443.21 840.64C1435.64 836.34 1428.13 832.04 1421.1 826.97C1419.29 825.67 1417.67 825.94 1416.35 827.65C1413.17 831.74 1410.04 835.87 1406.89 839.99C1407.14 840.48 1407.38 840.97 1407.63 841.45C1419.43 838.23 1431.24 839.69 1443.21 840.65V840.64ZM1313.12 926.16C1315.77 924.32 1316.44 921.96 1314.96 918.77C1312.58 913.63 1310.61 908.29 1307.3 903.36C1306.43 913.71 1304.97 923.42 1300.5 934.29C1305.78 930.91 1309.53 928.65 1313.12 926.16ZM1437.63 786.5C1449.43 775.02 1449.47 770.82 1437.56 753.85C1439.16 764.76 1438.73 775.57 1437.63 786.5ZM1315.3 942.1C1308.12 937.2 1308.07 937.2 1301.02 944.32C1307.95 945.73 1314.57 947.36 1320.82 950.02C1327.07 952.68 1333.12 955.78 1340.73 959.39C1331.34 953.01 1323.31 947.57 1315.29 942.1H1315.3ZM1285.11 918.44C1284.91 928.45 1283.61 936.96 1281.34 946.27C1293.18 940.03 1294.05 933.77 1285.11 918.44Z" fill="#9B6F53"/>
<path opacity="0.5" d="M1243.29 113.96C1249.13 115.95 1255.03 115.71 1260.93 114.19C1262.34 113.83 1263.71 113.29 1265.34 112.75C1263.95 116.06 1262.84 119.09 1262.33 122.27C1261.81 125.53 1261.47 128.84 1262.75 132.02C1263.63 134.2 1264.92 134.59 1266.89 133.35C1270.98 130.77 1273.26 126.82 1274.9 122.45C1275.61 120.56 1276.08 118.58 1276.74 116.33C1277.52 117.45 1278.1 118.32 1278.73 119.16C1281.61 123.05 1284.59 126.87 1288.9 129.3C1290.42 130.16 1292.15 131.1 1293.84 129.85C1295.49 128.62 1295.22 126.75 1294.9 124.99C1294.3 121.68 1292.7 118.84 1290.91 116.04C1289.06 113.14 1286.49 110.87 1284.02 108.1C1287.45 108.4 1290.52 108.54 1293.57 108.31C1297.79 107.99 1301.94 107.29 1305.58 104.9C1308.69 102.85 1308.5 100.07 1305.11 98.46C1302.8 97.36 1300.3 96.97 1297.76 96.81C1293.07 96.51 1288.49 97.09 1283.41 98.97C1286.63 95.11 1289.35 91.8 1291.3 87.95C1292.32 85.95 1293.09 83.87 1293.2 81.62C1293.35 78.51 1291.62 77.36 1288.85 78.72C1286.76 79.75 1285.12 81.36 1283.61 83.11C1281.06 86.08 1278.92 89.34 1276.93 92.75C1276.61 84.61 1275.16 76.81 1272.15 69.35C1271.66 68.15 1271.18 65.87 1269.66 66.49C1268.24 67.07 1269.49 69.02 1270.02 70.15C1273.34 77.15 1274.41 84.61 1274.81 92.22C1274.97 95.27 1274.69 98.29 1274.12 101.28C1273.24 101.19 1272.86 100.68 1272.41 100.27C1269.8 97.9 1267.24 95.48 1264.57 93.18C1261.2 90.27 1257.69 87.53 1253.26 86.38C1250.89 85.76 1249.96 86.66 1250.69 88.97C1251.41 91.27 1252.8 93.21 1254.44 94.96C1257.75 98.5 1261.5 101.46 1266.44 103.62C1262.51 104.33 1259.13 104.91 1255.76 105.56C1251.41 106.4 1247.03 107.22 1243.02 109.23C1241.94 109.77 1240.59 110.4 1240.62 111.78C1240.66 113.24 1242.16 113.57 1243.28 113.95L1243.29 113.96ZM1305.91 101.38C1300.96 107.43 1287.31 107.65 1276.83 103.92C1286.32 99.25 1295.71 96.28 1305.91 101.38ZM1278.69 93.62C1281.31 88.6 1284.77 84.26 1289.31 80.82C1289.72 80.51 1290.13 79.92 1290.67 80.14C1291.38 80.42 1291.15 81.21 1291.13 81.77C1291.03 84.21 1290.02 86.36 1288.9 88.46C1286.07 93.75 1282.19 98.12 1277.32 101.62C1276.96 101.88 1276.58 102.19 1275.91 101.99C1276.09 98.97 1277.32 96.25 1278.69 93.62ZM1292.69 124.75C1293.01 125.94 1293.53 127.68 1292.52 128.37C1291.59 129.01 1290.33 127.7 1289.33 127.06C1281.56 122 1277.15 114.69 1275.02 105.22C1284.06 109.4 1290.17 115.48 1292.69 124.75ZM1273.16 106.3C1275.04 109.99 1274.98 113.72 1274.35 117.39C1273.46 122.59 1270.97 127.02 1267.07 130.61C1266.6 131.04 1266.21 131.9 1265.42 131.6C1264.64 131.3 1264.49 130.47 1264.37 129.69C1263.6 124.78 1264.33 120.07 1266.49 115.63C1268.13 112.26 1270.25 109.18 1273.17 106.3H1273.16ZM1253.05 88.72C1260.45 91.95 1266.91 96.43 1271.81 103.04C1263.56 100.92 1256.9 96.68 1253.05 88.72ZM1270.17 105.54C1267.64 112.1 1251.64 115.77 1243.17 111.63C1251.83 107.4 1260.85 106.02 1270.17 105.54Z" fill="#A0A98A"/>
<path opacity="0.3" d="M1316.28 77.9701C1320.9 70.48 1327.19 64.36 1333.07 57.78C1338.86 51.3 1345.03 45.5201 1352.53 41.1001C1359.95 36.7201 1367.85 34.2901 1376.45 33.3201C1385.2 32.3301 1393.84 31.68 1401.91 35.23C1410.51 39.01 1417.91 45.5601 1426.75 48.8001C1435.05 51.8501 1444.38 51.2401 1452.63 47.3801C1458.83 44.4701 1465.05 41.2601 1470.05 36.7101C1474.64 32.5301 1479.06 27.1301 1485.52 26.5001C1493.79 25.7001 1501.56 30.7601 1505.69 37.3201C1510.46 44.9001 1510.91 54.6101 1510.51 63.5501C1510.41 65.8001 1512.12 68.3201 1511.67 70.5201C1511.57 71.0301 1511.01 70.98 1511.12 70.4701C1513.02 61.6501 1513.7 51.7601 1510.35 43.3801C1507.35 35.8601 1500.13 30.35 1492.26 27.37C1477.95 21.94 1467.03 34.0401 1457.06 41.3801C1454.21 43.4801 1452 46.01 1448.56 46.93C1443.97 48.15 1439.06 49.44 1434.49 48.29C1425.12 45.94 1417.64 38.8801 1409.24 34.3501C1404.97 32.0501 1400.71 28.74 1396.02 27.45C1391.69 26.26 1386.66 26.5401 1382.18 26.5501C1373.04 26.5701 1364.8 31.6101 1356.57 35.5001C1340.1 43.2801 1326.79 55.73 1317.45 70.98C1316.29 72.87 1313.93 74.16 1312.9 76.12C1312.19 77.47 1315.47 79.2901 1316.28 77.9901V77.9701Z" fill="#9B6F53"/>
<path opacity="0.3" d="M1422.34 30.21C1430.88 34 1440.74 32.71 1448.82 28.19C1456.08 24.12 1462.34 18.86 1469.59 14.78C1473.28 12.71 1477.1 11.25 1481.37 11.54C1486.35 11.88 1490.76 14.23 1494.83 17.01C1502.54 22.27 1510.04 28.77 1515 36.63C1519.97 44.49 1521.82 53.89 1523.78 62.98C1524.02 64.09 1525.77 64.91 1525.96 66.03C1525.96 66.05 1524.78 66.22 1524.78 66.21C1523.6 57.11 1522.14 47.75 1517.69 39.73C1513.18 31.6 1505.89 25.24 1498.7 19.33C1491.62 13.51 1483.08 8.72999 1473.84 11.74C1465.88 14.33 1460.15 20.93 1453.54 25.74C1449.8 28.46 1445.73 31.14 1441.2 32.2C1436.29 33.35 1430.64 33.39 1425.77 32.1C1424.56 31.78 1423.49 30.8 1422.31 30.37C1422.01 30.26 1422.06 30.09 1422.36 30.23L1422.34 30.21Z" fill="#9B6F53"/>
<path opacity="0.3" d="M1212.33 75.92C1217.6 71.37 1222.67 66.6 1228 62.12C1233.28 57.68 1238.69 53.38 1244.25 49.3C1255.38 41.12 1267.08 33.71 1279.44 27.51C1291.71 21.35 1304.62 16.5 1318 13.4C1331.4 10.3 1345.27 8.97004 1359.01 9.73004C1365.78 10.11 1372.54 11 1379.17 12.46C1385.86 13.92 1392.59 15.87 1398.91 18.56C1400.47 19.22 1402.01 19.93 1403.53 20.66C1403.84 20.81 1404.12 20.36 1403.81 20.19C1397.74 16.92 1391.43 14.13 1384.85 12.05C1378.23 9.95004 1371.43 8.50004 1364.54 7.63004C1350.62 5.88004 1336.53 6.47004 1322.73 8.91004C1308.86 11.36 1295.47 15.83 1282.66 21.65C1269.89 27.46 1257.8 34.68 1246.35 42.77C1234.79 50.93 1223.86 60 1213.41 69.53C1212.1 70.72 1210.82 71.92 1209.58 73.18C1207.79 74.97 1210.45 77.55 1212.33 75.93V75.92Z" fill="#9B6F53"/>
<g opacity="0.3">
<path d="M1316.48 657.41C1313.1 660.5 1313.76 664.48 1317.96 666.31C1320.79 667.54 1323.66 667.52 1326.59 666.58C1329.14 665.76 1331.33 664.25 1333.92 662.78C1333.55 663.99 1333.23 664.87 1333.02 665.77C1332.16 669.49 1331.96 673.16 1334.2 676.54C1335.97 679.21 1339.06 679.77 1341.65 677.88C1343.8 676.31 1344.85 674.05 1345.33 671.52C1345.67 669.72 1345.86 667.9 1346.2 665.54C1346.66 666.62 1346.87 667.16 1347.12 667.69C1348.75 671.16 1350.95 674.1 1354.71 675.45C1359.42 677.14 1362.78 674.31 1361.91 669.39C1361.37 666.38 1359.65 664 1357.61 661.82C1355.96 660.05 1354.34 658.25 1352.93 656.7C1353.88 656.96 1355.26 657.41 1356.67 657.69C1360.45 658.42 1364.11 658.26 1367.34 655.86C1368.92 654.68 1369.83 653.1 1369.2 651.12C1368.59 649.2 1367.33 647.75 1365.13 647.64C1363.4 647.55 1361.67 647.64 1359.94 647.64C1356.22 648.27 1352.51 648.91 1348.79 649.54L1348.64 648.81C1351.71 648.24 1354.77 647.67 1357.84 647.1C1361.25 646 1364.06 644.08 1365.91 640.94C1367.99 637.41 1366.38 634.33 1362.26 633.93C1359.06 633.62 1356.54 635.09 1354.32 637.13C1352.84 638.49 1351.55 640.05 1349.75 641.96C1351.14 638.07 1352.38 634.75 1352.18 631.12C1352.01 628.07 1350.74 625.84 1348.89 625.49C1346.91 625.12 1345.17 626.57 1344.07 629.7C1343.64 630.91 1343.33 632.2 1343.18 633.47C1342.88 636.04 1342.73 638.63 1342.48 641.73C1341.55 638.03 1341.08 634.7 1339.63 631.64C1338.5 629.26 1337.18 627.03 1334.98 625.51C1331.53 623.11 1328.06 624.77 1327.75 628.93C1327.6 630.96 1328.09 632.86 1328.93 634.72C1330 637.08 1331.78 638.95 1333.72 641.63C1332.36 640.84 1331.65 640.41 1330.93 640.02C1328.32 638.59 1325.61 637.46 1322.55 637.65C1320.18 637.8 1318.11 638.53 1317.08 640.91C1316.04 643.3 1316.95 645.3 1318.46 647.12C1320.42 649.5 1323.07 650.71 1326.01 651.38C1327.31 651.68 1328.63 651.94 1330.36 652.31C1327.37 653.05 1324.86 653.6 1322.39 654.29C1320.21 654.9 1318.17 655.87 1316.48 657.42V657.41ZM1363.5 648.92C1365.58 648.88 1367.13 649.57 1367.61 651.65C1368.11 653.84 1366.48 654.69 1364.82 655.42C1359.78 657.66 1353.05 656.12 1348.66 651.5C1353.79 650.42 1358.52 649.02 1363.5 648.92ZM1349.04 655.73C1352.61 659.01 1356.06 662.43 1358.75 666.5C1360.63 669.34 1360.61 671.69 1359 673.4C1358.14 674.31 1357.29 674.61 1356.01 674.21C1352.52 673.1 1350.34 670.69 1348.86 667.5C1347.32 664.16 1346.6 660.61 1346.44 656.86C1346.53 656.12 1346.02 655.01 1346.94 654.57C1347.9 654.11 1348.44 655.18 1349.04 655.74V655.73ZM1358.95 636.22C1360.52 635.37 1362.56 634.78 1363.92 636.5C1365.4 638.38 1364.58 640.34 1363.1 641.89C1359.12 646.06 1353.82 646.85 1348.36 647.38C1350.92 642.64 1354.27 638.75 1358.95 636.22ZM1346.1 628.98C1346.39 627.87 1347.05 627.4 1348.1 627.32C1349.14 627.24 1349.59 627.92 1350.04 628.73C1350.87 630.22 1350.63 631.79 1350.41 633.3C1349.76 637.73 1347.97 641.72 1345.22 645.85C1343.78 639.75 1344.68 634.35 1346.1 628.98ZM1343.16 653.47C1344.16 659.03 1344.7 664.1 1344.12 669.22C1343.82 671.86 1342.81 674.19 1340.97 676.19C1339.72 677.56 1338.5 677.55 1337.06 676.7C1335.18 675.59 1334.3 673.91 1334.2 671.77C1334.05 668.38 1334.95 665.26 1336.57 662.33C1338.29 659.23 1340.41 656.42 1343.15 653.47H1343.16ZM1329.9 631.83C1329.38 630.07 1328.75 627.51 1330.92 626.44C1333.31 625.25 1334.95 627.25 1336.25 628.99C1339.25 632.98 1340.13 637.78 1341.05 642.52C1341.32 643.91 1341.91 645.31 1341.48 647.22C1336.36 642.8 1331.8 638.28 1329.9 631.83ZM1320.41 646.72C1319.03 645.67 1317.6 644.39 1318.32 642.4C1319.06 640.36 1320.72 639.29 1322.93 639.3C1323.78 639.3 1324.67 639.38 1325.46 639.66C1330.41 641.37 1334.75 644.16 1338.71 647.54C1339.15 647.92 1339.78 648.52 1339.72 648.93C1339.6 649.78 1338.64 649.56 1338 649.64C1336.12 649.88 1334.23 650.05 1332.35 650.25C1327.97 650.36 1323.92 649.39 1320.41 646.72ZM1342.04 651.45C1336.6 657.28 1332.29 663.25 1324.82 665.32C1322.07 666.08 1319.48 665.81 1317.42 663.61C1315.79 661.87 1315.89 660.27 1317.64 658.67C1318.94 657.47 1320.57 656.86 1322.21 656.29C1328.43 654.12 1335 653.45 1342.05 651.46L1342.04 651.45Z" fill="#9B6F53"/>
<path d="M1359.93 647.64C1359.27 647.3 1358.37 647.92 1357.83 647.1C1357.13 647.56 1356.39 647.83 1355.64 648.01C1357.05 647.83 1358.49 647.68 1359.93 647.64Z" fill="#9B6F53"/>
<path d="M1350.24 648.81C1351.22 648.67 1352.21 648.51 1353.23 648.36C1352.2 648.45 1351.18 648.53 1350.24 648.81Z" fill="#9B6F53"/>
</g>
<g opacity="0.3">
<path d="M1421.24 71.98C1397.47 75 1377 85.67 1358.21 99.97C1356.36 101.38 1353.84 102.83 1354.51 106.02C1354.69 106.86 1353.84 106.86 1353.33 107.1C1343.5 111.73 1334.84 118.1 1326.69 125.19C1325.33 126.37 1324.15 127.77 1322.94 129.11C1322.56 129.53 1322.08 130.07 1322.46 130.7C1322.91 131.44 1323.67 131.41 1324.34 131.11C1325.98 130.35 1327.61 129.55 1329.22 128.71C1339.77 123.23 1350.93 121.03 1362.82 121.96C1379.09 123.23 1393.11 130.93 1408.27 137.45C1406.54 137.33 1405.46 137.29 1404.38 137.18C1389.45 135.64 1374.75 132.45 1359.79 130.98C1340.17 129.05 1323.48 134.38 1309.75 148.95C1300.55 158.71 1293.39 169.89 1285.73 180.75C1284.86 181.98 1283.12 183.67 1284.21 184.87C1285.38 186.17 1287.19 184.47 1288.45 183.71C1307.75 172.16 1328.83 166.77 1351.11 165.64C1357.78 165.3 1364.45 165.61 1371.76 166.81C1364.26 171.94 1358.31 177.82 1352.11 183.4C1350.05 185.25 1347.72 186.1 1344.96 185.93C1339.63 185.6 1334.3 185.35 1328.97 185.03C1313.84 184.14 1301.36 189.21 1292.68 201.9C1280.92 219.09 1275.93 238.52 1274.47 259.05C1274.29 261.62 1275.2 261.51 1277.19 260.84C1283.61 258.68 1289.62 255.61 1295.8 252.91C1296 252.78 1296.13 252.6 1296.18 252.37C1301.22 250.52 1305.7 247.42 1311.03 245.17L1317.54 241.05C1325.34 235.91 1332.33 229.84 1337.76 222.18C1341.05 217.54 1344.22 212.8 1345.93 207.31C1346.2 207.12 1346.47 206.88 1346.73 206.62C1346.94 206.4 1347.13 206.17 1347.29 205.91C1349.17 201.33 1350.86 196.68 1351.23 191.71C1351.38 189.66 1352.07 188.06 1353.42 186.58C1358.66 180.83 1365.23 176.63 1371 171C1369.87 176.37 1368.81 181.29 1367.55 186.17C1365.99 192.2 1364.79 198.36 1361.9 203.98C1358.31 212.31 1354.41 220.51 1351.94 229.29C1350.09 235.89 1348.25 242.51 1345.04 248.63C1344.62 249.43 1344.35 250.32 1344.33 251.24C1344.29 253.38 1345.37 254.22 1347.4 253.58C1348.78 253.15 1349.87 252.23 1350.98 251.36C1363.75 241.26 1371.65 228.14 1375.16 212.31C1375.94 208.77 1376.36 205.15 1376.9 201.57C1378.5 190.87 1379.04 180.11 1378.8 169.31C1378.75 167.07 1379.13 165.18 1380.97 163.65C1388.77 157.2 1397.12 151.48 1405.55 145.08C1401.11 155.46 1399.08 165.92 1397.48 176.52C1396.3 184.4 1396.18 192.41 1394.36 200.2C1392.56 212.28 1389.08 223.76 1382.58 234.23C1381.62 235.78 1380.11 237.75 1381.66 239.47C1383.2 241.16 1385.31 239.97 1386.99 239.15C1395.11 235.17 1401.07 228.79 1405.84 221.32C1410.56 213.95 1413.49 205.81 1414.87 197.14C1415.28 194.96 1415.55 192.76 1415.69 190.55C1416.47 178.56 1415.74 166.61 1414.72 154.67C1414.38 150.76 1414.13 146.85 1414.4 142.91C1414.57 140.37 1415.51 138.51 1417.67 137.18C1423.16 133.81 1428.49 130.16 1434.07 126.94C1436.37 125.61 1438.69 124.27 1441.61 122.76C1437.21 134.42 1436.13 146.05 1435.7 157.72C1435.19 171.65 1433.63 185.43 1431.06 199.12C1429.47 207.03 1427.75 214.89 1422.45 221.37C1421.94 221.99 1421.56 222.73 1421.4 223.53C1421.04 225.23 1421.73 226.06 1423.49 225.81C1424.39 225.68 1425.19 225.21 1426.01 224.83C1430.66 222.64 1434.94 219.8 1439.33 217.14C1445.18 213.59 1450.84 209.77 1455.9 205.12C1459.27 202.23 1462.69 199.43 1465.72 196.15C1474.03 187.13 1479.96 176.64 1484.92 165.53C1491.24 151.38 1491.33 137.46 1483.6 123.7C1481.03 119.11 1478.14 114.75 1475.16 110.44C1473.16 107.53 1473.16 107.39 1476.52 106.02C1481.65 103.92 1486.84 101.96 1492.12 100.26C1498.91 97.72 1505.77 95.34 1512.69 93.15C1534.47 86.24 1556.53 80.81 1579.58 80.68C1580.39 80.68 1581.2 80.6 1581.92 80.2C1582.76 79.74 1583.38 79.09 1583.41 78.09C1583.44 76.98 1582.6 76.53 1581.73 76.21C1579.8 75.5 1577.78 75.54 1575.76 75.63C1568.4 75.99 1561.1 76.9 1553.85 78.09C1531.47 81.74 1509.92 88.34 1488.84 96.59C1484.03 98.37 1479.25 100.24 1474.47 102.09C1472.26 102.95 1470.89 102.73 1470.03 100.33C1468.84 97.02 1467.16 93.91 1465.75 90.68L1459.29 82.52C1457.65 81.21 1456.38 80.1 1455.02 79.12C1444.81 71.8 1433.24 70.48 1421.25 72L1421.24 71.98ZM1333.4 213.46C1335.01 211.9 1336.4 210.11 1337.88 208.41C1340.63 204.23 1343.38 200.05 1346.14 195.86C1346.05 199.8 1344.46 203.23 1343.31 206.79C1343.1 207.21 1342.88 207.64 1342.67 208.06C1337.33 221.67 1327.42 231.34 1315.52 239.2C1309.82 242.97 1303.91 246.45 1297.35 248.6C1296.74 249.52 1295.3 249.43 1294.9 250.61C1290.88 251.61 1287.4 253.93 1283.55 255.34C1282.53 255.71 1281.55 256.2 1280.62 256.61C1297.07 230.78 1320.94 212.4 1344.78 192.91C1340.34 200.04 1336.43 206.65 1331.45 212.55C1331.16 214.9 1332.46 214.37 1333.41 213.45L1333.4 213.46ZM1326.05 187.8C1330.97 187.9 1335.9 188.09 1341.61 189.02C1335.32 192.73 1330.17 196.54 1325.05 200.43C1315.79 207.48 1308.97 216.75 1301.75 225.68C1294.03 235.24 1285.82 244.4 1278.64 254.39C1278.54 254.52 1278.29 254.54 1277.87 254.72C1278.19 245.83 1279.85 237.31 1282.45 228.96C1285.77 218.3 1290.26 208.26 1297.83 199.82C1305.38 191.39 1314.88 187.58 1326.05 187.81V187.8ZM1350.45 245.93C1351.86 241.46 1353.29 236.99 1354.69 232.51C1356.28 227.43 1358 222.39 1359.86 217.39C1362.03 211.54 1366.77 208.86 1372.58 206.4C1370.11 222.61 1362.93 235.68 1350.46 245.92L1350.45 245.93ZM1374.98 188.91C1374.66 192.71 1374 196.49 1373.71 200.3C1373.57 202.08 1372.98 202.77 1371.19 202.78C1369.72 202.78 1368.24 203.16 1366.24 203.45C1369.9 192.89 1371.42 182.02 1374.87 171.61C1375.84 177.4 1375.46 183.16 1374.99 188.91H1374.98ZM1334.35 164.85C1323.26 166.56 1312.65 170 1301.92 173.9C1306 168.13 1322.9 159.47 1333.04 157.75C1345.19 155.68 1356.51 158.97 1367.77 163.13C1356.61 163.15 1345.45 163.14 1334.35 164.85ZM1410.53 146.31C1411.55 159.66 1413.15 172.98 1412.6 186.41C1412.43 190.44 1412.04 194.44 1411.07 198.36C1407.73 214.32 1397.99 229.12 1387.35 234.08C1390.19 228.51 1392.54 223 1394.41 217.3C1396.43 211.13 1397.36 204.75 1398.19 198.35C1398.19 198.12 1398.23 197.86 1398.29 197.58C1401.03 179.54 1402.56 161.24 1409.86 144.12C1410.85 144.7 1410.47 145.61 1410.53 146.32V146.31ZM1406.09 140.07C1399.4 145.19 1392.99 150.14 1386.53 155.03C1383.64 157.22 1380.61 159.23 1377.78 161.49C1376.49 162.52 1375.46 162.47 1374 161.94C1365.48 158.84 1356.95 155.78 1347.87 154.68C1332.86 152.87 1319.63 157.56 1307.48 165.92C1302.36 169.44 1297.45 173.24 1292.44 176.91C1292.22 176.69 1292 176.48 1291.78 176.26C1300.81 163.26 1310.23 150.57 1323.5 141.42C1335.59 133.09 1349.19 132.15 1363.24 133.94C1377.42 135.75 1391.42 138.8 1406.08 140.05L1406.09 140.07ZM1355.97 105.74C1366.6 98.02 1378.24 93.54 1391.34 93.25C1404.2 92.96 1415.88 97.06 1426.95 103.2C1432.67 106.37 1438.16 109.91 1443.17 114.25C1437.8 113.25 1432.68 111.46 1427.55 109.71C1419.08 106.83 1410.76 103.51 1402.09 101.23C1387.02 97.26 1372.54 99.48 1358.37 105.2C1357.73 105.46 1357.08 105.7 1356.43 105.94C1356.37 105.96 1356.27 105.88 1355.98 105.76L1355.97 105.74ZM1413.43 135.47C1412.13 136.25 1411.13 135.65 1410.04 135.19C1402.44 131.99 1395.08 128.24 1387.37 125.3C1368.2 117.99 1353.98 117.46 1334.13 123.49C1334.1 122.53 1334.84 122.11 1335.37 121.7C1349.19 111.16 1364.11 103.14 1381.86 101.77C1392.23 100.97 1402.08 103.37 1411.66 107C1420.22 110.24 1428.8 113.41 1437.73 115.52C1439.57 115.95 1441.44 116.45 1443.04 117.86C1433.11 123.76 1423.25 129.58 1413.44 135.46L1413.43 135.47ZM1434.84 198.35C1438.53 180.95 1438.89 163.2 1440.45 145.57C1441 139.35 1442.11 133.22 1443.85 127.21C1444.11 126.31 1444.11 125.27 1445.17 124.31C1449.01 148.68 1450.49 172.57 1441.18 195.88C1440.48 197.64 1439.59 199.33 1438.78 201.06C1437.13 204.6 1434.84 207.73 1432.1 211.63C1433.13 206.63 1433.98 202.49 1434.84 198.35ZM1473.74 178.53C1477.03 156.93 1474.3 135.47 1472.42 113.25C1490.26 137.53 1490.53 153.08 1473.74 178.53ZM1467.77 187.17C1470.87 162.03 1465.37 136.75 1469.11 111.66C1471.34 136.9 1476.21 162.18 1467.77 187.17ZM1465.3 123.9C1464.8 137.4 1466.06 150.88 1466.06 164.37C1466.06 171.72 1465.86 179.05 1464.82 186.35C1464.01 192.02 1461.67 196.67 1456.88 199.98C1455.15 201.18 1453.5 202.51 1451.82 203.78C1445.11 208.83 1438.24 213.63 1430.84 217.78C1435.01 212.62 1438.62 207.11 1441.86 201.36C1447.25 188.64 1450.62 175.47 1450.71 161.57C1450.79 150.16 1449.7 138.84 1448.38 127.52C1447.33 118.51 1447.38 118.51 1455.58 114.59C1458.91 113 1462.19 111.27 1466.06 110.2C1465.79 114.89 1465.46 119.38 1465.3 123.88V123.9ZM1465.94 104.21C1466.95 105.84 1467.15 106.74 1464.95 107.64C1460.49 109.46 1456.14 111.58 1451.84 113.76C1450.28 114.55 1449.24 114.49 1447.78 113.48C1438.36 106.92 1428.77 100.61 1418.21 95.99C1404.24 89.88 1389.89 89.74 1375.32 93.41C1374.64 93.58 1373.97 93.75 1373.27 93.93C1372.91 93.2 1373.48 93 1373.81 92.78C1386.14 84.49 1399.24 77.97 1414.23 76.37C1429.72 74.72 1442.84 80.4 1454.31 90.43C1458.88 94.43 1462.75 99.05 1465.95 104.23L1465.94 104.21ZM1462.49 93.88C1454.09 84.8 1443.45 79.3 1431.98 74.89C1440.56 71.34 1458.13 82.19 1462.49 93.88Z" fill="#9B6F53"/>
</g>
<g opacity="0.3">
<path d="M151.38 496.84C148 499.93 148.66 503.91 152.86 505.74C155.69 506.97 158.56 506.95 161.49 506.01C164.04 505.19 166.23 503.68 168.82 502.21C168.45 503.42 168.13 504.3 167.92 505.2C167.06 508.92 166.86 512.59 169.1 515.97C170.87 518.64 173.96 519.2 176.55 517.31C178.7 515.74 179.75 513.48 180.23 510.95C180.57 509.15 180.76 507.33 181.1 504.97C181.56 506.05 181.77 506.59 182.02 507.12C183.65 510.59 185.85 513.53 189.61 514.88C194.32 516.57 197.68 513.74 196.81 508.82C196.27 505.81 194.55 503.43 192.51 501.25C190.86 499.48 189.24 497.68 187.83 496.13C188.78 496.39 190.16 496.84 191.57 497.12C195.35 497.85 199.01 497.69 202.24 495.29C203.82 494.11 204.73 492.53 204.1 490.55C203.49 488.63 202.23 487.18 200.03 487.07C198.3 486.98 196.57 487.07 194.84 487.07C191.12 487.7 187.41 488.34 183.69 488.97L183.54 488.24C186.61 487.67 189.67 487.1 192.74 486.53C196.15 485.43 198.96 483.51 200.81 480.37C202.89 476.84 201.28 473.76 197.16 473.36C193.96 473.05 191.44 474.52 189.22 476.56C187.74 477.92 186.45 479.48 184.65 481.39C186.04 477.5 187.28 474.18 187.08 470.55C186.91 467.5 185.64 465.27 183.79 464.92C181.81 464.55 180.07 466 178.97 469.13C178.54 470.34 178.23 471.63 178.08 472.9C177.78 475.47 177.63 478.06 177.38 481.16C176.45 477.46 175.98 474.13 174.53 471.07C173.4 468.69 172.08 466.46 169.88 464.94C166.43 462.54 162.96 464.2 162.65 468.36C162.5 470.39 162.99 472.29 163.83 474.15C164.9 476.51 166.68 478.38 168.62 481.06C167.26 480.27 166.55 479.84 165.83 479.45C163.22 478.02 160.51 476.89 157.45 477.08C155.08 477.23 153.01 477.96 151.98 480.34C150.94 482.73 151.85 484.73 153.36 486.55C155.32 488.93 157.97 490.14 160.91 490.81C162.21 491.11 163.53 491.37 165.26 491.74C162.27 492.48 159.76 493.03 157.29 493.72C155.11 494.33 153.07 495.3 151.38 496.85V496.84ZM198.4 488.35C200.48 488.31 202.03 489 202.51 491.08C203.01 493.27 201.38 494.12 199.72 494.85C194.68 497.09 187.95 495.55 183.56 490.93C188.69 489.85 193.42 488.45 198.4 488.35ZM183.94 495.16C187.51 498.44 190.96 501.86 193.65 505.93C195.53 508.77 195.51 511.12 193.9 512.83C193.04 513.74 192.19 514.04 190.91 513.64C187.42 512.53 185.24 510.12 183.76 506.93C182.22 503.59 181.5 500.04 181.34 496.29C181.43 495.55 180.92 494.44 181.84 494C182.8 493.54 183.34 494.61 183.94 495.17V495.16ZM193.85 475.65C195.42 474.8 197.46 474.21 198.82 475.93C200.3 477.81 199.48 479.77 198 481.32C194.02 485.49 188.72 486.28 183.26 486.81C185.82 482.07 189.17 478.18 193.85 475.65ZM181 468.41C181.29 467.3 181.95 466.83 183 466.75C184.04 466.67 184.49 467.35 184.94 468.16C185.77 469.65 185.53 471.22 185.31 472.73C184.66 477.16 182.87 481.15 180.12 485.28C178.68 479.18 179.58 473.78 181 468.41ZM178.06 492.9C179.06 498.46 179.6 503.53 179.02 508.65C178.72 511.29 177.71 513.62 175.87 515.62C174.62 516.99 173.4 516.98 171.96 516.13C170.08 515.02 169.2 513.34 169.1 511.2C168.95 507.81 169.85 504.69 171.47 501.76C173.19 498.66 175.31 495.85 178.05 492.9H178.06ZM164.8 471.26C164.28 469.5 163.65 466.94 165.82 465.87C168.21 464.68 169.85 466.68 171.15 468.42C174.15 472.41 175.03 477.21 175.95 481.95C176.22 483.34 176.81 484.74 176.38 486.65C171.26 482.23 166.7 477.71 164.8 471.26ZM155.31 486.15C153.93 485.1 152.5 483.82 153.22 481.83C153.96 479.79 155.62 478.72 157.83 478.73C158.68 478.73 159.57 478.81 160.36 479.09C165.31 480.8 169.65 483.59 173.61 486.97C174.05 487.35 174.68 487.95 174.62 488.36C174.5 489.21 173.54 488.99 172.9 489.07C171.02 489.31 169.13 489.48 167.25 489.68C162.87 489.79 158.82 488.82 155.31 486.15ZM176.94 490.88C171.5 496.71 167.19 502.68 159.72 504.75C156.97 505.51 154.38 505.24 152.32 503.04C150.69 501.3 150.79 499.7 152.54 498.1C153.84 496.9 155.47 496.29 157.11 495.72C163.33 493.55 169.9 492.88 176.95 490.89L176.94 490.88Z" fill="#9B6F53"/>
<path d="M194.84 487.07C194.18 486.73 193.28 487.35 192.74 486.53C192.04 486.99 191.3 487.26 190.55 487.44C191.96 487.26 193.4 487.11 194.84 487.07Z" fill="#9B6F53"/>
<path d="M185.14 488.24C186.12 488.1 187.11 487.94 188.13 487.79C187.1 487.88 186.08 487.96 185.14 488.24Z" fill="#9B6F53"/>
</g>
</g>
</svg>
